<?xml version="1.0" standalone="no"?>
<!DOCTYPE svg PUBLIC "-//W3C//DTD SVG 1.1//EN" "http://www.w3.org/Graphics/SVG/1.1/DTD/svg11.dtd" >
<svg xmlns="http://www.w3.org/2000/svg">
<metadata></metadata>
<defs>
<font id="always_togetherregular" horiz-adv-x="694" >
<font-face units-per-em="2048" ascent="1401" descent="-647" />
<missing-glyph horiz-adv-x="512" />
<glyph unicode="&#x28;C&#x29;" horiz-adv-x="1486" d="M57 879q13 73 47 159q35 87 82 164q46 75 101 127q129 116 288 150q82 18 170 12q58 -2 142 -31q156 -55 276 -157q123 -105 199 -246.5t72 -290.5q-4 -152 -79.5 -294t-197.5 -245q-130 -110 -266 -147q-151 -39 -297 -2q-167 39 -291 151q-95 88 -153 230 q-50 54 -62 119l-12 73q-4 20 -4 31q-2 2 -2 8q-1 6 -4 15.5t-3 11.5q-17 88 -6 162zM154 821q0 -27 2 -41l6 -43v-8q2 -2 2 -4q0 -6 4 -18q2 -13 6 -40.5t6 -41.5l2 -2v-9q4 -12 4 -16q2 -5 5.5 -16.5t5.5 -16.5q22 -6 32 -30q3 -14 9 -25q1 -2 3 -7t3 -7q0 -2 1 -5.5 t1 -5.5q9 -18 10 -22l2 -2l6 -12q22 -43 49 -80q8 -12 15 -19l2 -2q1 -1 3 -4t3 -4q10 -12 31 -33l36 -31l21 -14q0 -2 2 -2q1 -1 3 -2t3 -2q53 -32 70 -39q18 -9 39 -18q2 -1 6 -2t6 -2q10 -5 12 -5q21 -7 72 -20l37 -6h18l13 -2q23 -4 63 0q15 0 35 4q12 0 16 2h8 q28 5 66 18q5 2 16.5 6.5t16.5 6.5q3 1 8 3t8 3q2 0 6 4q59 27 121 76q12 8 16 12q0 1 1 2t1 2q3 0 5 2q4 4 13 11.5t13 11.5q8 9 25.5 26.5t25.5 26.5q4 5 22 26t26 33q1 1 3 4t3 4q1 3 2.5 5.5t3 5.5t2.5 4q6 7 20 31q23 44 33 67q5 9 14 35l7 14q0 1 1 4.5t1 5.5 q12 34 18 72l6 37q0 3 1 8t1 8v9q0 48 -2 73q0 11 -4 35q0 1 -1 6t-1 6q-4 12 -4 19q-1 3 -23 67q-3 5 -8 19q-1 1 -3 6t-3 6l-12 25q-30 59 -82 121l-10 10q-1 2 -5 6.5t-6 7.5q-21 21 -26 25q-5 6 -56 51l-30 25q-5 5 -15 10q-4 4 -6 4q-32 22 -63 41q-39 21 -68 33 q-21 7 -35 14h-4l-2 2q-12 4 -18 4q-36 13 -70 18l-37 7h-26q-24 0 -74 -4q-4 0 -11.5 -1.5t-11.5 -1.5h-2q-2 -2 -6 -2q-7 -1 -19 -4l-16 -4q-31 -9 -73 -26q-8 -4 -13 -4l-2 -3q-8 -4 -14 -6l-31 -18q-28 -17 -63 -45l-6 -4l-2 -2q-6 -4 -15 -13q-16 -16 -24 -26 q-19 -19 -25 -29q-8 -8 -10 -12l-4 -8q-29 -46 -45 -76q-31 -60 -41 -84q-3 -7 -8.5 -21.5t-8.5 -21.5q-2 -4 -2 -8l-2 -4q-1 -3 -3 -10.5t-3 -10.5q-11 -31 -22 -86q0 -4 -1 -10.5t-1 -9.5v-17zM299 741q-13 132 31 238q26 69 82 131q56 63 135 98q72 34 153 37 q68 0 103 -4q36 -5 64.5 -12.5t61.5 -21.5t55 -38t30 -57q5 -20 -5 -37.5t-30 -23.5q-21 -5 -39 4.5t-22 29.5q0 1 -1.5 4.5t-1.5 4.5q-2 2 -2 4h-2q-3 5 -8 8l-2 2q-2 1 -5 3t-5 3t-5 3t-5 3h-2q-21 9 -56 17q-3 0 -8 1t-8 1q-1 0 -4 1t-4 1q-4 0 -11.5 1t-11.5 1 q-62 4 -96 2q-2 -2 -6 -2h-4q-3 -1 -9.5 -2t-9.5 -2q-4 -1 -35 -11q-4 0 -12 -4q-2 -2 -4 -2l-12 -6q-19 -8 -33 -16l-18 -13q-1 -1 -4.5 -3t-4.5 -3l-2 -2q-20 -16 -26 -22q-4 -5 -13.5 -14.5t-13.5 -14.5q-2 -4 -6 -8q-6 -6 -10 -14q-21 -32 -31 -56q0 -2 -2 -4 q0 -4 -4 -12q-1 -4 -4 -13.5t-4 -13.5q-10 -44 -11 -55l-2 -4v-14q-2 -10 -2 -29q0 -40 2 -60q0 -10 2 -16v-2q1 -5 2.5 -14.5t2.5 -14.5q5 -21 16 -55q1 -2 3 -7t3 -7q0 -1 1 -5.5t1 -5.5q2 -3 5 -9t5 -9q16 -32 29 -47q0 -2 4 -6q1 -1 3 -4t3 -4q3 -3 9.5 -10.5t9.5 -10.5 q4 -4 20 -16l2 -2q4 -4 12 -8q10 -8 25 -15q8 -4 10 -4q2 -2 4 -2q34 -11 58 -14h4q2 -2 8 -2q4 0 11 -1t10 -1q6 0 18 -1t18 -1h39q3 0 9.5 1t9.5 1h8q30 5 67 18q7 0 11 4h2q2 1 7 3t7 3q29 17 31 19q24 14 31 20l2 2q4 2 8 6q3 2 16 15q15 13 35.5 13t34.5 -13 q14 -14 14.5 -36t-14.5 -36q-95 -88 -205 -111q-46 -10 -113 -10q-77 4 -114 12q-125 26 -205 144q-67 100 -80 235z" />
<glyph unicode="&#x28;R&#x29;" horiz-adv-x="1486" d="M57 879q13 73 47 159q35 87 82 164q46 75 101 127q129 116 288 150q82 18 170 12q58 -2 142 -31q156 -55 276 -157q123 -105 199 -246.5t72 -290.5q-4 -152 -79.5 -294t-197.5 -245q-130 -110 -266 -147q-151 -39 -297 -2q-167 39 -291 151q-95 88 -153 230 q-50 54 -62 119l-12 73q-4 20 -4 31q-2 2 -2 8q-1 6 -4 15.5t-3 11.5q-17 88 -6 162zM154 821q0 -27 2 -41l6 -43v-8q2 -2 2 -4q0 -6 4 -18q2 -13 6 -40.5t6 -41.5l2 -2v-9q4 -12 4 -16q2 -5 5.5 -16.5t5.5 -16.5q22 -6 32 -30q3 -14 9 -25q1 -2 3 -7t3 -7q0 -2 1 -5.5 t1 -5.5q9 -18 10 -22l2 -2l6 -12q22 -43 49 -80q8 -12 15 -19l2 -2q1 -1 3 -4t3 -4q10 -12 31 -33l36 -31l21 -14q0 -2 2 -2q1 -1 3 -2t3 -2q53 -32 70 -39q18 -9 39 -18q2 -1 6 -2t6 -2q10 -5 12 -5q21 -7 72 -20l37 -6h18l13 -2q23 -4 63 0q15 0 35 4q12 0 16 2h8 q28 5 66 18q5 2 16.5 6.5t16.5 6.5q3 1 8 3t8 3q2 0 6 4q59 27 121 76q12 8 16 12q0 1 1 2t1 2q3 0 5 2q4 4 13 11.5t13 11.5q8 9 25.5 26.5t25.5 26.5q4 5 22 26t26 33q1 1 3 4t3 4q1 3 2.5 5.5t3 5.5t2.5 4q6 7 20 31q23 44 33 67q5 9 14 35l7 14q0 1 1 4.5t1 5.5 q12 34 18 72l6 37q0 3 1 8t1 8v9q0 48 -2 73q0 11 -4 35q0 1 -1 6t-1 6q-4 12 -4 19q-1 3 -23 67q-3 5 -8 19q-1 1 -3 6t-3 6l-12 25q-30 59 -82 121l-10 10q-1 2 -5 6.5t-6 7.5q-21 21 -26 25q-5 6 -56 51l-30 25q-5 5 -15 10q-4 4 -6 4q-32 22 -63 41q-39 21 -68 33 q-21 7 -35 14h-4l-2 2q-12 4 -18 4q-36 13 -70 18l-37 7h-26q-24 0 -74 -4q-4 0 -11.5 -1.5t-11.5 -1.5h-2q-2 -2 -6 -2q-7 -1 -19 -4l-16 -4q-31 -9 -73 -26q-8 -4 -13 -4l-2 -3q-8 -4 -14 -6l-31 -18q-28 -17 -63 -45l-6 -4l-2 -2q-6 -4 -15 -13q-16 -16 -24 -26 q-19 -19 -25 -29q-8 -8 -10 -12l-4 -8q-29 -46 -45 -76q-31 -60 -41 -84q-3 -7 -8.5 -21.5t-8.5 -21.5q-2 -4 -2 -8l-2 -4q-1 -3 -3 -10.5t-3 -10.5q-11 -31 -22 -86q0 -4 -1 -10.5t-1 -9.5v-17zM500 1184q-6 20 5.5 38t31.5 23q4 0 6 2q45 27 116 27q25 1 70.5 -3t56.5 -5 q56 -4 76 -9q47 -14 72 -34q65 -49 102 -128t43 -167q8 -107 -32 -170q-41 -66 -125 -99q-3 -1 -9 -2t-8 -2q7 -9 21 -32q26 -47 37 -76q20 -52 43 -146q5 -20 -5 -37.5t-30 -23.5q-21 -5 -39.5 5t-22.5 30q-26 101 -41 139q-1 2 -2 5t-2 5t-3 7.5t-3 7.5q-3 5 -8 15t-8 15 q-2 3 -5.5 8.5t-5.5 8.5q-4 0 -4 4q-2 0 -2 2q-12 12 -16 18q-4 4 -6 4q0 2 -4 2q-5 5 -11 5q-2 1 -6 2t-6 2h-6q-2 0 -6 1t-6 1h-31q-10 -2 -31 -2q-6 -2 -18 -2q-2 -2 -10 -2q-28 -3 -50 -9q4 -168 -6 -252q-4 -22 -16 -34q-12 -15 -35 -15q-19 0 -34.5 14.5t-14.5 34.5 l6 68q2 56 2.5 67t-2 66t-2.5 66q-3 100 0 200q0 31 -1 96t-1 97q0 59 -2 88q0 19 -2 27v10q-3 18 -10 39zM606 1167q4 -20 4 -30q5 -10 4.5 -87t-0.5 -89v-201v-29q14 2 41 2q33 2 97 2q8 0 24 1t23 1q3 0 8.5 1t7.5 1t6.5 1t5.5 1q30 3 60 13q8 4 12 4q1 1 5 3t5 3 q19 10 25 14l2 2q1 1 3 2t3 2q3 6 10 13q0 2 2 2q0 2 2 2q1 2 9 14q1 1 2 4t2 4q4 12 4 19q4 12 4 18t2 8q2 26 -2 78q0 6 -2 8v11q-4 12 -4 18l-13 37q-1 2 -2 6t-2 6q-3 9 -6 15l-7.5 15t-8.5 15q-2 4 -8.5 13.5t-8.5 13.5q-8 8 -8 10l-12 12q-11 11 -14 13q-1 0 -2 1 t-2 1q-10 8 -23 14q-1 0 -7 2t-7 2q-12 4 -17 4h-4q-1 0 -2 1t-2 1h-16q-23 0 -65.5 4t-57.5 5q-20 0 -35 -3h-14q-1 0 -3 -1t-3 -1q-2 0 -7 -1t-8 -1z" />
<glyph unicode="&#x33;&#x2f;&#x34;" horiz-adv-x="1290" d="M51 928q-1 20 14.5 34.5t36.5 14.5q22 0 36 -14.5t14 -34.5q2 -2 2 -4v-2v-2q1 -1 2.5 -3l3 -4t2.5 -2q1 -1 2 -3t2 -3q4 -4 6 -4q4 -4 12 -8q1 -1 15 -8q1 0 2 -1t2 -1h2q22 -9 33 -11q2 0 5 -1t5 -1h10q6 -2 16 -2l12 2h-1h4q6 0 8 2q5 0 20 5q4 4 9 4q2 0 2 2 q8 3 16 8q8 4 10 8l4 2q1 1 3.5 3t3.5 3q3 2 8 7.5t8 7.5l2 4q0 1 1 2t1 2q2 2 8 14q1 1 2 3t2 3v2q10 29 11 37v4v2q2 6 2 19q0 12 -2 18v2v2q-3 17 -9 31q0 1 -1 3t-1 3q-6 12 -8 14q-5 10 -8 13l-2 4q-4 4 -11.5 12t-11.5 12q-2 1 -5 4.5t-5 4.5q-1 1 -3 2t-3 2 q-5 3 -14.5 9t-14.5 9q-2 1 -7 3t-7 3q-1 0 -3 1t-3 1q-31 10 -35 11q-2 1 -7.5 2t-8.5 2h-4h-3q-2 0 -6 1t-6 1q-19 3 -29.5 22t-5.5 39q3 15 17.5 26.5t29.5 10.5q3 0 8 -1t7 -1h4h14h29h4q2 1 6 2t6 2q20 5 23 6q2 2 6 2q2 2 10 6q2 1 10 9q2 0 2 2q9 6 15 12l4 6 q4 8 6 10q0 2 2 4v2q1 2 2 7.5t2 7.5v2v2v16v11q0 3 -1 7.5t-1 6.5q-4 12 -4 14l-2 2q-3 10 -8 15q0 1 -2 4t-2 4q-2 2 -6.5 6t-6.5 6h-2l-2 2q-2 1 -5 3t-5 3q-8 4 -10 6h-2q-15 6 -27 9h-6q-1 0 -4 1t-4 1q-21 0 -29 -2h-2q-2 0 -6 -1t-6 -1q-15 -3 -27 -9q-2 0 -4 -2 q-8 -4 -10 -6q-9 -3 -14 -8l-2 -2q-3 -3 -9.5 -9t-9.5 -9q-12 -15 -35 -14.5t-35 14.5q-15 15 -14.5 35.5t14.5 35.5q50 59 133.5 73t151.5 -22q68 -35 93.5 -111t-5.5 -145q-22 -52 -69 -79q5 -4 30 -29q43 -43 60 -96q17 -57 8 -121q-13 -89 -82 -146q-47 -34 -84 -45 q-14 -6 -47 -10l1 1q-11 -1 -13 -1q-4 -2 -13 -2q-78 2 -146 45t-71 115zM219 -117l6 25q21 85 80.5 245t106.5 269q11 29 20 45q0 2 4 10q2 4 2 6q1 3 4 9.5t4 9.5q32 83 35 92q19 50 62 186q5 16 28 84t33 105q21 73 58 190q37 127 59 184q21 52 60 171.5t46 160.5 q3 20 23 30.5t39 4.5q42 -12 35 -61q0 -9 -4 -25q-7 -36 -111 -332q-19 -50 -59 -186q-24 -83 -58 -191q-10 -36 -32.5 -103t-28.5 -85q-41 -125 -64 -186q-3 -9 -35 -92q-12 -24 -22 -54l-10 -20q-1 -1 -2 -4.5t-2 -5.5v-3q-38 -91 -97 -254t-84 -251q-6 -20 -23.5 -30.5 t-37.5 -4.5q-20 4 -30 22t-5 39zM641 383q8 28 18.5 58t27 71.5t22.5 56.5q18 49 30 99q0 6 4 22l2 10v5v45q0 21 15.5 36t36.5 15t34 -14.5t15 -36.5q1 -43 -8.5 -92.5t-19 -77t-34 -91t-30.5 -79.5q8 0 24 -1t23 -1q78 4 119 6h84q4 136 4 200q0 22 14.5 37t34.5 15 q22 0 36.5 -15t14.5 -37q0 -66 -4 -198h86q20 0 34.5 -14.5t14.5 -34.5q0 -21 -14.5 -36.5t-34.5 -15.5h-90q-8 -184 -8 -274q0 -20 -15 -34.5t-35 -14.5t-35.5 14.5t-15.5 34.5q0 92 8 272q-57 0 -86 -2q-52 -4 -120 -3t-117 14q-20 6 -30.5 23.5t-4.5 37.5z" />
<glyph unicode="AE" horiz-adv-x="1165" d="M51 39q0 35 10 205q7 119 7 202q-3 203 0 406q0 169 2 203q3 86 16 200q8 60 16 88q8 29 35 76q50 78 117 115q60 32 137 29l199 -9q60 -2 233.5 5.5t233.5 -3.5q21 -2 35 -15t14 -34q0 -20 -14.5 -36t-34.5 -15q-96 7 -136.5 7t-136 -4t-135.5 -5v-29q0 -36 -8 -110 q-1 -9 -4.5 -37t-3.5 -43v-191q0 -58 -4 -176q25 0 74 -1t73 -1q49 0 74 2q23 0 35 2q6 0 8 2q3 0 8 1t8 1q21 5 39.5 -4t22.5 -30q6 -19 -4.5 -39t-30.5 -23q-46 -9 -93 -11.5t-123 -0.5t-93 2q0 -21 -1 -65.5t-1 -65.5q0 -169 2 -203q1 -29 4 -62t7.5 -72.5t6.5 -63.5 q4 -48 8 -144q73 -1 210.5 4.5t199.5 5.5q22 0 36.5 -14.5t14.5 -34.5q0 -21 -15 -36t-36 -15q-59 0 -211 -5t-234 -3q-3 0 -8 -1t-8 -1q-21 0 -35 14t-14 35q0 122 -10 207q-1 7 -2 21.5t-2 21.5q-44 -1 -174 8q-39 2 -113 2q-37 0 -55 -2q-4 0 -13.5 -1t-13.5 -1l-4 -2 q-14 -196 -14 -256q0 -20 -14.5 -33.5t-35.5 -13.5q-22 0 -36.5 13.5t-14.5 33.5zM167 716.5q0 -67.5 0.5 -150.5t0.5 -128v-43q83 11 192 4q106 -8 166 -8q-2 18 -2 55v203q1 44 4.5 187t3.5 221v100v80q1 14 4.5 41.5t4.5 42.5q8 74 8 111q0 16 -2 24l-144 6q-17 3 -34 0 h-17q-4 -2 -8 -2q-18 -4 -29 -8q-1 -1 -3 -2t-3 -2q-1 0 -3 -1t-3 -1q-3 -2 -8 -5t-8 -5q-1 -1 -4 -3t-4 -3t-5.5 -4.5t-5.5 -4.5l-8.5 -8.5l-9.5 -9.5l-8 -8l-4 -4v-2q-2 -3 -6 -8t-5 -7q-13 -19 -18 -35q-2 -2 -2 -4l-2 -2q-4 -12 -6 -16q-1 -7 -4.5 -19t-4.5 -16v-8 l-2 -2q0 -4 -1 -12.5t-1 -12.5q-15 -172 -16 -200q-2 -34 -2 -203q-1 -60 -1 -127.5z" />
<glyph unicode="ae" horiz-adv-x="1083" d="M55 195q13 93 72 161q39 43 127 90q11 6 65 29q2 1 6.5 2t6.5 2q4 4 10 4q1 1 12 7t17 8q8 4 28 16q4 4 7 4l22 23l6 12q0 1 1 3t1 3q0 2 4 6q-2 4 -2 13v4q-2 2 -2 8q-1 3 -2 8t-2 8q-4 8 -4 15l-2 2v2q-8 16 -14 22l-2 4q-5 5 -11 8q0 1 -1 2.5t-1 2.5q-2 1 -5 3t-5 3 q-4 4 -10 4v2q-4 1 -13.5 3t-13.5 3h-2q-8 0 -12 2q-19 0 -27 -2h-10q-2 -2 -6 -2q-38 -8 -55 -16q-2 0 -5 -1t-4 -1q-6 -3 -10 -7q-10 -4 -26 -12q-19 -11 -39 -5.5t-29 24.5q-11 17 -6 37.5t22 29.5q2 0 2 2q138 76 250 43q69 -19 107 -78q27 -42 37 -104q15 28 49 76 q50 62 92 80q58 27 123 24q71 -3 125 -31q63 -33 86 -82q39 -77 0 -153q-38 -74 -119 -119q-40 -23 -78 -31q-52 -9 -102 -6q-14 0 -43 1t-45 1q-18 -2 -54 2q0 -39 2 -59v-6q1 -2 2 -5.5t1.5 -5.5t1.5 -4q0 -4 6 -28q1 -3 2 -8.5t2 -8.5q2 0 2 -4q8 -16 12 -22 q9 -18 21 -33q1 -1 4 -6t4 -8l4 -4q11 -11 20 -23q6 -3 11 -8q1 0 2 -1t2 -1q12 -9 24 -15q1 0 2 -1t2 -1q2 -1 6.5 -2t6.5 -2q8 -4 28 -8l13 -2h8h69h17q2 2 6 2l31 6q1 1 3 2t3 2l12 6q1 0 6 5q1 1 4 3t4 3t2.5 3t2.5 3q4 4 8 12v2q2 0 2 4q1 2 2 8t2 9q4 20 23 30t38 5 q21 -6 30.5 -23.5t4.5 -38.5q-2 -15 -14 -43q-15 -33 -45.5 -55.5t-66 -31t-75 -12.5t-73.5 1q-83 7 -133 39q-51 33 -80 75q0 -1 1 -3.5t1 -4.5q1 -2 2 -6t2 -6l6 -11v-1q11 -17 5.5 -38t-23.5 -30q-17 -9 -37 -4t-31 20q-12 22 -23 58q-55 -34 -88 -49q-82 -37 -145 -29 q-82 7 -121 57q-26 37 -33 66q-10 37 -4 72zM154 154q1 -2 2 -6.5t2 -6.5q0 -2 2 -4q0 -4 4 -8l2 -4l8 -8l2 -2q4 -2 8 -6q1 0 5.5 -2.5t5.5 -2.5t3 -1t3 -1q4 -2 12 -2q0 -2 4 -2h29q1 0 6 1t6 1h6q4 1 16.5 5t18.5 6q2 2 6 2v2q15 5 17 6q31 14 73 43q12 6 21 12q0 4 4 4 l4 4q11 7 16 15v86q0 23 2 69t2 70q-1 0 -2 -1t-2 -1q-41 -23 -55 -29q-6 -2 -19.5 -7t-19.5 -7l-12 -6q-2 0 -4 -2q-47 -21 -58 -27l-30 -18l-9 -9q-1 -1 -3 -2t-3.5 -2t-1.5 -2q-15 -12 -24 -24l-3 -3q-4 -4 -6 -6.5t-2 -1.5q0 -2 -4 -6q-10 -16 -16 -32q-1 -1 -2 -4.5 t-2 -4.5q-4 -8 -4 -14q-2 -8 -6 -20q0 -7 -2 -9v-32zM588 453h94q12 0 36 -1t36 -1q4 0 13 1t13 1q1 0 7.5 1t7.5 1q2 1 7 2t7 2t6.5 2t7.5 2l2 2q20 10 23 12q8 4 20 12q1 1 3.5 3t4 3.5t1.5 2.5q4 2 10 8q14 14 20 22l4 4q1 1 3.5 4.5t3.5 4.5q1 2 3 7t3 7q4 12 6 16v21 q0 4 -2 6q0 2 -1 5.5t-1 4.5t-1 2t-1 2q-1 1 -6 11l-9 8q-1 2 -4 5t-4 5h-2q-2 1 -9.5 6t-12.5 6q-1 1 -5.5 3t-5.5 3h-4q-12 6 -24 9q-6 2 -17 2q0 2 -2 2h-55q-2 -1 -6 -2t-6 -2q-3 -1 -23 -6q-2 -1 -2 -3q-2 0 -10 -4q-2 -1 -6 -4t-6 -4q-1 -2 -3 -2q-3 -3 -10 -9t-10 -9 q-5 -5 -20 -25q-1 0 -2.5 -1t-2.5 -1q-1 -2 -4 -6t-4 -6q-16 -24 -33 -58q-1 -1 -2 -4t-2.5 -6t-3.5 -6v-2q0 -2 -2 -2q-2 -5 -5 -15.5t-5 -15.5q-1 -3 -4 -11.5t-4 -14.5z" />
<glyph unicode="OE" horiz-adv-x="1267" d="M55 823q-8 63 17 193q29 147 39 180q23 72 67 164l25 50t26 41.5t37 41.5q41 36 78 43q38 11 84 8q110 -8 154 -61q47 -52 61 -142q0 -2 1 -5t1 -5q6 50 6 101q0 16 -2 24v8q-13 10 -15.5 29.5t5.5 34.5q8 14 35 22q6 4 18 4q57 -1 155.5 3.5t155.5 5.5t156 -7 q21 -2 35 -15t14 -34q0 -20 -14.5 -36t-34.5 -15q-96 7 -136.5 7t-135.5 -4t-135 -5v-29q0 -27 -9 -110q-1 -9 -4.5 -37t-3.5 -43v-191q0 -58 -4 -176q25 0 74 -1t74 -1q48 0 73 2q23 0 35 2q6 0 8 2q3 0 8.5 1t8.5 1q21 5 39 -4t22 -30q6 -19 -4.5 -39t-30.5 -23 q-46 -9 -93 -11.5t-123 -0.5t-93 2q0 -21 -1 -65.5t-1 -65.5q0 -169 2 -203q1 -39 9.5 -110.5t9.5 -87.5q4 -48 8 -144q73 -1 210 4.5t199 5.5q22 0 37 -14.5t15 -34.5q0 -21 -15.5 -36t-36.5 -15q-59 0 -210.5 -5t-233.5 -3q-3 0 -8 -1t-8 -1q-21 0 -35.5 14t-14.5 35 q0 122 -10 207q-2 15 -5 43.5t-5 42.5q-3 -19 -17 -78q-30 -125 -79 -188q-34 -49 -78 -68q-57 -22 -113 -10q-63 13 -119 76q-49 55 -88 122q-31 55 -51 164q-25 166 -27 197q-6 82 -2 246q-2 8 -6 28zM160 625q0 -28 4 -78q0 -7 1 -20.5t1 -20.5q1 -3 2 -9.5t2 -9.5v-10 q3 -27 13.5 -76l13.5 -63q13 -58 20 -76l2 -6q1 -1 2 -4t2 -4q1 -4 10 -17q2 -4 17 -24q14 -24 20 -31q6 -9 11 -14q2 -4 6 -8q26 -34 49 -54q1 -1 3 -2t3 -2q8 -4 10 -6q4 0 4 -2q2 0 6.5 -1t6.5 -1q2 -2 8 -2h20q7 0 11 2q1 0 3 1t3 1q9 3 16 10h2l4 4l17 17q2 2 2 4l2 2 q13 16 24 41q2 3 5.5 10t5.5 10v2q4 8 4 13q10 24 16 47q22 78 25 102l6 49l2 2v11q2 6 2 20q14 162 12 270q0 67 -4 199q-2 65 2 191q0 13 0.5 45.5t0.5 50.5t-1.5 45t-5.5 49q0 8 -2 12v2q0 3 -1 9.5t-1 9.5q-5 26 -8 33q-4 15 -9 28q-4 4 -4 10q-4 4 -8 15q-4 4 -6 8 l-10 10l-8 8q-4 0 -9 5q-1 0 -3 1t-3 1l-2 2q-3 1 -8.5 2t-7.5 2q-3 0 -9 1t-8 1q-4 2 -8 2h-39h-3h-11q-1 -1 -4.5 -2t-5.5 -2q-2 0 -6.5 -1t-6.5 -1l-12 -6q-1 -1 -3 -2.5t-3 -2.5q-2 -2 -6 -5t-6 -5q-2 -3 -13 -14l-2 -2l-2 -4q-9 -12 -20 -33q-30 -57 -35 -70 q-4 -8 -14 -31t-15 -34q-4 -8 -4 -10q-1 -2 -2 -6t-2 -5q-3 -12 -8 -22l-12 -43q-7 -26 -13 -54t-13.5 -66.5t-10.5 -55.5v-4q0 -2 1 -7.5t1 -7.5q0 -47 -4 -141q3 -8 0 -16q-2 -55 -2 -166z" />
<glyph unicode="oe" horiz-adv-x="1136" d="M53 342q4 34 8 51q-9 43 11 117q4 17 11 35.5t16.5 41.5t13.5 34q32 77 57 110q43 53 102 62q90 10 158 -27q62 -38 98 -102q25 -43 41 -99q28 63 70 117q50 62 92 80q59 27 123 24q73 -3 125 -30q63 -33 86 -82q39 -77 0 -154q-38 -74 -119 -119q-38 -21 -78 -30 q-52 -9 -102 -6q-14 0 -43 1t-45 1q-18 -2 -53 2q0 -40 2 -60v-6q1 -3 2 -7.5t2 -6.5q0 -5 6 -29q1 -3 2 -8t2 -8q2 0 2 -4q10 -20 12 -23q9 -18 21 -33q0 -1 3.5 -5.5t4.5 -8.5l4 -4q15 -15 21 -23q4 -2 10 -8q1 0 2 -1t2 -1q6 -4 25 -14q1 0 2 -1t2 -1q2 -1 6 -2t6 -2 q11 -5 29 -9l12 -2h8h70h16q2 2 6 2l31 7q1 1 3 2t3 2l12 6q3 0 7 4q1 1 4 3t4 3t2 3t2 3q3 3 8 13v2q2 0 2 4q1 2 2 7.5t2 8.5q4 20 23 30t39 5q21 -6 30 -23.5t4 -38.5q-2 -16 -14 -43q-52 -114 -260 -100q-80 7 -133 41q-58 41 -98 107q-2 3 -6.5 10t-6.5 10 q-46 -130 -153 -166q-70 -19 -146 -2q-71 20 -129 84q-67 80 -80 162q-7 51 -4 94zM152.5 386q-0.5 -12 0.5 -33t1 -29q-3 -22 0 -45v-11q0 -1 1 -2t1 -2q0 -6 4 -18q5 -20 6 -23l2 -2v-2q4 -8 6 -10q5 -10 23 -37q1 -1 2 -2.5t2 -2.5t2 -1v-2q6 -9 14 -17q10 -13 25 -22 l6 -6q9 -3 14 -8l12 -7q5 0 9 -2q24 -6 28 -6q2 -2 13 -2h36q18 4 25 8h4q6 3 10 7q10 5 11 6q1 0 3 2t3 2q6 4 14 12q1 2 4 5t4 5q15 21 27 45v4l6 13l6 24q12 52 12 56q0 3 3 6v12q2 8 2 27q2 18 2 55q0 33 -2 51q0 17 -2 25v6q0 1 -1.5 5t-1.5 5q-10 52 -14 64 q-2 5 -5 15t-5 15q-2 2 -2 6q-1 2 -3 7.5t-3 7.5q-1 1 -17 28q-1 2 -4 6.5t-4 6.5q-1 1 -2 3t-2 3q-2 2 -5.5 6t-7 7.5t-7.5 6.5l-11 11q-1 0 -2 1t-2 1q-10 8 -26 14q0 2 -5 2q-8 4 -14 4q-2 1 -5.5 2t-4.5 2h-47q-4 -2 -8 -2q-1 -1 -4.5 -2t-5.5 -2t-3 -2q-1 0 -3 -1 t-3 -1l-4 -4q-4 -2 -12 -10l-2 -4q-13 -18 -17 -27q-2 -5 -7 -15.5t-7 -15.5v-2l-2 -2q-1 -3 -3 -8t-3 -8q-2 -4 -12 -28t-15 -38q-12 -35 -18 -71q-2 3 -4 -42v-3q-5 -8 -5.5 -20zM641 467h94q13 0 36.5 -1t35.5 -1q4 0 13.5 1t13.5 1q1 0 7 1t7 1q2 1 7 2t7 2t7 2t8 2l2 2 q10 5 22 13q12 6 21 12l8 8q4 2 10 8q15 15 21 23l4 4q1 1 3 4t3 4q1 2 3 7t3 7q5 15 6 17v20q0 4 -2 6q0 2 -1 6t-1 5t-1 2t-1 2q-2 2 -6 10l-8 8q-1 2 -4.5 5t-4.5 5h-2q-3 1 -10 6.5t-12 6.5q-1 1 -5 3t-5 3h-5q-8 4 -24 8q-6 2 -17 2q0 2 -2 2h-55q-2 -1 -6 -2t-6 -2 q-3 -1 -23 -6q-2 0 -2 -2q-2 0 -10 -4q-2 -1 -6 -4t-6 -4q0 -3 -2 -3q-3 -3 -10.5 -9t-10.5 -9q-5 -5 -20 -25q-1 0 -2 -1t-2 -1q-1 -2 -4.5 -6t-4.5 -6q-14 -21 -32 -57l-3 -7l-5 -10v-2q-1 -2 -3 -2q-2 -5 -5 -15t-5 -15l-4 -12t-4 -15z" />
<glyph unicode="&#x2e;&#x2e;&#x2e;" horiz-adv-x="960" d="M52 58.5q0 20.5 14 35.5q0 28 24 43q19 13 45.5 12.5t44.5 -18.5q26 -29 19 -74q-3 -16 -13 -26q-7 -13 -12 -15q-12 -12 -27 -16q-21 -3 -41 0q-24 9 -40 25q-14 13 -14 33.5zM406 58.5q0 20.5 14 35.5q0 28 24 43q19 13 46 12.5t45 -18.5q25 -28 18 -74q-3 -17 -12 -26 q-6 -13 -13 -15q-12 -12 -26 -16q-20 -3 -41 0q-26 10 -41 25q-14 13 -14 33.5zM760 58.5q0 20.5 14 35.5q0 27 25 43q19 13 45.5 12.5t44.5 -18.5q25 -28 18 -74q-3 -17 -12 -26q-7 -13 -12 -15q-12 -12 -27 -16q-20 -3 -41 0q-26 10 -41 25q-14 13 -14 33.5z" />
<glyph unicode="&#x28;TM&#x29;" horiz-adv-x="1241" d="M51 1509q0 22 14.5 37t36.5 15q175 0 263 2q28 0 80.5 3.5t94 3t78.5 -8.5q2 -2 7 -2q1 0 3 -1.5t3 -1.5q28 -10 50 -29t55 -59t38 -45q12 -12 37 -35.5t37 -35.5q7 -7 20.5 -21.5t20.5 -21.5l12 -13q7 5 14 15l9 8v2q21 26 41 68q5 9 14.5 27.5t15 29t14 25.5t17.5 28 t18 25q2 14 12 25.5t25 15.5q19 5 37.5 -5t24.5 -30q5 -20 8 -45t3.5 -40.5t1.5 -48t1 -42.5q0 -54 12 -168q1 -9 6.5 -72.5t6.5 -97.5q0 -113 6 -170q1 -20 -15 -34.5t-36 -14.5q-21 0 -34.5 14t-15.5 35q-6 57 -6 170q-3 88 -12 170q-12 156 -12 162q-9 -18 -10 -21 q-53 -94 -121 -139q-15 -10 -33.5 -7t-30.5 17q-30 24 -82 80l-43 43q-5 4 -30 29q-11 11 -13 14q9 -50 0.5 -258t-8.5 -256q0 -20 -14.5 -35.5t-34.5 -15.5q-21 0 -36 15t-15 36q0 61 4.5 171.5t5.5 154.5q2 55 -2 165q-6 79 -6 80v4q-2 4 -2 11q-1 3 -2 9t-2 9q0 8 -2 12 q-7 0 -11 2h-10q-10 0 -14 2h-62q-40 -4 -65 -4q0 -61 -3.5 -172.5t-4.5 -146.5q0 -29 -1 -86.5t-1 -85.5q0 -57 4 -84v-17q2 -2 2 -14q2 -6 5 -18.5t5 -18.5q5 -20 -5.5 -38.5t-29.5 -22.5q-20 -6 -38.5 4.5t-24.5 30.5q-19 75 -19 174q0 29 1 86t1 86q1 35 4.5 146.5 t3.5 172.5q-36 0 -107.5 -1t-107.5 -1q-22 0 -36.5 14.5t-14.5 34.5z" />
<glyph unicode="&#xfb01;" horiz-adv-x="772" d="M51 707q0 21 14 35t35 16q60 4 90 8h5q1 0 4 1t4 1h4v31q0 31 -1 96t-1 96q3 115 16 201q9 64 27 129q20 82 65 135q39 51 107 64q76 17 137 6q80 -11 109 -70q11 -19 6.5 -38t-23.5 -29q-19 -11 -39.5 -5.5t-29.5 23.5q-2 2 -2 4l-5 4q-2 1 -5 3t-5 3h-4l-18 6 q-10 0 -13 3h-26q-17 0 -35 -3q-6 0 -8 -2q-11 0 -15 -2q-16 -4 -24 -8q-4 0 -4 -2l-8 -4q-1 -1 -5.5 -4t-5.5 -4l-10 -10v-2l-2 -3q-4 -4 -8 -12q-14 -23 -17 -31v-2q-2 -2 -2 -4q-1 -2 -3 -7t-3 -7q-17 -51 -28 -127q0 -1 -3.5 -16.5t-3.5 -22.5l-2 -6v-6q-2 -8 -2 -23 q0 -3 -3 -39.5t-3 -56.5v-192v-48q24 7 132 34t184 61q18 10 38.5 5.5t30.5 -22.5q8 -16 8 -28q0 -339 7 -445l6 -92q6 -87 6 -88l-1 -88q-2 -88 1 -88q1 -20 -14.5 -33.5t-36.5 -13.5t-34.5 13t-15.5 34q-2 25 -0.5 89t0.5 89q-1 29 -6 88.5t-6 89.5q-6 100 -6 377 q-196 -64 -293 -84v-45q0 -135 2 -201q1 -44 -0.5 -199.5t2.5 -199.5q1 -20 -13.5 -34.5t-35.5 -14.5t-35 14t-16 35q-2 47 -2 283q0 47 -2 140.5t-2 139.5q2 23 2 66q-47 -8 -107 -11q-20 -1 -34.5 14.5t-14.5 35.5zM588 997q0 20 14.5 35t34.5 15q21 0 36 -14.5t15 -35.5 t-15 -36t-36 -15q-20 0 -34.5 15.5t-14.5 35.5z" />
<glyph unicode="&#xfb02;" horiz-adv-x="794" d="M51 707q0 21 14 35t35 16q60 4 90 8h5q1 0 4 1t4 1h4v31q0 31 -1 96t-1 96q3 115 16 201q9 64 27 129q20 82 65 135q39 51 107 64q34 8 101.5 10t101.5 -4q79 -11 108 -70q2 -6 6 -14q6 -14 2 -33v-10l-2 -21v2q-2 -12 -2 -37q-1 -12 -1 -25t0.5 -28.5t0.5 -23.5 q1 -26 2.5 -32t1.5 -32q0 -56 -3 -169t-3 -169q-1 -79 3 -225t5 -180q0 -34 -1 -100.5t-1 -100.5v-199q0 -20 -14.5 -34.5t-36.5 -14.5q-20 0 -34.5 14.5t-14.5 34.5q0 225 2 340q0 50 -1 107t-2.5 126.5t-2.5 108.5q-1 70 4 404q0 32 -4 98q-4 100 4 170v2q-2 1 -5 3t-5 3 h-4l-19 6q-9 0 -12 3h-27q-82 0 -100 -3q-6 0 -8 -2q-11 0 -15 -2q-16 -4 -24 -8q-4 0 -4 -2l-8 -4q-1 -1 -5.5 -4t-5.5 -4l-10 -10v-2l-2 -3q-4 -4 -8 -12q-14 -23 -17 -31v-2q-2 -2 -2 -4q-1 -2 -3 -7t-3 -7q-17 -51 -28 -127q0 -1 -3.5 -16.5t-3.5 -22.5l-2 -6v-6 q-2 -8 -2 -23q0 -3 -3 -39.5t-3 -56.5v-192v-48q10 3 30 9.5t30 9.5q31 9 43 14q1 0 4 1t4 1l2 2q3 1 9 4t9 4q18 10 39 6t31 -22q10 -17 4.5 -39t-23.5 -31q-72 -36 -182 -61v-45q0 -135 2 -201q1 -44 -0.5 -199.5t2.5 -199.5q1 -20 -13.5 -34.5t-35.5 -14.5t-35 14t-16 35 q-2 47 -2 283q0 47 -2 140.5t-2 139.5q2 23 2 66q-47 -8 -107 -11q-20 -1 -34.5 14.5t-14.5 35.5z" />
<glyph unicode="&#xfb03;" horiz-adv-x="1130" d="M51 627q0 21 14 35t35 16q60 4 90 8h5q1 0 4 1t4 1h4v111q0 31 -1 96t-1 96q3 115 16 201q9 64 27 129q20 82 65 135q39 51 107 64q76 17 137 6q80 -11 109 -70q11 -19 6.5 -38t-23.5 -29q-19 -11 -39.5 -5.5t-29.5 23.5q-2 2 -2 4l-5 4q-2 1 -5 3t-5 3h-4l-18 6 q-10 0 -13 3h-26q-17 0 -35 -3q-6 0 -8 -2q-11 0 -15 -2q-16 -4 -24 -8q-4 0 -4 -2l-8 -4q-1 -1 -5.5 -4t-5.5 -4l-10 -10v-2l-2 -3q-4 -4 -8 -12q-14 -23 -17 -31v-2q-2 -2 -2 -4q-1 -2 -3 -7t-3 -7q-17 -51 -28 -127q0 -1 -3.5 -16.5t-3.5 -22.5l-2 -6v-6q-2 -8 -2 -23 q0 -3 -3 -39.5t-3 -56.5v-192v-127q21 7 71.5 24t78.5 25.5t72 18t83 11.5v13q0 31 -1 96t-1 96q3 107 17 201q10 72 26 129q20 80 66 135q39 51 106 64q76 17 138 6q79 -11 108 -70q11 -19 6.5 -38t-22.5 -29q-19 -11 -40 -5.5t-30 23.5q-2 2 -2 4l-4 4q-2 1 -5 3t-5 3h-4 l-19 6q-9 0 -12 3h-27q-17 0 -35 -3q-6 0 -8 -2q-10 0 -14 -2q-18 -5 -25 -8q-4 0 -4 -2l-8 -4q-1 -1 -5 -4t-5 -4l-10 -10v-2l-2 -3q-6 -6 -9 -12q-11 -18 -16 -31v-2q-2 -2 -2 -4q-1 -2 -3 -7t-3 -7q-19 -56 -29 -127q-6 -36 -6 -39l-2 -6v-6q-2 -8 -2 -23q0 -3 -3 -39.5 t-3 -56.5v-192v-29q10 3 29.5 9t29.5 9q24 7 43 15q1 0 4 1t4 1l2 2q3 1 9.5 4t9.5 4q8 4 12 4q35 15 68 27q49 18 69 -17q8 -16 8 -28q0 -339 7 -445l6 -92q6 -87 6 -88l-2 -88q-1 -88 2 -88q1 -20 -14.5 -33.5t-36.5 -13.5t-34 13t-15 34q-2 25 -0.5 89t0.5 89 q-1 29 -6.5 88.5t-6.5 89.5q-6 100 -6 375q-1 0 -3 -1t-3 -1q-75 -38 -182 -62v-63q0 -135 2 -201q1 -44 -0.5 -199.5t2.5 -199.5q1 -20 -13.5 -34.5t-35.5 -14.5t-35.5 14t-16.5 35q-2 47 -2 283q0 47 -2 140.5t-2 139.5q2 23 2 84q-47 0 -97.5 -13t-113.5 -36.5t-96 -32.5 q0 -60 4 -166q1 -44 -0.5 -199.5t2.5 -199.5q1 -20 -13.5 -34.5t-35.5 -14.5t-35 14t-16 35q-2 47 -2 283q0 44 -2 133t-2 133q-36 -6 -105 -10q-20 -1 -34.5 14.5t-14.5 34.5zM889 997q0 20 14.5 35t34.5 15q22 0 36.5 -14.5t14.5 -35.5t-15 -36t-36 -15q-20 0 -34.5 15.5 t-14.5 35.5z" />
<glyph unicode="&#xfb04;" horiz-adv-x="1181" d="M51 627q0 21 14 35t35 16q60 4 90 8h5q1 0 4 1t4 1h4v111q0 31 -1 96t-1 96q3 115 16 201q9 64 27 129q20 82 65 135q39 51 107 64q76 17 137 6q80 -11 109 -70q11 -19 6.5 -38t-23.5 -29q-19 -11 -39.5 -5.5t-29.5 23.5q-2 2 -2 4l-5 4q-2 1 -5 3t-5 3h-4l-18 6 q-10 0 -13 3h-26q-17 0 -35 -3q-6 0 -8 -2q-11 0 -15 -2q-16 -4 -24 -8q-4 0 -4 -2l-8 -4q-1 -1 -5.5 -4t-5.5 -4l-10 -10v-2l-2 -3q-4 -4 -8 -12q-14 -23 -17 -31v-2q-2 -2 -2 -4q-1 -2 -3 -7t-3 -7q-17 -51 -28 -127q0 -1 -3.5 -16.5t-3.5 -22.5l-2 -6v-6q-2 -8 -2 -23 q0 -3 -3 -39.5t-3 -56.5v-192v-127q21 7 71.5 24t78.5 25.5t72 18t83 11.5v13q0 31 -1 96t-1 96q3 107 17 201q10 72 26 129q20 80 66 135q39 51 106 64q33 6 88 8t88 -2h9q3 -1 9 -2t9 -2q12 -4 16 -6q10 -4 33 -17q4 -2 8 -6q9 -5 11 -8l6 -6q4 -4 4 -6q3 -3 6 -9l2 -2 q1 -1 2 -3t2 -3q2 -6 6 -14q6 -14 2 -33v-10q-2 0 -2 -19q-2 -12 -2 -37q-1 -12 -1 -25t0.5 -28.5t0.5 -23.5q1 -26 2.5 -32t1.5 -32q0 -56 -3 -169t-3 -169q-1 -79 3.5 -225t4.5 -180t-1 -100.5t-1 -100.5v-199q0 -20 -14.5 -34.5t-36.5 -14.5q-20 0 -34.5 14.5t-14.5 34.5 q0 225 2 340q0 50 -1 107t-2.5 126.5t-2.5 108.5q-1 70 4 404q0 32 -4 98q-4 100 4 170v2q-4 0 -4 2q-2 0 -6 4h-4l-19 6q-9 0 -12 3h-27q-64 0 -82 -3q-6 0 -8 -2q-10 0 -14 -2q-18 -5 -25 -8q-4 0 -4 -2l-8 -4q-1 -1 -5 -4t-5 -4l-10 -10v-2l-2 -3q-6 -6 -9 -12 q-11 -18 -16 -31v-2q-2 -2 -2 -4q-1 -2 -3 -7t-3 -7q-19 -56 -29 -127q-6 -36 -6 -39l-2 -6v-6q-2 -8 -2 -23q0 -3 -3 -39.5t-3 -56.5v-192v-29q10 3 29.5 9t29.5 9q24 7 43 15q1 0 4 1t4 1l2 2q3 1 9.5 4t9.5 4q18 10 38.5 6t30.5 -22q10 -17 5 -39t-23 -31 q-75 -38 -182 -62v-63q0 -135 2 -201q1 -44 -0.5 -199.5t2.5 -199.5q1 -20 -13.5 -34.5t-35.5 -14.5t-35.5 14t-16.5 35q-2 47 -2 283q0 47 -2 140.5t-2 139.5q2 23 2 84q-47 0 -97.5 -13t-113.5 -36.5t-96 -32.5q0 -60 4 -166q1 -44 -0.5 -199.5t2.5 -199.5 q1 -20 -13.5 -34.5t-35.5 -14.5t-35 14t-16 35q-2 47 -2 283q0 44 -2 133t-2 133q-36 -6 -105 -10q-20 -1 -34.5 14.5t-14.5 34.5z" />
<glyph horiz-adv-x="2048" />
<glyph horiz-adv-x="2048" />
<glyph unicode="&#xd;" horiz-adv-x="2048" />
<glyph unicode=" "  horiz-adv-x="512" />
<glyph unicode="&#x09;" horiz-adv-x="512" />
<glyph unicode="&#xa0;" horiz-adv-x="512" />
<glyph unicode="!" horiz-adv-x="249" d="M52 64.5q1 20.5 14 33.5q13 11 30 19q12 4 35 0q12 -1 23 -10.5t16 -20.5q14 -28 6 -53q-8 -26 -35 -43q-9 -8 -24.5 -8t-24.5 8q-25 17 -29 33v6q-12 15 -11 35.5zM78 256q9 30 12 57v6q2 4 2 15q2 10 2 26q4 78 2 117q-1 30 -5.5 109t-4.5 121q0 76 3.5 216.5 t4.5 184.5q0 45 -3 129t-3.5 129t4.5 129q2 21 15 36t34 15t37 -15t15 -36q-7 -70 -3 -235q6 -120 3 -236q-1 -42 -3.5 -133t-3 -133t1.5 -133q1 -21 4.5 -76.5t4 -84.5t0.5 -74.5t-5.5 -84.5t-15.5 -76q-4 -19 -23 -29t-40 -5q-20 6 -30 24t-5 37z" />
<glyph unicode="&#x22;" horiz-adv-x="348" d="M51 1503q0 21 15 36t36 15q20 0 35 -15t15 -36q0 -34 2 -102t2 -103q0 -20 -15 -34.5t-37 -14.5q-20 0 -34.5 14.5t-14.5 34.5q0 35 -2 103t-2 102zM197 1300v222q0 20 14.5 34.5t36.5 14.5q20 0 34.5 -14.5t14.5 -34.5v-222q0 -20 -14.5 -34.5t-34.5 -14.5 q-22 0 -36.5 14.5t-14.5 34.5z" />
<glyph unicode="#" horiz-adv-x="897" d="M51 598q0 21 15 36.5t36 14.5q111 -8 174 -10q1 3 23 84l12 43q6 9 6 20q2 4 2 11v2q3 21 17 35t35 14q20 0 36 -15t13 -34q-1 -16 -4.5 -31t-11 -39t-9.5 -31q-3 -10 -8 -30.5t-8 -30.5q61 0 92 2q13 0 41 2t41 2q32 -4 51 -4q27 124 43 168q18 44 62 35q19 -6 30 -25 t4 -37q-15 -44 -24 -90q-2 -9 -6 -26.5t-6 -26.5h6q14 0 20 2h10q26 5 33 8q20 6 39 -4.5t25 -30.5q4 -20 -6.5 -37.5t-30.5 -23.5q-45 -14 -117 -14q-4 -21 -10 -64t-10 -65q-3 -18 -10.5 -53t-10.5 -52q104 -4 150 -8q22 -2 36.5 -15t14.5 -34t-15 -36.5t-36 -14.5 q-111 8 -174 10q-1 -2 -23 -84l-12 -43q-6 -9 -6 -21q-2 -4 -2 -10v-2q-3 -21 -17 -34t-35 -13q-20 0 -36 14t-13 33q1 16 4.5 31t11 38t9.5 31q3 10 8 31t8 31q-61 0 -92 -2q-14 0 -41 -2t-41 -2q-19 0 -51 4q-5 -18 -12.5 -53t-14.5 -63t-16 -52q-6 -19 -23 -28.5 t-39 -6.5q-19 6 -30 24.5t-4 36.5q15 42 24 91q2 8 12 53h-6q-14 0 -20 -2h-10q-26 -5 -33 -8q-20 -6 -39 4t-25 30q-5 20 6 38t31 24q52 14 117 14q12 86 20 129q3 18 10.5 53t10.5 52q-104 4 -150 8q-22 2 -36.5 15t-14.5 34zM311 303h29q14 0 41 1t41 1q41 2 121 2 q3 17 12.5 60t13.5 67q9 54 15 107h-27q-13 0 -41 -1t-41 -1q-41 -2 -121 -2q-3 -17 -12.5 -60t-13.5 -67q-5 -21 -10 -59t-7 -48z" />
<glyph unicode="$" horiz-adv-x="665" d="M51 272q0 20 14.5 35t36.5 15q20 0 35 -15t15 -35q0 -39 2 -57q0 -2 1 -7t1 -7v-2q3 -15 6 -27l6 -25l2 -2q4 -8 4 -10q1 -2 4 -6t4 -6q2 -2 2 -4l13 -13q1 0 2 -1t2 -1q4 -4 12 -8q1 0 3 -1t3 -1q8 -4 12 -4l19 -6h8q12 -2 35 -2v670q-60 56 -78 75q-60 72 -82 121 q-28 67 -37 137q-12 77 -6 154q7 82 31 143q31 82 84 129q38 35 88 50v108q0 21 15 36t36 15q20 0 34.5 -14.5t14.5 -36.5v-106q62 -9 111 -43q84 -60 106 -142q5 -21 -5 -39t-30 -22q-20 -6 -38.5 4.5t-22.5 30.5q-1 3 -2 8t-2 8q-4 4 -4 6q-2 2 -5 8.5t-5 8.5l-7 8 q-6 8 -18 20q-4 2 -10 8q-7 7 -10 7q-13 9 -29 16l-4 4h-2q-8 4 -15 4q-2 0 -4.5 1t-3.5 1v-665q93 -81 135 -142q44 -62 64 -155q24 -96 12 -181q-13 -109 -63 -180q-51 -76 -105 -112q-35 -20 -43 -23v-123q0 -20 -14.5 -34.5t-34.5 -14.5t-35.5 14.5t-15.5 34.5v105 q-94 0 -146 36q-62 47 -79 115q-17 64 -17 137zM188 1208q0 -48 2 -71q0 -12 3 -21q0 -1 1 -7t1 -7q0 -9 4 -25q2 -11 16 -65q1 -2 6 -17l2 -2v-2l13 -24q3 -5 10 -15.5t10 -15.5l8 -12l8 -9q3 -4 10.5 -12t10.5 -12v563q-2 -4 -10 -8l-17 -16q-5 -3 -14 -17q-4 -4 -4 -6 q-13 -18 -17 -25q-4 -6 -12 -22q0 -6 -4 -10q-1 -3 -2 -8.5t-2 -8.5q-8 -21 -16 -65l-2 -17q0 -4 -3 -10q0 -5 -1 -16.5t-1 -16.5zM393 119l4 2q6 3 13 10q11 11 20 23q4 4 6 8q2 2 5 6t5 6q3 7 11 18.5t10 14.5q8 16 12 22q0 3 4 11q11 25 13 41q7 22 10 41v12q2 6 2 20 q0 29 -2 45v21q-2 4 -2 6v4q-4 28 -21 86q-3 7 -8 25q-2 2 -2 6h-2q-6 15 -14 31q-3 7 -11 18t-10 14l-8 11q-1 1 -3 4t-3 4q-5 5 -14.5 15t-14.5 15v-540z" />
<glyph unicode="%" horiz-adv-x="1136" d="M53 1257q-3 41 6 82q13 77 56 138q53 72 118 82q76 9 150 -19q72 -31 115 -94q49 -74 49 -160q2 -82 -46 -150.5t-128 -86.5q-47 -9 -94.5 -8.5t-94 21t-73.5 58.5q-10 17 -7 33q-29 26 -38 45q-13 43 -13 59zM152 1270q0 -9 2 -13q0 -3 1 -7.5t1 -6.5l4 -4q0 -1 2 -3v-1 q13 -13 18 -25q3 -13 0 -22q10 -7 15 -14h2q0 -3 4 -7q2 -2 4 -2q0 -2 2 -2q5 -5 14 -8q2 -2 4 -2q23 -7 35 -10h10q4 -2 17 -2h32q1 0 6.5 1t6.5 1q4 0 6 2q5 1 14.5 3t14.5 3q2 2 4 2l8 4q4 2 8 6t8 4q4 4 11.5 12.5t11.5 12.5q0 4 4 4q0 4 4 8q1 2 4 7.5t4 7.5l2 4 q0 2 2 4q0 4 4 16q1 3 2 9.5t2 9.5v8q3 18 0 35v2q0 1 -1 4t-1 4q-1 3 -2 9t-2 9l-6 19v2q-2 2 -2 6l-18 31q-4 8 -8 10q0 1 -5 6l-20 20q-1 0 -2 1.5t-2 1.5q-2 1 -6 4t-6 4q-12 6 -15 8h-4q-7 4 -29 8q-8 4 -16 4h-6q-21 4 -33 2h-6q-6 0 -14 -4h-4q-10 -5 -11 -6t-3 -2 t-3 -2q-2 -1 -5 -4t-5 -4q-3 -6 -8 -11v-2q-2 0 -2 -2q-12 -16 -17 -26q-1 -1 -8 -15v-4q-11 -25 -18 -59q-1 -4 -2 -11.5t-2 -11.5v-10q-2 -6 -2 -16zM242 33l6 24q31 127 133 365q11 29 20 45l5 10q2 4 2 6q1 3 4 9.5t4 9.5q32 83 35 92q12 33 61 186q5 16 27.5 84 t33.5 105q21 73 58 190q37 127 59 184q43 107 55 179q3 20 23 30t39 4q42 -12 35 -61q0 -9 -4 -25q-5 -27 -15 -56.5t-24.5 -67.5t-20.5 -54q-19 -50 -59 -186q-33 -114 -57 -191q-10 -36 -32.5 -101t-29.5 -87q-48 -145 -63 -186q-3 -9 -35 -92q-15 -30 -23 -54l-10 -20 q-1 -1 -2 -4.5t-2 -5.5v-3q-78 -185 -127 -356q-6 -19 -24 -29t-38 -4q-20 4 -29.5 21.5t-4.5 38.5zM590 225q-3 41 6 82q13 78 55 137q53 72 119 82q78 10 150 -18q71 -30 114 -94q49 -74 49 -160q2 -82 -46.5 -151t-127.5 -87q-47 -8 -94.5 -7.5t-94 21t-73.5 58.5 q-9 16 -6 33q-31 27 -39 45q-12 40 -12 59zM688 238q0 -9 2 -13q0 -3 1 -7.5t1 -6.5l4 -4q0 -1 2 -3v-1q15 -15 19 -25q3 -13 0 -22q7 -5 14 -15h2q0 -2 4 -6q2 -2 4 -2q0 -2 2 -2q5 -5 15 -8q2 -2 4 -2q23 -7 35 -10h10q4 -2 16 -2h33q1 0 6 1t6 1q4 0 6 2q5 1 14.5 3 t14.5 3q2 2 4 2l8 4q6 3 9 6q4 4 8 4q4 4 11 12.5t11 12.5q0 4 4 4q0 3 5 8q1 2 4 7t4 7l2 4q0 3 2 5q0 4 4 16q1 3 2 9t2 9v9q3 17 0 34v2q0 1 -1 4.5t-1 4.5q-1 3 -2 9t-2 9l-6 18v3q-2 2 -2 6l-19 30q-5 9 -8 11q0 2 -4 6l-20 20q-1 0 -2.5 1t-2.5 1q-2 1 -6 4.5t-6 4.5 q-8 4 -14 8h-4q-7 4 -29 8q-8 4 -16 4h-7q-21 4 -32 2h-6q-7 0 -15 -4h-4q-8 -4 -10 -6q-1 -1 -3 -2t-3 -2q-2 -1 -5 -4t-5 -4q-2 -4 -9 -11v-2q-2 0 -2 -2q-9 -12 -16 -26q-1 -1 -8 -15v-4q-13 -29 -19 -59q-1 -4 -2 -11.5t-2 -11.5v-10q-2 -6 -2 -16z" />
<glyph unicode="&#x26;" horiz-adv-x="808" d="M53 289q3 74 25 155q16 55 74 177q8 16 10 24q1 1 2 4t2 4l2 4q11 26 16 43q2 5 13 27q-16 32 -17 35q-22 49 -33 94q-9 30 -20 80q-29 120 -37 174q-15 114 -8 184q17 213 149 248q40 11 72 8q47 -3 78 -16q49 -18 70 -45q30 -27 43 -70q8 -40 2 -86q-5 -47 -21 -102 l-31 -90q-26 -68 -32 -90q-8 -25 -23.5 -88t-26.5 -95q-7 -19 -40 -98l-5 -10q-1 -1 -2 -3t-2 -3q-6 -18 -8 -21q27 -46 43 -84q7 -14 20.5 -43t20.5 -43t22.5 -43t22.5 -43q23 -45 41 -94q7 -10 10 -23q1 -2 2 -5.5t2 -4.5v-2q2 -5 7.5 -14.5t7.5 -14.5q153 260 160 271 q10 19 30 24t39 -6q17 -11 22 -30.5t-5 -36.5q-159 -271 -185 -314q-1 -1 -3 -4t-3 -4q17 -23 19 -26q3 -3 6 -9q2 -3 7 -8t7 -8q15 -19 55 -66.5t60 -74.5q11 -16 4 -36t-23 -30q-41 -21 -69 19q-1 1 -4 4.5t-5 5.5t-2 4q-9 9 -10 12q-13 13 -29 33q-23 30 -55 65 q-15 20 -18 23q-18 -30 -47 -66q-56 -69 -138 -94q-84 -27 -155 8q-55 25 -78 82q-38 86 -31 232zM152 242q0 -38 2 -56q0 -10 2 -16v-4q1 -3 2 -11t2 -12t3 -13t3 -13q4 -8 4 -11l2 -2q2 -9 12 -22q2 -5 9 -8l4 -4q4 -4 6 -4q5 -5 8 -5l2 -2q6 0 14 -4h37q2 0 4.5 1t3.5 1 q3 1 9.5 2t9.5 2q1 1 9 4q4 1 3 1q2 1 5 3t5 3q3 2 9.5 5t9.5 5q2 2 7 5.5t5 2.5q3 4 6.5 7.5t8.5 8t8 7.5l14 14l2 4l2 4q12 14 27 37q25 40 30 47q-3 5 -10.5 19.5t-11.5 21.5q-6 14 -18.5 46t-20.5 48l-6 13q0 1 -1 3t-1 3l-8 16q-3 7 -9.5 20.5t-9.5 20.5q-34 62 -45 86 q-7 15 -20.5 43.5t-20.5 42.5q0 2 -4 10q-1 -3 -4 -10t-4 -10q-3 -8 -41 -86q-1 -5 -4 -12t-4 -9l-2 -4q-1 -2 -2 -5.5t-2 -4.5q-2 -7 -7.5 -20.5t-7.5 -20.5q-16 -53 -20 -86v-4q0 -2 -1 -5.5t-1 -4.5v-15q-2 -8 -2 -22q0 -9 -1 -26t-1 -25zM180 1219q0 -7 1 -22.5t1 -22.5 q2 -8 2 -21q2 -4 2 -10v-2q7 -52 37 -174q7 -30 21 -82q1 -4 3 -13.5t3 -13.5q4 4 4 8l2 2q1 2 2 6.5t2 6.5q22 63 27 90q23 88 24 92q5 18 16.5 48.5t14.5 41.5q44 113 53 182q0 1 1 3t1 3v11q2 6 2 18l-2 14q0 5 -2 9q0 4 -2 6l-6 12l-2 2q0 2 -2 2q-3 7 -10 10v2 q-1 0 -3 1.5t-3 1.5q-2 1 -6.5 4t-6.5 4q-2 0 -4 2q-12 4 -16 4q-12 4 -19 4h-8q-10 2 -31 2h-6q-2 -1 -6 -2t-6 -2q-1 0 -4 -1t-4 -1q-2 0 -6 -4q-4 0 -8 -4l-15 -15v-2q-12 -16 -16 -24v-6q-1 -2 -3 -7.5t-3 -7.5q-9 -27 -11 -39q-1 -3 -2 -10t-2 -10v-6l-2 -4 q-4 -57 -2 -86z" />
<glyph unicode="'" horiz-adv-x="202" d="M51 1300v222q0 20 14.5 34.5t36.5 14.5q20 0 35 -14.5t15 -34.5v-222q0 -20 -15 -34.5t-35 -14.5q-22 0 -36.5 14.5t-14.5 34.5z" />
<glyph unicode="(" horiz-adv-x="393" d="M53 532q-2 66 2 201q4 134 8 201q3 47 11.5 104t14.5 88.5t22.5 106.5t19.5 92q47 226 117 348q10 19 30 24.5t39 -5.5q17 -11 22 -31t-5 -39q-15 -27 -31 -59q0 -1 -2 -7l-2 -6l-6 -12q-2 -5 -5 -15.5t-5 -15.5q-30 -92 -39 -131q-7 -31 -19.5 -91.5t-19.5 -90.5 q-2 -10 -9 -43.5t-10 -52.5q-2 -8 -5 -24.5t-5 -24.5q0 -7 -4 -23v-12q-2 -4 -2 -6q-5 -41 -10 -193q-6 -102 -6 -203q0 -109 8 -200q1 -4 2 -13.5t2 -13.5v-4q0 -6 2 -10q1 -8 3 -23.5t3 -23.5t4 -27.5t4 -30.5q0 -3 1 -9t1 -9v-4q2 -4 2 -13q3 -21 17 -90q3 -12 30 -90 q1 -5 4.5 -12.5t4.5 -9.5l2 -2q0 -3 4 -11l18 -36q16 -35 43 -78q10 -19 4.5 -39t-22.5 -31q-19 -10 -38 -5t-30 23q-39 58 -69 136q-39 82 -54 153q-5 29 -14 101l-6 49q-2 0 -2 2v10q-1 4 -2 12t-2 11q-19 132 -21 208z" />
<glyph unicode=")" horiz-adv-x="393" d="M54 -137q-5 20 5 39q15 27 31 59q0 1 2 7q3 6 2 5l6 13q2 5 5.5 14t5.5 14q30 92 39 131q7 31 19 91.5t19 91.5q2 10 9 43.5t10 52.5q2 8 5 24.5t5 24.5q0 7 4 23v12q2 4 2 6q5 41 10 193q7 119 7 202q0 99 -9 201q-1 4 -2 13.5t-2 13.5v4q0 6 -2 10q-1 8 -3 23.5 t-3 23.5t-4 27t-4 30q0 3 -1 9.5t-1 9.5v4q-2 4 -2 12q-3 21 -17 90q-3 12 -30 90q-1 5 -4.5 13.5t-3.5 9.5l-2 2l-5 10q-3 6 -9 19.5t-9 19.5q-16 35 -43 78q-10 19 -4.5 39t22.5 31q19 10 38 4.5t30 -23.5q42 -63 70 -135q37 -81 53 -156q6 -31 14 -100l6 -49q2 0 2 -2 v-10q1 -4 2 -12t2 -11q19 -132 21 -209q2 -67 -2 -201q-4 -132 -8 -200q-3 -47 -11.5 -104t-14.5 -88.5t-22.5 -106.5t-19.5 -92q-46 -224 -117 -347q-10 -19 -30 -24t-39 6q-17 11 -22 31z" />
<glyph unicode="*" horiz-adv-x="782" d="M54.5 1484.5q-5.5 18.5 4.5 37.5q9 18 31 24t39 -6q67 -53 70 -55q85 -70 127 -121q4 -5 11 -14.5t11 -14.5v162q0 20 14.5 34.5t34.5 14.5q22 0 37 -14.5t15 -34.5v-164q62 57 75 70q26 23 58 59q6 6 15.5 19t10.5 14l2 2q2 4 6 8q8 12 13 17q11 18 29.5 23t37.5 -5 q18 -9 24 -29t-5 -38q-25 -39 -66 -87q-21 -23 -47.5 -49t-44 -42t-52.5 -46.5t-48 -42.5q19 -17 60 -50.5t61 -51.5q73 -64 137 -131q14 -15 14.5 -36t-14.5 -36q-14 -14 -36 -14.5t-36 14.5q-33 38 -55 57q-27 27 -137 123q0 -73 4 -225q1 -20 -13.5 -34.5t-35.5 -14.5 q-22 0 -37 14.5t-15 34.5q-4 82 -4 246q-57 -62 -65 -72q-22 -26 -29 -37q-2 -2 -6 -7t-6 -7t-2 -4l-4 -3q-4 -3 -5 -5q-34 -48 -45 -72q-10 -17 -31 -22t-38 6q-18 9 -23 28.5t4 38.5q21 39 56 82q66 89 161 184q-2 2 -34 45q-5 5 -13 17l-4 4l-2 4q-18 23 -59 64 q-34 34 -66 59l-37 31q-4 4 -8 6q-3 2 -8 6t-8 6q-18 12 -23.5 30.5z" />
<glyph unicode="+" horiz-adv-x="774" d="M51 721q0 20 14.5 35.5t34.5 15.5q75 -2 226 2q-7 131 -4 236q2 22 16 36.5t35 14.5t35.5 -15t13.5 -36q-3 -103 4 -232l246 6q22 0 36.5 -14.5t14.5 -36.5q0 -20 -14.5 -34.5t-36.5 -14.5q-2 0 -242 -6q6 -204 6 -205q0 -21 -15 -36t-36 -15q-20 0 -34.5 15.5 t-14.5 35.5q0 30 -1 63.5t-2.5 74t-2.5 63.5q-152 -4 -230 -2q-20 0 -34.5 14.5t-14.5 34.5z" />
<glyph unicode="," horiz-adv-x="280" d="M59 -190q-23 35 17 67l2 2q4 4 4 6q1 1 4 5.5t4 5.5l6 12q2 2 8 14q0 1 1 3t1 3q10 31 11 35q4 9 8 35q0 4 2 6v14q2 10 2 31q0 10 -2 14q-3 22 6 40t29 24q20 5 40 -5.5t23 -31.5q13 -67 -12 -160q-29 -98 -86 -139q-18 -11 -38.5 -5t-29.5 24z" />
<glyph unicode="-" d="M51 469q0 22 14.5 36.5t34.5 14.5h492q22 0 36.5 -14.5t14.5 -36.5q0 -20 -14.5 -34.5t-36.5 -14.5h-492q-20 0 -34.5 14.5t-14.5 34.5z" />
<glyph unicode="." horiz-adv-x="251" d="M52 58.5q0 20.5 14 35.5q0 28 24 43q19 13 45.5 12.5t44.5 -18.5q26 -29 19 -74q-3 -16 -13 -26q-7 -13 -12 -15q-12 -12 -27 -16q-21 -3 -41 0q-24 9 -40 25q-14 13 -14 33.5z" />
<glyph unicode="/" horiz-adv-x="813" d="M55 -117l6 25q21 85 80.5 245t106.5 269q11 29 20 45q0 2 4 10q2 4 2 6q1 3 4.5 9.5t4.5 9.5q26 67 34 92q19 50 62 186q5 16 28 84t33 105q21 73 58 190q37 127 59 184q22 53 61 172t46 160q3 20 22.5 30.5t38.5 4.5q42 -12 35 -61q0 -9 -4 -25q-7 -36 -111 -332 q-19 -50 -59 -186q-24 -83 -58 -191q-10 -36 -32.5 -103t-28.5 -85q-41 -125 -64 -186q-8 -25 -34 -92q-15 -30 -23 -54l-10 -20q-1 -1 -2 -4.5t-2 -5.5v-3q-38 -90 -96 -253t-84 -252q-6 -20 -24 -30.5t-38 -4.5q-20 4 -30 22t-5 39z" />
<glyph unicode="0" horiz-adv-x="765" d="M61 893q-20 98 11 268q22 109 67 205q34 72 84 125t115 65q37 8 82 5q47 -3 84 -17q44 -18 80 -47q32 -32 53 -76q30 -61 37 -90q4 -18 14 -102q1 -15 9 -87t10 -112q17 -218 -2 -395q-14 -141 -64 -371q-13 -58 -35 -110q-31 -75 -67 -111q-51 -48 -125 -51 q-84 -3 -148 37q-113 68 -157 225q-4 15 -8 32t-6.5 30.5t-5 33t-4 30.5t-3.5 33.5t-2.5 31t-1.5 33.5t-1.5 30.5t-1.5 33t-1 31.5q-6 150 -6 306q-7 7 -7 14zM154 1010q12 -15 12 -35q0 -260 10 -447q4 -109 12 -161v-9q1 -3 2.5 -8t2.5 -8l6 -31q5 -23 16 -61q5 -15 6 -17 q0 -1 1 -2t1 -2q4 -9 15 -28q9 -17 16 -27q1 -1 2.5 -3.5t3 -4.5t2.5 -2q0 -2 4 -6q3 -4 6.5 -7.5t8.5 -8t8 -7.5l6 -6q4 0 10 -6q15 -12 29 -17q1 0 3 -1t3 -1q2 -1 7 -3t7 -3q6 -1 16 -4t13 -4h39q2 2 4 2q4 0 12 4h2q3 2 9.5 5t9.5 5q0 1 6 7l8 8q6 6 8 10l2 2 q10 14 15 23q2 4 6 13t6 13q2 2 2 4q4 8 4 13q14 31 19 55q5 21 10 44.5t11 52t9 44.5q25 129 33 189l2 8v12q1 4 2 12.5t2 12.5q1 7 2 22.5t2 22.5q4 70 4 100q5 149 -18 395q-2 17 -5 50t-5 49v6v4q0 1 -1 3t-1 3q0 9 -4 21l-13 36q-4 4 -4 9q-1 1 -2 4.5t-2 5.5 q-2 3 -5 9t-5 9t-5 9.5t-5 9.5q-1 1 -3.5 4t-3.5 4q0 4 -4 4q-2 4 -10 12l-10 9q-14 10 -25 16h-2q-4 2 -8 2q-12 4 -16 6q-3 1 -9.5 2t-9.5 2h-6q-2 0 -2 2h-61q-3 -1 -8.5 -2t-8.5 -2q-4 -4 -10 -4q-3 -2 -9 -5t-9 -5q-1 -1 -6 -4l-5 -4l-6 -7q-11 -9 -20 -20l-11 -10 q-1 -1 -3 -4t-3 -4q-3 -4 -5.5 -8t-5.5 -9.5t-5 -9.5q-17 -26 -31 -57q-1 -2 -2 -5.5t-2 -5.5q-4 -8 -4 -12q-7 -14 -10 -29q-3 -6 -19 -55q-11 -44 -16 -70q-5 -35 -6 -41q-2 -4 -2 -10q-2 -6 -2 -18q-4 -32 -4 -49z" />
<glyph unicode="1" horiz-adv-x="569" d="M51 45q0 20 14.5 34.5t36.5 14.5q84 0 127 -2q6 90 0.5 298t-2.5 298q2 66 11.5 200t11.5 202v182q-53 -98 -113 -172q-13 -16 -35 -15t-36 15q-29 29 0 71q5 2 8 9l2 4q3 3 8 10t8 10q12 17 27 43q34 54 49 86q16 29 45.5 88.5t44.5 89.5q1 1 2 3.5t2 3.5q14 28 45 28 q20 0 36 -15t13 -36q-4 -38 -6 -83.5t-1.5 -78.5t1 -86t0.5 -80q0 -69 -14 -323q-8 -131 -10 -201q0 -133 2 -201q0 -20 2.5 -117t2 -116.5t-2.5 -116.5q7 0 23 1t24 1q29 0 43 2q8 2 24 2l9 2h2q50 7 61 -34q5 -20 -5.5 -39.5t-29.5 -22.5q-83 -10 -198 -10h-13 q-28 0 -84 1t-84 1q-22 0 -36.5 13.5t-14.5 35.5z" />
<glyph unicode="2" horiz-adv-x="684" d="M53 1280q7 63 17 106q16 61 51 105q50 65 141 86q90 20 166 -16q68 -32 109.5 -100.5t52.5 -149.5q22 -147 -8 -322q-21 -125 -82 -313q-67 -201 -154 -338q-80 -126 -149 -266q7 0 20 1t19 1q58 6 114 12q118 9 246 -10q19 -3 29.5 -22.5t5.5 -39.5q-5 -15 -23 -26 q-14 -10 -39 -6h-6q-6 2 -16 2q-10 2 -31 2q-9 1 -28.5 2t-28.5 2q-80 0 -119 -4q-11 -1 -55.5 -5t-63.5 -5t-52 0t-60 6q-28 6 -35 32q-6 20 4 39q46 100 86 174q57 104 96 166q49 78 84 158l10 20q0 5 2 7q0 2 4 10q2 6 7.5 19.5t7.5 19.5q22 53 31 86q37 118 51 174 q12 47 28 137q1 4 2 10.5t2 9.5q0 1 1.5 7t1.5 8q0 5 1 14t1 14t3 33t3 43q0 51 -2 78q0 5 -1 16t-1 17q0 1 -1 6t-1 6q-1 3 -2.5 8.5t-2.5 8.5q-16 61 -18 67q0 1 -1 3t-1 3q0 2 -2 2q-1 2 -3 7.5t-3 7.5q-10 17 -19 28q0 2 -4 6l-26 27q-1 1 -3 2t-3 2q-4 2 -12.5 7.5 t-12.5 7.5q-1 0 -6 2t-6 2q-8 4 -17 4q-1 0 -4.5 1t-5.5 1h-14q-7 3 -17 0h-8q-22 -4 -35 -8q-1 -1 -4 -2.5t-4 -2.5q-12 -4 -16 -8q-8 -3 -19 -10l-8 -4l-22 -23q-2 -2 -5 -8q-1 -2 -4 -6t-4 -6q0 -4 -4 -8q0 -7 -4 -11q-11 -33 -24 -133q-3 -19 -23 -29t-39 -5 q-42 12 -35 61z" />
<glyph unicode="3" horiz-adv-x="700" d="M55 98q-7 49 4 80q17 46 56 66q18 9 38.5 4t30.5 -23q10 -17 5 -38.5t-23 -28.5q-1 -1 -3 -2t-3 -2l-2 -2q-1 -1 -2 -3.5t-2 -3.5q0 -2 -1 -5t-1 -5v-12q1 -2 2 -6t2 -6q0 -3 2 -5q0 -2 2 -2v-2q1 0 2 -1t2 -1q1 -1 4 -3t4 -3q6 0 10 -4q6 -1 18.5 -4t18.5 -4h8 q6 -2 17 -2q35 -3 65 0q19 0 29 2h10q2 1 7 2t7 2q24 6 29 8q2 0 2 2q7 0 13 6l12 7l4 4q10 6 16 16q8 8 8 10q1 0 5 4q5 6 14 25q0 1 1 4t1 4q1 2 3 7t3 7q2 6 5 17.5t5 17.5q3 18 9 39q0 3 1 9.5t1 9.5l2 14q6 37 6 76q3 41 0 82q-2 8 -2 24q-2 2 -2 8q-3 21 -6 39 q-9 38 -23 70q0 1 -1 4t-1 4q-4 4 -4 8q-5 7 -8 17q-3 5 -10.5 15t-10.5 15q-1 1 -2 3.5t-2 3.5l-4 4q-1 1 -5 6.5t-7 7.5l-19 18q-2 0 -2 3l-31 18h-2q-1 0 -3 1t-3 1q-8 2 -20 6q-31 8 -49 10q-3 1 -10 2t-11 2h-4q-6 0 -12 3q-70 8 -105 14q-20 4 -30 23t-4 38 q3 15 16.5 26t30.5 11h47h2q4 2 10 2q4 1 11.5 3t11.5 3q10 2 38 11q14 5 19 8q1 0 3.5 1t4.5 1q40 21 66 39q0 2 2 2l18 18q4 4 9 8.5t11 11t9 9.5q2 3 7 9t7 9q1 1 3 4.5t3 4.5q10 12 23 32q21 34 39 72q0 8 4 8v4q5 14 8 19l12 37q16 71 17 79q2 4 2 13l2 2q0 12 2 18 q0 6 1 19t1 20v74q-2 10 -2 31q0 10 -2 14v4q-19 2 -56 -2q-25 -3 -51 -3.5t-62.5 0.5t-51.5 1q-131 0 -197 -8q-19 -3 -34 13t-15 36q0 44 49 51q72 8 215 8h98q22 0 62 4q42 3 73 -2q52 -13 64 -59q8 -33 8 -74q2 -20 2 -65q0 -93 -20 -172q-42 -175 -168 -301 q-36 -36 -76 -58q31 -10 53 -24q99 -69 142 -207q43 -147 8 -344q-15 -93 -45 -144q-41 -65 -94 -90q-55 -25 -140 -28q-98 0 -145 12q-42 10 -72.5 37t-36.5 67z" />
<glyph unicode="4" horiz-adv-x="606" d="M51 659v50q0 233 10 399q0 8 3 54.5t4 59.5t3 53t1.5 60t-0.5 52.5t-1.5 59.5t-4.5 54q-1 21 15 36t36 15q21 0 34 -14.5t15 -36.5q4 -24 4 -39q3 -38 4 -75.5t-1 -85t-3 -72t-5 -85t-5 -75.5q-8 -159 -8 -360q26 -1 74.5 -3.5t70.5 -3.5q11 0 31 -0.5t36.5 -0.5t32.5 1 q25 0 49 3h9v237q0 20 15.5 34.5t35.5 14.5t34.5 -14.5t14.5 -34.5v-516q0 -61 -8 -193q-2 -31 -2 -96v-49q2 -6 2 -22q0 -1 1 -3.5t1 -3.5v-6q7 -50 -35 -59q-20 -5 -39 4.5t-22 28.5q-9 58 -9 118q1 32 5.5 96.5t5.5 96.5q2 29 2 62t-1 73.5t-1 63.5v69q-85 -7 -154 -4 q-32 1 -99 4t-102 4q-20 0 -34.5 14.5t-14.5 34.5z" />
<glyph unicode="5" horiz-adv-x="747" d="M54.5 255q1.5 70 35.5 124q11 17 31 22.5t39 -4.5q18 -11 23 -30.5t-7 -38.5q-8 -11 -10 -21q-2 -2 -2 -4q-1 -2 -2 -6t-2 -6q-1 -3 -2 -9.5t-2 -9.5v-8q-2 -4 -2 -14q0 -19 2 -27v-4q0 -2 1 -6t1 -6q3 -12 6 -27q4 -8 4 -12q2 -2 2 -4q2 -4 6 -11.5t6 -11.5q4 -8 6 -10 q7 -7 7 -8q4 -6 12 -14q2 -1 5 -4.5t5 -4.5v-2h2q3 -2 10.5 -6t10.5 -6h2q8 -4 12 -4q2 -1 6 -2t6 -2h2q21 0 31 2h10q3 1 9.5 2t9.5 2q14 3 32 10q1 0 3.5 1t3.5 1l2 2q3 1 8 3t8 3q5 3 14.5 9.5t14.5 9.5l6 6h2l12 12q15 11 23 25q5 3 8 8l2 2q2 2 4.5 5.5t3.5 4.5 q3 7 11 18.5t10 14.5q17 34 20 41q4 8 6 14q2 2 2 5q1 1 2 4t2 4q13 35 23 80q0 8 2 12v6q0 2 1 6t1 6q0 7 1 20.5t1 20.5q0 40 -6 84v4q0 9 -2 13q0 3 -1 9t-1 9q-1 6 -3 17.5t-3 17.5q-10 43 -23 72v2l-4 8q-2 3 -3.5 6t-2.5 6t-2 4q-11 19 -21 31v2l-18 18q-11 11 -14 13 v2q-3 0 -7 4q-3 1 -6 2.5l-6 3t-4 2.5l-8 4q-8 0 -16 4l-15 2q-22 4 -65 0l-7 -2q-2 0 -5 -1t-5 -1q-6 0 -18 -4q-7 -1 -19 -4l-16 -4l-37 -12q-6 -2 -16 -7q-2 -2 -4 -2h-2q-22 -11 -39 -6q-19 6 -29 23l-2 2q-18 18 -18 39v702q0 20 14.5 34.5t36.5 14.5q15 0 26 -8 q76 0 229 -1t230 -1q22 0 36.5 -14.5t14.5 -34.5q0 -22 -14.5 -36.5t-36.5 -14.5q-73 0 -218 1t-218 1v-590q5 1 14.5 4.5t17.5 5.5t15 2q95 24 172 8q78 -16 143 -98q45 -62 64 -147q22 -101 22 -172q3 -187 -102 -328q-59 -77 -119 -109q-74 -38 -157 -38q-68 1 -121.5 43 t-79 102t-24 130z" />
<glyph unicode="6" horiz-adv-x="704" d="M53 629q2 10 10 30q6 52 15 97q16 82 33 188q9 46 51 189q26 86 45 143q25 85 53 139q33 72 90 109q17 10 38 4t30 -23q10 -19 5 -37.5t-22 -29.5l-4 -2l-2 -2q-12 -12 -14 -15l-6 -6q-2 -3 -5 -8t-5 -8q-17 -26 -31 -60v-2l-4 -8q-1 -2 -3 -7t-3 -7l-11 -33 q-35 -107 -41 -129q-4 -12 -25.5 -81.5t-29.5 -106.5q-5 -23 -31 -172q37 28 47 34q77 50 138 58q46 6 84 -4q41 -9 75 -39q47 -40 78 -135q26 -86 33 -144q26 -170 -14 -311q-45 -149 -121 -213q-50 -44 -121 -53q-56 -7 -139 28q-68 29 -117 94q-36 46 -53 121 q-15 67 -15 140v219q-14 20 -8 43zM162 395q0 -44 2 -67q0 -6 1 -18t1 -17q0 -4 2 -6q0 -9 2 -15q2 -18 14 -59l6 -12q0 -1 1.5 -3t1.5 -3q2 -4 7 -12.5t7 -12.5l8 -12l27 -27q2 0 6 -4q2 -2 6 -5t6 -5q5 -3 15.5 -8.5t15.5 -8.5q1 -1 4.5 -2t5.5 -2q3 -1 8 -3t8 -3 q7 -4 29 -8h4q4 -2 15 -2h12q2 0 2 2q12 0 24 6h3q2 2 10 6l12 6q0 1 1 2t1 2q12 8 19 15q4 6 16 18l2 4q3 3 8 13q23 36 29 49q0 6 4 10q0 2 1 4.5t1 3.5q9 22 10 27q14 43 17 55q8 37 10 53v2q0 3 1 8.5t1 8.5q0 7 1 21.5t1 21.5q0 63 -4 94v14h-2q0 4 -1 11.5t-1 11.5 q-1 5 -4 19t-4 22q-3 10 -8.5 31.5t-8.5 31.5q-2 5 -5 17.5t-5 17.5q-5 15 -6 17q0 1 -1 3t-1 3q-11 22 -17 32l-8 11l-16 16q-4 0 -8 4l-13 6q-4 0 -6 2q-15 0 -14 2h-29q-22 -4 -33 -8q-6 -2 -14 -6q-2 0 -4.5 -1t-3.5 -1q-32 -16 -62 -37q-4 -4 -12 -8q-8 -8 -10 -8 q-4 -4 -12.5 -11.5t-12.5 -11.5q-24 -21 -45 -45q-8 -8 -12 -14l-6 -6v-232z" />
<glyph unicode="7" horiz-adv-x="759" d="M51 1493q0 20 15.5 34.5t35.5 14.5q89 0 266.5 -1t266.5 -1q8 0 12 -2q17 6 37 -4q17 -10 22 -30.5t-6 -39.5q-3 -5 -14 -26t-18 -33q-42 -73 -82 -162l-19 -43v-2q-1 -1 -2 -4.5t-2 -5.5q-1 -3 -4 -9.5t-4 -9.5q-20 -49 -33 -86q-29 -78 -94 -266q12 0 34 -1t32 -1 q22 0 36.5 -14.5t14.5 -34.5q0 -21 -15 -36t-36 -15q-33 0 -99 4q-24 -77 -51 -150q-3 -11 -14.5 -41.5t-16.5 -48.5q-13 -40 -26 -94q-28 -122 -49 -186q-7 -23 -29 -85t-31 -96q-6 -19 -23.5 -28.5t-37.5 -3.5q-20 5 -30.5 22t-4.5 37q4 13 12 38t12 38q51 157 58 182 q4 14 20 83.5t27 105.5q10 34 32.5 96.5t28.5 79.5q13 34 17 51h-13q-24 0 -34 -2q-13 0 -19 -2q-11 0 -12 -2q-21 0 -31 8q-17 9 -24 29q-5 20 5 40t29 21q60 8 134 8q3 9 6 21q53 154 74.5 215t70.5 179t96 206q-78 0 -234.5 1t-234.5 1q-20 0 -35.5 15.5t-15.5 35.5z" />
<glyph unicode="8" horiz-adv-x="638" d="M59 1161q-15 92 4 189q23 107 93 151q65 41 145 53q80 14 141 -8q61 -23 99 -94q30 -55 39 -121q10 -66 2 -121q-9 -70 -35 -151q-24 -80 -62 -154q-45 -86 -100 -143q4 -4 8 -12q45 -73 53 -88q4 -8 9.5 -18.5t12 -23.5t9.5 -20q2 -4 15 -31t16.5 -34t14 -31t15 -34.5 t12.5 -32t12.5 -35.5t9.5 -32.5t8 -35.5q31 -174 -66 -285q-57 -64 -129 -72q-64 -8 -139 23q-74 33 -117 84q-52 62 -57 123q-14 169 18 289q26 110 84 188q11 9 42 45.5t40 44.5q-13 16 -23 33q-40 65 -102 176q-34 57 -45 84q-18 43 -27 94zM152 1243q0 -2 1 -5.5t1 -4.5 q0 -38 10 -86l4 -8q0 -9 4 -11q0 -3 2.5 -10t3.5 -10q4 -9 21 -39q6 -13 45 -84l24 -43q2 -4 6 -8q0 -1 1 -2t1 -2q1 -3 5.5 -10.5t5.5 -10.5q41 -58 43 -61q6 9 39 53q8 16 10 19l6 6q3 6 8 18.5t8 18.5q34 66 60 153q0 6 2 8v4q2 3 3 6t1.5 7t1.5 6q5 30 6 37q8 35 10 57 q-3 6 0 12v4q0 17 -2 25q0 32 -8 59q0 11 -4 15v4q-9 23 -10 24q-1 4 -4 12.5t-4 12.5l-7 6q-2 2 -6 10l-10 11q0 2 -2 2q-1 1 -5 4t-5 4q-2 2 -4 2q-1 1 -11 6q-1 0 -4.5 1t-5.5 1q-6 2 -18 2h-21q-6 0 -16.5 -1t-15.5 -1q-26 -4 -35 -8l-15 -4h-8q-2 -1 -15 -6t-20 -6 q-2 -4 -12 -9q-2 0 -2 -2q-6 -4 -14 -8v-2l-4 -4q-2 -3 -6.5 -8t-6.5 -8q-2 -7 -4 -7q0 -2 -2 -4q-4 -10 -12 -34q0 -3 -2 -5q0 -1 -1 -4t-1 -4q0 -4 -2 -11t-2 -11q-4 -32 -4 -45q-1 -4 -1 -11t-1 -10v-2zM168 293q0 -21 2 -31q0 -37 4 -55q0 -4 4 -12q0 -5 4 -13 q1 -1 2 -3t2 -3q0 -1 7 -8q1 -3 18 -25q4 -4 4 -6q4 -2 8 -6q5 -4 14.5 -11t14.5 -11q1 0 6 -5q8 -4 10 -6q5 -2 14.5 -6t14.5 -6q4 0 16 -4v-2q2 0 4 2q1 0 29 -6h19q10 0 14 2q2 0 5.5 1t4.5 1q14 4 21 8l2 2h2l10 10l4 2q4 2 12 15q8 8 17 26l8 9q4 12 6 16q1 2 6 16 q2 2 2 9q1 2 6 28q1 5 1 14t1 13v12q0 2 -1 7.5t-1 8.5q0 10 -10 68q-2 2 -2 6l-2 2q0 7 -4 15q-2 5 -5 16t-5 16q-8 21 -58 129q-16 36 -28 60q-10 24 -15 33q-7 10 -10 20l-2 2q-4 4 -6 8q-13 20 -23 37q-4 -6 -12 -14q-12 -9 -22 -19q-1 -2 -11 -12q-1 -1 -4.5 -5.5 t-5.5 -6.5q-3 -4 -10 -13.5t-10 -13.5q-1 -2 -3.5 -5t-3.5 -5q0 -4 -6 -10q-3 -6 -12.5 -30t-15.5 -36q0 -8 -6 -20l-3 -13l-2.5 -7.5t-2.5 -8.5t-1 -8q-16 -75 -16 -144v-18v-6z" />
<glyph unicode="9" horiz-adv-x="686" d="M55 1030q-9 115 19 232q19 73 64 138.5t106 104.5q71 48 143 39q81 -7 131 -49q90 -72 109 -231q7 -77 2 -127q4 -15 5.5 -33.5t1.5 -31t-0.5 -35t-0.5 -31.5q2 -52 -2 -156q-1 -34 -1 -101.5t-1 -101.5l-6 -203q-2 -67 -9.5 -199.5t-9.5 -197.5q-2 -21 -17 -34.5 t-36 -12.5q-20 0 -33.5 14.5t-13.5 34.5q2 50 7 151.5t7 151.5q10 225 10 404v51q-52 -56 -106 -70q-74 -22 -157 9.5t-136 95.5l-2 2q-64 64 -74 186zM152 1053q0 -7 2 -9q4 -44 12 -63q0 -4 4 -16q2 -2 2 -7q8 -16 14 -24q0 -2 4 -6q1 -2 9 -10q2 -1 8 -7v-4q2 -2 2 -4 q8 -4 16 -16q1 -1 4 -3t4 -3v-2h3q1 0 6 -5q14 -9 16 -10q3 -2 9 -7t9 -7l9 -2l2 -2q33 -11 39 -12q1 0 4 -1.5t4 -1.5h4q4 0 10.5 -1t9.5 -1h21q4 2 8 2q3 1 8 3.5t8 3.5q5 0 5 2q1 0 4 1t4 1q2 1 5 3t5 3q2 2 4 2q6 4 12 10l15 14q1 1 2 3.5t2 3.5l18 24q5 7 8 17 q1 1 2.5 3t2.5 3q2 10 10 30q4 11 8 37q0 5 4 17q0 1 1 3t1 3q0 3 3 30t3 42q1 7 3.5 23.5t2.5 19.5v2q0 13 2 38t2 39q-1 5 -2 15.5t-2 15.5v4q0 3 -1 8t-1 7q-3 34 -12 61q0 6 -4 14q-2 2 -2 4l-12 25q0 2 -3 6.5t-4 5.5q-6 6 -6 11l-14 14q-3 7 -10 10l-2 2 q-14 11 -23 15q-2 2 -4 2q-6 6 -14 6q-2 1 -7.5 2t-7.5 2h-6q-20 4 -33 4h-2l-2 -2q-2 0 -7 -1t-7 -1q-2 -1 -5.5 -2t-4.5 -2q-2 -1 -6.5 -2t-5.5 -2q-19 -10 -29 -17q-2 -2 -4 -2l-2 -2l-13 -12q-4 -3 -24 -23q-1 -2 -5 -5t-5 -5q-1 -1 -4.5 -5t-4.5 -5q-9 -15 -18 -27 q-10 -12 -18 -33q-5 -5 -5 -8q-4 -8 -4 -12q-5 -9 -20 -59q-1 -5 -3 -13.5t-3 -13.5v-6q0 -2 -1 -7.5t-1 -7.5t-6 -67v-51z" />
<glyph unicode=":" horiz-adv-x="251" d="M52 126.5q0 20.5 14 35.5q0 28 24 43q19 13 45.5 12.5t44.5 -18.5q26 -29 19 -74q-3 -17 -13 -27q-6 -12 -12 -14q-12 -12 -27 -16q-21 -7 -41 0q-26 10 -40 24t-14 34.5zM52 622q0 20 14 35q0 28 24 43q19 13 45.5 12.5t44.5 -18.5q26 -29 19 -73q-3 -17 -13 -27 q-6 -12 -12 -14q-13 -13 -27 -17q-21 -7 -41 0q-24 9 -40 25q-14 14 -14 34z" />
<glyph unicode=";" horiz-adv-x="309" d="M54 -134.5q6 17.5 22 30.5l2 2q4 4 4 6q1 1 4 5t4 5l6 12q1 1 8 15q0 1 1 3t1 3q10 31 11 35q5 11 8 32q0 7 2 9v14q2 10 2 31q0 10 -2 14q-3 22 6 39.5t29 23.5q20 5 40 -5t23 -31q13 -69 -12 -160q-29 -98 -86 -139q-17 -12 -38 -6t-30 24q-11 20 -5 37.5zM110 622 q0 20 13 35q0 28 24 43q19 13 46 12.5t45 -18.5q25 -28 18 -73q-4 -19 -12 -27q-6 -12 -13 -14q-13 -13 -26 -17q-21 -7 -41 0q-26 10 -41 25q-13 14 -13 34z" />
<glyph unicode="&#x3c;" horiz-adv-x="669" d="M57 676q2 9 13 20q20 18 59.5 54t60.5 53q41 37 64 53q3 2 8 6t8 6l4 4q4 2 11 9q16 12 24 20q5 5 24.5 22t26.5 22.5t24.5 20.5t27 22t26 19.5t28.5 20t27.5 17t30.5 17t31 13.5q18 7 37 -4.5t24 -30.5q6 -21 -4 -37t-30 -24q-2 -1 -5 -2t-4 -2q-9 -3 -14 -8 q-2 -1 -29 -17q-20 -12 -30 -20q-6 -3 -13 -10h-2l-4 -5q-21 -17 -59 -49.5t-49 -42.5q-5 -4 -14.5 -11t-14.5 -11q-8 -8 -20 -17l-2 -2q-3 0 -7 -4q-20 -12 -59 -51q-26 -22 -78 -70q7 -3 21.5 -10t21.5 -10q22 -10 61 -32t54 -30l61 -30l13 -6q2 0 5.5 -1t4.5 -1l31 -13 q105 -42 133 -55q18 -9 23 -31t-5 -39q-10 -18 -31 -22t-39 6q-5 2 -16 7t-16 7q-2 0 -2 2q-4 0 -6 2q-3 1 -15 7q-38 13 -65 24q-67 26 -138 62q-14 7 -53 29t-61 32q-72 33 -101 76q-16 20 -2 45z" />
<glyph unicode="=" horiz-adv-x="800" d="M51 557q0 22 14.5 36.5t36.5 14.5q204 0 306 -2q24 0 73 -1t74 -1h72q23 0 35 2h12l10 2q22 5 40 -4.5t24 -30.5q5 -20 -5.5 -39t-31.5 -22q-72 -11 -156 -8q-25 0 -74 1t-73 1q-102 2 -306 2q-22 0 -36.5 14.5t-14.5 34.5zM51 899q0 22 14.5 36.5t36.5 14.5 q50 0 152.5 -1t153.5 -1q24 0 73 -1t74 -1h72q23 0 35 2q8 0 12 2h10q22 5 40 -4.5t24 -30.5q5 -20 -5.5 -39t-31.5 -22q-72 -11 -156 -8q-25 0 -74 1t-73 1q-51 0 -153.5 1t-152.5 1q-22 0 -36.5 14.5t-14.5 34.5z" />
<glyph unicode="&#x3e;" horiz-adv-x="669" d="M53 1040q5 19 24.5 30.5t37.5 4.5t35.5 -16.5t32 -17.5t33 -21t29 -21t30.5 -24.5t28 -23.5t29 -25.5t28 -24.5q5 -5 25 -20q8 -8 10 -9q4 -2 4 -4q3 -2 8.5 -6t8.5 -6q18 -13 63 -53q20 -18 60.5 -54t60.5 -53q9 -9 12 -20q14 -25 -2 -45q-29 -43 -100 -76 q-22 -10 -62 -32t-53 -29q-74 -38 -137 -62q-27 -11 -65 -24q-12 -6 -15 -7q-2 -2 -6 -2q0 -2 -2 -2q-5 -2 -16.5 -7t-16.5 -7q-18 -10 -38.5 -6t-30.5 22q-10 17 -5 39t23 31q28 13 133 55l31 13q1 0 4.5 1t5.5 1l11 6h1l62 30q15 8 54 30t61 32q7 3 21.5 10t21.5 10 q-52 48 -78 70q-37 37 -60 51q-4 4 -6 4l-2 2q-12 9 -20 17q-5 4 -14.5 11t-14.5 11q-8 7 -47.5 41t-61.5 51l-4 5h-2q-8 8 -12 10q-7 6 -31 20q-3 2 -8.5 6t-10.5 6.5l-9 4.5q-5 5 -15 8l-8 4q-20 8 -30.5 24t-4.5 37z" />
<glyph unicode="?" horiz-adv-x="692" d="M53 1235q-6 78 27 158q35 79 98 114q73 36 147.5 31.5t147.5 -39.5q64 -28 113 -90q40 -53 51 -145q14 -136 -49 -289q-54 -138 -180 -318q-9 -14 -30 -43t-36 -52t-25 -46q-1 -1 -2 -4t-2 -4q0 -1 -1 -4t-1 -4q-3 -12 -6 -21q0 -6 -2 -10v-6q0 -3 -1 -9.5t-1 -9.5 q-5 -87 -8 -106t-22.5 -29.5t-39.5 -5.5q-41 11 -34 62v10q2 6 2 18q5 90 8 107q7 36 33 86q13 23 29.5 47t37 52.5t31.5 45.5q56 83 94 150q22 37 41 80q9 18 10 22q1 1 2 3t2 3q0 4 2 6q2 6 7.5 18.5t7.5 18.5q16 52 18 64q3 9 8 34q1 3 2.5 9.5t2.5 9.5q0 12 2 12 q2 23 2 66q0 25 -2 37v6q-1 3 -2.5 8t-2.5 8q-3 16 -10 33q0 1 -1 3t-1 3q-1 2 -4 7t-4 7q-2 2 -5 7.5t-5 7.5q0 2 -4 6q-9 9 -21 18q0 2 -4 6l-12 7q-15 11 -27 16q-3 1 -8 4t-8 4q-1 0 -3 1t-3 1q-19 8 -31 10q-19 6 -35 9q-4 0 -6 2h-16q-16 3 -35 0h-8q-1 0 -5.5 -1 t-5.5 -1q-15 -3 -30 -9q-2 -2 -4 -2q-1 -1 -15 -8q0 -2 -4 -2v-2q-2 -2 -6 -5t-6 -5q-8 -8 -10 -12q-1 -1 -2.5 -3.5t-2.5 -3.5q-9 -12 -18 -30q0 -1 -1 -3t-1 -3q-1 -2 -3 -7.5t-3 -7.5q-1 -7 -4 -19l-4 -16q0 -6 -2 -8v-16q-3 -18 0 -37v-12q2 -4 2 -11q3 -14 10 -32 q0 -1 1 -3t1 -3q4 -11 8 -15q10 -18 5 -38.5t-23 -30.5q-17 -10 -38.5 -5t-31.5 23q-32 63 -35 125zM170 76q6 23 27 33q10 17 28 20q35 3 56 -6q18 -12 28 -29q24 -44 0 -82q-18 -23 -45 -30t-55 6q-24 16 -31 32q-12 21 -8 56z" />
<glyph unicode="@" horiz-adv-x="1173" d="M53 244q-3 51 0 102q3 74 19 160q24 145 67 246q56 139 144 223q104 100 233 121q164 24 330 -35q88 -32 151 -84q58 -48 84 -111q48 -111 37 -286q-2 -43 -10 -129q-2 -20 -5 -57t-6 -67.5t-7 -56.5q-15 -101 -56 -157q-68 -95 -145 -97q-35 -2 -84 23q-33 19 -53 41 q-9 10 -33 49q-29 -50 -72 -82q-62 -47 -137 -35q-63 8 -123 68q-57 54 -82 110q-17 33 -22 64q-7 29 -7 72q0 210 68 321q54 85 123 127q67 40 147 37q60 0 119 -12q88 -17 103 -76q5 -17 -7 -41q-2 -2 -2 -4q-1 -4 -6 -29q0 -12 -2 -14v-14q-2 -23 -2 -66q0 -2 -12 -106 q-5 -35 -6 -41q0 -33 -4 -99q0 -1 -0.5 -35t0.5 -34q0 -11 2 -17v-4l6 -31l6 -12v-4q2 -3 6 -10t6 -10q4 -4 4 -5l13 -12l12 -6q5 -5 14 -8q1 0 3 -1t3 -1q2 -2 9 -2h6q2 0 7.5 1t6.5 1h2l4 4l13 6l6 6q4 2 8.5 8t5.5 7l6 6q2 3 6 8.5t6.5 10.5l4.5 9q5 7 8 17q4 4 4 8 q2 7 6 20.5t6 20.5q1 6 4 21t4 24v6q2 2 2 4q0 15 2 21q1 16 3.5 45.5t3.5 42.5q2 27 7.5 84t8 101.5t0.5 84.5q-1 6 -2 18t-2 17q0 2 -1 7.5t-1 6.5v8q-4 22 -17 64q-1 3 -3 8t-3 8q0 1 -1 3t-1 3q-3 4 -8 13.5t-8 13.5q-1 2 -4 7t-4 7l-4 4q-6 8 -23 25q-4 2 -12 10l-6 6 q-25 15 -33 19q-8 7 -35 20q-2 1 -7 3t-7 3h-2q-10 5 -11 5q-39 15 -77 24q-7 1 -20.5 4t-20.5 4q-11 0 -15 2q-12 0 -14 2q-53 4 -80 2q-27 0 -39 -2h-14q-2 -2 -8 -2q-44 -9 -62 -16q-3 -1 -8 -3t-8 -3h-2l-2 -2q-5 -1 -14 -6t-13 -6q-4 -2 -13.5 -8.5t-13.5 -8.5 q-8 -4 -10 -8q-2 0 -8 -6q-21 -15 -41 -35q-3 -4 -10 -12.5t-10 -12.5q-8 -8 -9 -10q-2 0 -2 -2l-2 -2q-18 -24 -33 -51q-12 -20 -30 -55q-2 -4 -5 -12.5t-5 -12.5l-5 -8q-3 -9 -6 -15q-25 -74 -37 -122q-15 -63 -24 -125q0 -2 -1 -6.5t-1 -6.5v-8q-4 -24 -4 -37 q-6 -49 -6 -100q-2 -34 2 -100l2 -13v-4q4 -12 6 -20q11 -33 14 -39q0 -4 2 -4q0 -7 4 -11q1 -3 4 -10t4 -10l19 -37q8 -21 18 -33q1 -2 4.5 -7t4.5 -7l2 -2l4 -2q14 -18 51 -51q1 -1 4 -3t4 -3h2q9 -9 14 -11q7 -6 31 -20q6 -3 17.5 -9.5t17.5 -9.5q1 0 7 -2q6 -3 5 -2 q8 -4 13 -4q31 -13 69 -20q12 -4 21 -4h8q16 -2 47 -2q17 0 49 1t49 1q13 0 40 -2t40 -2q14 -2 43 -2q2 0 9 1t8 1t4 1t4 1q20 6 38.5 -4.5t24.5 -30.5q5 -21 -6 -39.5t-31 -22.5q-22 -6 -44.5 -7t-59.5 2t-45 3q-28 2 -83 -1t-83 -1q-146 12 -264 101q-79 60 -113 120 q-2 3 -35 72q-25 52 -35 90q-10 44 -10 105zM376 325q0 -33 1 -34q0 -1 1 -3.5t1 -4.5t1 -6.5t1 -6.5q2 -4 5 -12t5 -12q0 -1 1 -4t1 -4q5 -10 8 -13q9 -18 15 -26q2 -2 5 -7.5t5 -7.5l4 -4q3 -4 21 -22q11 -11 14 -13l8 -8l19 -12q2 -1 7 -3t7 -3q2 -2 4 -2l18 -6h19 q6 0 8 2q2 0 6 1t6 1v2q1 0 3 1t3 1q10 5 13 8q2 0 8 6q1 0 2 1t2 1q11 11 20 23l3 2q1 2 4 6t4 6t14 27q4 8 6 14q2 0 2 4q10 23 21 59q5 16 26 125v35q0 9 9 27q0 3 2 21.5t4 27.5q0 1 1 4t1 4v12q2 6 2 23q0 31 2 45q5 75 10 96q-2 0 -5 1t-5 1l-25 7q-2 0 -6 1t-6 1h-4 q-8 2 -25 2q-14 2 -43 2h-32q-2 -2 -9 -2q-2 -1 -7.5 -2t-8.5 -2q-10 -5 -12 -5q-1 -1 -6.5 -3t-6.5 -3q-8 -4 -24 -16q-4 0 -4 -4l-8 -4q-4 -6 -13 -15l-28 -28q0 -2 -2 -4q-5 -5 -5 -9q-2 -2 -6 -7t-6 -7q-9 -18 -18 -33q0 -6 -4 -10v-2q-5 -10 -7 -16q-8 -25 -10 -35 q-4 -13 -8 -39q0 -15 -2 -14q0 -9 -2 -13q-4 -54 -4 -80z" />
<glyph unicode="A" horiz-adv-x="733" d="M51 39q0 35 10 205q7 119 7 202q-2 102 -2 203t2 203q0 169 2 203q3 86 16 200q8 60 16 88q8 29 35 76q50 78 117 115q59 30 132 30q13 0 26 -1q86 -7 139 -47q65 -48 94 -132q27 -88 33 -180q4 -94 4 -121v-6q0 -31 -4 -115q-4 -94 -6 -120q-6 -203 -6 -406v-205 q0 -154 4 -198q1 -21 -15 -35t-37 -14t-34 13.5t-15 35.5q-4 51 -4 155v103h-10q-51 0 -190 8q-39 2 -113 2q-37 0 -55 -2q-4 0 -13.5 -1t-13.5 -1l-4 -2q-14 -196 -14 -256q0 -20 -14.5 -33.5t-35.5 -13.5q-22 0 -36.5 13.5t-14.5 33.5zM166 716.5q0 -67.5 1 -150.5t1 -128 v-43q51 7 111 7q38 0 81 -3q143 -8 195 -8h10q0 121 4 363q4 126 6 192q5 140 5 171v7q0 12 -5 90q0 4 -1 12.5t-1 12.5q0 6 -2 10l-6 43q-5 34 -22 80v2q-4 4 -4 6q-1 3 -4.5 8.5t-4.5 6.5q-1 2 -4 6t-4 6q-1 1 -2 3t-2 3l-12 12q-7 7 -10 7q-3 3 -6 5t-7 4l-6 3l-14 6 q-2 2 -6 2q-9 4 -31 8q-4 0 -6 2h-17q-8 2 -17 2l-17 -2h-17q-4 -2 -8 -2q-18 -4 -29 -8q-1 -1 -3 -2t-3 -2q-1 0 -3 -1t-3 -1q-3 -2 -8 -5t-8 -5q-1 -1 -4 -3t-4 -3t-5.5 -4.5t-5.5 -4.5l-8.5 -8.5l-9.5 -9.5l-8 -8l-4 -4v-2q-2 -3 -6 -8t-5 -7q-13 -19 -18 -35 q-2 -2 -2 -4l-2 -2q-4 -12 -6 -16q-1 -7 -4.5 -19t-4.5 -16v-8l-2 -2q0 -4 -1 -12.5t-1 -12.5q-15 -172 -16 -200q-2 -34 -2 -203q-2 -60 -2 -127.5z" />
<glyph unicode="B" horiz-adv-x="675" d="M53 752q0 14 6 26q0 43 -4 133q-2 33 -2 83t2 116q0 73 15 197q16 132 16 194q0 22 14.5 36.5t34.5 14.5q3 0 8 -1t7 -1q47 10 91.5 10t86.5 -10q76 -17 140.5 -66.5t104.5 -119.5q49 -87 49 -220q0 -59 -10 -128q-10 -86 -37 -152q-35 -77 -114 -116q-3 -1 -12 -4.5 t-15 -4.5q31 -20 66 -55q69 -69 94 -149q20 -65 20 -143v-21q-4 -60 -8 -88q-8 -48 -16 -74q-23 -74 -72 -123q-44 -44 -115 -74q-103 -39 -258 -39q-13 0 -28 11q-21 3 -34 16t-13 33q0 51 -7 163q-6 98 -6 155v16q4 230 4 344v12q-8 11 -8 29zM154 999q0 -29 3 -85t3 -85 v-20q10 0 31.5 1t31.5 1q57 0 86 2q8 2 25 2q2 2 4 2h6q6 1 19.5 4t19.5 4q4 1 11.5 4.5t11.5 4.5q1 0 3 1t3 1q2 2 4 2q5 3 14 8t14 8q0 1 1.5 2l3 2t2.5 2l16 17q0 2 4 6q1 3 4 8t4 8q2 2 6 10t4 13q11 32 11 34q6 25 14 72q0 6 2 10q0 13 2 19q0 7 1 20t1 19q3 39 3 64 q0 13 -1 22q0 4 -1 11.5t-1 10.5q0 6 -2 8v2q-4 26 -8 39q-1 4 -3 11.5t-3 11.5q0 1 -1 4t-1 4l-2 2q-2 5 -7.5 15.5t-7.5 15.5q-4 5 -11 15.5t-11 15.5v2l-4 4q-2 2 -6.5 7t-6.5 7q-21 21 -26 25l-8 8q-3 0 -11 8l-30 18q-7 2 -17 9q-1 0 -3 1t-3 1q-37 13 -67 18 q-1 0 -3.5 1t-3.5 1h-20q-9 2 -17.5 2t-17.5 -2h-22q-2 -2 -7 -2q-4 0 -6 -2q-2 -47 -14 -142t-14 -143q-2 -57 -2 -170zM160 426q-1 -41 -1 -79q0 -64 3 -120q4 -53 8 -155q10 1 29.5 1.5t35 1.5t29.5 3q4 2 8 2q2 0 7.5 1t7.5 1q20 4 28 6q54 16 58 18q1 1 3 2.5t3 2.5 l12 6q19 9 25 14l12 6q0 4 4 4l21 21q6 6 8 10l4 4q7 9 14 27q5 5 8 14q0 1 1 3t1 3q2 5 5.5 15.5t5.5 15.5q3 21 6 39q2 2 2 14q2 4 2 12q4 54 4 80q0 27 -2 41v9q-1 3 -2 9t-2 9q-2 10 -10 39q-2 4 -6 16q0 1 -3 4q0 2 -2 4q-4 11 -18 35q-1 1 -3 4t-3 4q-2 3 -2 5l-10 10 q-24 26 -60 59l-4 2q-2 1 -5 3t-5 3q-5 5 -17 13q-20 12 -30 16q-4 4 -11 4q-1 1 -4 2t-4 2q-2 0 -6 1t-6 1q-1 0 -7.5 1t-8.5 1h-19q-18 0 -51.5 -3t-50.5 -3q1 -29 1 -68q0 -79 -3 -196z" />
<glyph unicode="C" horiz-adv-x="708" d="M57 545q-4 88 -4 172q0 117 8 223q3 53 21 205q16 110 33 164q33 97 92 159q26 32 61 52q42 20 82 28q24 4 47 4q61 0 109 -28q80 -46 90 -140q3 -21 -11.5 -36t-35.5 -17q-21 -1 -35.5 13t-17.5 36v6q0 7 -4 15q-3 3 -3 4q-1 2 -3 5t-3 5q0 1 -1 2t-1 2q-2 1 -5 3t-5 3 q0 2 -2.5 4.5t-3.5 2.5q-1 1 -3 2t-3 2q-12 6 -15 8h-4q-4 0 -12 2t-12 2q-2 2 -10 2h-7q-20 0 -30 -2h-9q-15 -5 -16 -6q-3 -1 -8 -2t-8 -2q0 -2 -2 -2q-19 -11 -31 -21l-4 -4q-2 -2 -7.5 -6t-7.5 -6t-5.5 -7t-6.5 -8q-2 -4 -6 -8q0 -2 -2 -2q-1 -2 -8.5 -15t-9.5 -20 q-14 -21 -19 -41q-4 -4 -4 -8q-4 -6 -8 -18q-20 -77 -29 -170q-2 -17 -6 -48.5t-6 -47.5q0 -19 -2 -29q0 -2 -1 -5.5t-1 -4.5v-4q0 -16 -4 -48q-4 -68 -4 -154q0 -106 6 -239q9 -149 16 -190q1 -4 2 -11.5t2 -11.5l2 -2q0 -6 2 -10q4 -23 9 -41q9 -44 26 -82q0 -1 1 -4t1 -4 l2 -2q1 -3 4 -8.5t4 -8.5q1 0 5 -4q8 -8 14 -10l6 -6q1 -1 5.5 -4t8.5 -4q4 -5 15 -8q5 -5 12 -5q12 -5 35.5 -11t27.5 -7q14 -4 21 -2q1 0 3 -1t3 -1h35q4 4 8 4q6 0 14 4l13 4q0 1 6 4q8 8 14 11q4 4 6 4q2 2 11 9.5t12 12.5q2 7 10 15v2l4 4q13 17 15 28q2 3 5 8.5t5 8.5 l4 12q4 11 8 29q6 19 22.5 29.5t36.5 7.5q20 -5 32 -23q8 -13 9 -26q0 -6 -2 -11q-29 -113 -96 -172q-43 -40 -88 -51q-42 -12 -81 -12q-14 0 -28 2q-15 1 -40 7t-31 7q-6 2 -25 8t-30.5 11.5t-20.5 13.5q-32 13 -65 55q-23 36 -37 80q-45 139 -56 375z" />
<glyph unicode="D" horiz-adv-x="763" d="M53 1485q-1 5 -1 10q0 9 4 19q7 16 20 24q32 28 82 31h10q40 0 106 -13q57 -12 109 -32q52 -18 84 -41q100 -79 162 -262q24 -75 37 -129q14 -52 30 -160q16 -118 16 -229q0 -62 -5 -123q-13 -187 -72 -332q-36 -91 -86 -139q-55 -55 -115 -80q-111 -45 -291 -52 q-22 0 -37 19q-38 7 -38 45q-1 55 -1 159q1 78 1 182q1 146 0 240v101q0 45 -2 185q-1 84 0 145v71q0 131 2 197v88q0 17 -2 25v10q-1 3 -3.5 10t-3.5 10q-6 9 -6 21zM162 1468q6 -29 6 -116q-1 -26 -1 -81.5t-1 -82.5q-1 -50 -1 -107t0.5 -126t0.5 -107q1 -69 0 -217v-169 v-105q0 -197 2 -279q60 4 92 8h8q2 0 7 1t8 1q16 4 26 6q32 7 53 15q5 1 13.5 4.5t9.5 3.5q4 0 8 4q2 1 6.5 2t6.5 2q15 7 45 29h2q0 1 1 2t1 2q4 2 10 8q2 2 6 5.5t7 6.5t5 6l13 13q0 1 1 2t1 2q3 4 8 11t8 11q13 26 16 35q5 5 5 6v2q1 3 8 17q4 13 12 38.5t12 38.5 q25 92 33 160q0 1 1 3t1 3v11q2 6 2 20q4 24 4 41q4 58 4 86q0 127 -6 170l-6 43v10q-1 3 -2 10.5t-2 10.5q-8 51 -14 80q-2 11 -35 139q-1 4 -23 67q-2 6 -6 17.5t-6 17.5q-2 2 -2 6l-2 2q-1 2 -3 7.5t-3 7.5q-15 34 -35 63q-2 3 -5 8.5t-5 8.5q-1 1 -2 3t-2 3 q-8 11 -23 22l-12 13q-4 4 -6 4q-7 7 -13 10l-16 8q-2 1 -5 2t-5 2q-2 0 -2 2q-53 19 -101 33q-35 8 -57 10q-2 2 -4 2h-12q-8 2 -25 2h-10z" />
<glyph unicode="E" d="M53 446v203q1 44 4.5 187t3.5 221v100v80q1 14 4.5 41.5t4.5 42.5q8 74 8 111q0 16 -2 24v8q-13 10 -15.5 29.5t5.5 34.5t34 22q6 4 19 4h22q53 0 133 4q98 4 156 5h13q55 0 143 -7q21 -2 35 -15t14 -34q0 -20 -14.5 -36t-34.5 -15q-96 7 -136.5 7t-136 -4t-135.5 -5v-29 q0 -36 -8 -110q-1 -9 -4.5 -37t-3.5 -43v-191q0 -58 -4 -176q24 0 73 -1t74 -1q49 0 74 2q23 0 35 2q6 0 8 2q3 0 8 1t8 1q21 5 39.5 -4t22.5 -30q6 -19 -4.5 -39t-30.5 -23q-46 -10 -93 -12q-26 -1 -61 -1q-28 0 -62 1q-76 2 -93 2q0 -21 -1 -65.5t-1 -65.5q0 -169 2 -203 q1 -29 4 -62t7.5 -72.5t6.5 -63.5q4 -48 8 -144q11 0 24 -1q70 -1 186 5q138 6 200 6q22 0 36.5 -14.5t14.5 -34.5q0 -21 -15 -36t-36 -15q-59 0 -211 -5q-109 -4 -181 -4q-29 0 -53 1q-3 0 -8 -1t-8 -1q-21 0 -35 14t-14 35q0 122 -10 207q-1 11 -9.5 85t-9.5 113z" />
<glyph unicode="F" horiz-adv-x="686" d="M52 534l1 101q1 44 4.5 186.5t3.5 220.5v101v80q1 15 4.5 42t4.5 42q8 74 8 110q0 17 -2 25v8q-13 10 -15.5 29t5.5 34q9 16 34 23q6 4 19 4h22q53 0 133 4q98 4 156 5h13q55 0 143 -7q21 -2 35 -15t14 -34q0 -20 -14.5 -36t-34.5 -15q-96 7 -136.5 7t-136 -4t-135.5 -5 v-29q0 -37 -8 -111q-1 -9 -4.5 -36.5t-3.5 -42.5v-191q0 -58 -4 -176q24 0 73 -1t74 -1q49 0 74 2q23 0 35 2q6 0 8 2q3 0 8 1t8 1q21 5 39.5 -4.5t22.5 -30.5q6 -19 -4.5 -38.5t-30.5 -22.5q-46 -10 -93 -12q-26 -1 -61 -1q-28 0 -62 1q-76 2 -93 2q0 -22 -1 -66t-1 -65 q0 -169 2 -203q1 -29 4 -62t7.5 -73t6.5 -64q8 -84 8 -194q0 -21 -15 -35.5t-36 -14.5q-20 0 -34.5 15t-14.5 35q0 121 -10 206q-1 10 -9.5 85t-9.5 114q-1 0 -1 102z" />
<glyph unicode="G" horiz-adv-x="706" d="M53 436q-2 51 -2 110q0 130 8 298q6 103 9 203q0 21 -1 63t-1 64q0 74 12 147q10 77 47 127q52 70 140 100q48 15 94 15q40 0 79 -11q79 -24 127 -65q29 -26 43 -53q15 -32 15 -63q0 -11 -2 -23q-3 -19 -22.5 -29.5t-39.5 -5.5q-36 10 -36 48q0 6 1 13v4q-2 2 -2 6 q-1 1 -3 4.5t-3 4.5t-5 6t-5 6l-8 8q-1 0 -2 1t-2 1q-2 2 -7.5 5t-7.5 5q-2 1 -16 9t-21 10l-2 2q-2 0 -5 1t-5 1q-6 4 -18 8q-5 0 -21 4h-4q-2 0 -5 1t-5 1h-31q-10 0 -14 -2h-4q-22 -3 -47 -12q-1 -1 -4.5 -2t-4.5 -2l-8 -4q-3 -2 -8 -5t-8 -5q-1 -1 -4 -3.5t-4 -3.5 l-15 -10q-8 -8 -10 -12q-2 -2 -2 -4h-2q-10 -15 -14 -25l-7 -12q0 -1 -1 -3t-1 -3q-4 -9 -8 -31q0 -1 -3 -14.5t-3 -20.5q-2 -2 -2 -6q0 -10 -2 -14q-2 -24 -2 -138q1 -16 1 -38q0 -44 -3 -109q-1 -47 -7 -189t-7 -219q0 -132 4 -200q0 -25 2 -35q0 -12 2 -18v-7 q8 -44 14 -65q2 -14 10 -33q2 -2 2 -6q3 -6 9 -12q7 -16 16 -29q2 -2 2 -4h2q2 -2 5 -6t5 -6q9 -9 15 -13q1 -1 2 -3t2 -3q24 -14 28 -16l13 -6q10 -5 12 -7q8 -1 21 -4t18 -4q2 0 6 -1t6 -1h2q6 -2 21 -2h41q8 0 10 2h4q6 0 18 4l19 6h2q1 1 3 2.5t3 2.5q2 1 7 3t7 3 q0 1 4.5 5t4.5 5l5 4q5 4 7 8q2 0 2 2l2 2q9 15 18 33q0 1 1 3t1 3q1 3 3.5 8.5t3.5 8.5q1 5 4 18t4 21q4 16 4 22q0 2 2 2v12q3 28 3 59q0 19 -1 40q-4 64 -8 96l-2 12v6q-4 12 -4 23q-1 9 -4.5 27.5t-4.5 27.5v41q-38 3 -64 3q-12 0 -22 -1q-8 0 -23.5 -1t-23.5 -1 q-2 -2 -10 -2h-2q-6 -2 -16 -2q-21 -5 -38.5 4.5t-23.5 30.5q-5 19 5 38t30 23q2 0 6 1t6 1q67 11 123 11q33 0 62 -4q58 -5 73 -27q17 -24 17 -47q2 -10 2 -29q0 -33 2 -49v-4q0 -1 1 -4.5t1 -5.5q0 -11 4 -23q2 -17 6 -52.5t6 -53.5q4 -41 4 -78q0 -71 -14 -127 q-22 -98 -70 -146q-59 -61 -170 -65h-20q-94 0 -158 35q-70 39 -108 104q-37 62 -48.5 132.5t-13.5 168.5z" />
<glyph unicode="H" horiz-adv-x="831" d="M53 1493q-2 7 -2 14q0 13 7 25q10 18 30 22q8 2 15 2q12 0 24 -6q19 -10 23 -30q13 -52 19.5 -116.5t8 -102.5t2.5 -119q0 -54 -1 -164t-1 -166v-45h2q238 0 285 2q14 0 91 5q55 4 92 4q15 0 26 -1q0 22 1 67t1 68q2 61 2 185v14q0 43 -4 170q-4 56 -8 86v10q0 2 -1 5.5 t-1 4.5q-1 4 -2.5 11.5t-2.5 11.5q-4 26 -8 41q-5 21 5 39t30 22q8 2 15 2q12 0 24 -6q19 -10 23 -30q13 -52 19.5 -116.5t8 -102.5t2.5 -119q0 -54 -1 -164t-1 -166q-1 -68 -5 -202.5t-5 -201.5q-1 0 -1 -89v-112q1 -201 1 -202q0 -20 -14.5 -34.5t-36.5 -14.5 q-20 0 -34.5 14.5t-14.5 34.5q0 40 -0.5 113t-0.5 132.5t1 112.5q0 46 1 98.5t2.5 117t2.5 100.5q-3 0 -10.5 1t-10.5 1q-19 0 -65 -4q-14 -1 -40.5 -2.5t-48 -2.5t-40.5 -1q-92 -2 -277 -2h-6q-1 -29 -2.5 -81.5t-2.5 -95.5t-1 -81q-1 0 -1 -90v-112l1 -202 q0 -20 -14.5 -34.5t-36.5 -14.5q-20 0 -34.5 14.5t-14.5 34.5v358q1 60 4 179t4 178q1 32 1 96.5t1 97.5q0 30 1 92t1 93v14q0 43 -4 170q-4 56 -8 86v10q0 2 -1 6t-1 5q-1 4 -2.5 11t-2.5 11q-4 26 -8 41z" />
<glyph unicode="I" horiz-adv-x="530" d="M51 1518q0 22 14.5 36.5t36.5 14.5q54 0 162 7t162 7q22 0 36.5 -14.5t14.5 -34.5q0 -22 -14.5 -36.5t-36.5 -14.5q-61 0 -92 -2q20 -120 20 -293v-58v-120q-2 -116 -2 -152q-1 -67 -5 -201.5t-5 -201.5v-371q29 2 88 2q20 0 34.5 -14.5t14.5 -36.5q0 -20 -14.5 -33.5 t-34.5 -13.5q-51 0 -153.5 -4t-153.5 -4q-22 0 -36.5 13.5t-14.5 35.5q0 20 14.5 34.5t36.5 14.5q19 0 59 1t60 1v330q1 60 4 178.5t4 177.5q1 31 1 96.5t1 98.5q0 31 1 92t1 92v14q0 43 -4 170q-4 56 -8 86v10q0 2 -1 6t-1 5q-1 4 -2 11t-2 11q0 3 -1.5 8t-1.5 7 q-112 -5 -131 -5q-22 0 -36.5 15t-14.5 35z" />
<glyph unicode="J" horiz-adv-x="718" d="M53 115q-1 20 14.5 34.5t34.5 14.5q39 0 50 -43q2 -6 4 -10q0 -3 2 -5q0 -2 2 -2v-2q4 -4 8 -6v-2q1 0 3 -1t3 -1q4 -4 12 -8q1 0 3.5 -1t3.5 -1q2 -1 7 -2t7 -2q3 -1 8 -2t8 -2h6q8 -2 29 -2q2 0 6 1t6 1h4q1 1 5 2t6 2q4 0 10 6q2 0 4 2v2q7 3 10 10h2q0 1 1 2t1 2 q4 8 9 13l8 16q0 1 1 3t1 3q7 14 10 29q10 29 20 67q2 7 5.5 23t5.5 23q1 4 2 11.5t2 10.5v8q0 4 2 4q6 56 7 117v42q0 45 -1 100q-2 81 -2 116q0 131 -5 393.5t-5 393.5q-8 0 -22 0.5t-26 0.5t-22 -1q-5 0 -14.5 -1t-14.5 -1l-10 -3h-4l-15 -3t-18.5 -4t-15.5 -5 q-20 -6 -38 5t-23 30q-6 20 4 37.5t30 23.5q64 21 161 21q29 0 61 -2l104 -6h55q8 2 25 2q2 0 6.5 1t7.5 1h2q50 0 60 -35q2 -6 2 -13q0 -13 -8 -26q-10 -19 -29 -22q-53 -8 -118 -8q-19 0 -40 1q0 -165 8 -501q1 -44 1.5 -182t2.5 -214q0 -67 1 -126v-7q0 -56 -8 -120 q-7 -68 -23 -125q-25 -95 -49 -134q-21 -38 -56 -59q-40 -22 -78 -25q-11 -1 -23 -1q-55 0 -110 24q-32 13 -53 37q-27 34 -33 80z" />
<glyph unicode="K" horiz-adv-x="729" d="M53 375v29q0 115 13 301q8 134 10 196q0 32 -10 197q-8 85 -8 156q0 21 1 42q4 136 4 199q0 22 15 36.5t37 14.5q20 0 34.5 -14.5t14.5 -36.5q0 -111 -2 -166q-2 -56 -2 -98.5t2 -69.5q1 -19 4 -52t5 -60.5t3 -51.5q2 -54 2 -95t-2 -68l-12 -185q2 3 5.5 11t4.5 10 q41 76 104 182q29 48 91 166q24 50 39 86q0 1 1 4t1 4q2 2 6 10q0 1 3.5 9.5t4.5 13.5l18 43l37 92q33 84 37 94q6 12 19.5 36.5t19.5 37.5q7 10 10 20q2 2 2 7q2 2 2 4l6 18q0 13 2 14q3 19 15 31q18 14 37 14q20 0 36 -15q13 -13 13 -30v-6q-4 -41 -35 -108 q-20 -35 -25 -45q-6 -9 -12 -21q0 -4 -4 -12q-1 0 -2 -2t-2 -2q-70 -182 -80 -205q-41 -101 -84 -182q-36 -68 -92 -164q-5 -9 -14.5 -25t-12.5 -20q20 -33 66 -156q4 0 4 -6q0 -4 4 -8q2 -10 10 -21q3 -7 10.5 -21.5t10.5 -21.5l43 -86q43 -89 78 -180q9 -22 31 -82t36 -92 q7 -18 -5 -36t-32 -23q-7 -2 -14 -2q-12 0 -23 6q-15 10 -24 28q-12 29 -33.5 87.5t-32.5 87.5q-11 26 -16 43q-2 3 -5 10t-5 10q0 4 -2 6q0 1 -1 4t-1 4q-34 71 -41 84q-73 147 -86 178q-28 71 -31 78l-6 -12q-35 -72 -92 -156q-2 -2 -2 -4q0 -28 3 -200q1 -74 1 -121 q0 -63 -2 -78q-2 -21 -15.5 -34t-34.5 -13t-36.5 13.5t-14.5 33.5q1 28 1 83q0 91 -3 253z" />
<glyph unicode="L" horiz-adv-x="589" d="M53 387v29q0 115 13 301q8 134 10 196q0 32 -10 197q-8 85 -8 157q0 22 1 42q4 136 4 198q0 22 15 37t37 15q20 0 34.5 -15t14.5 -37q0 -111 -2 -166q-2 -56 -2 -98t2 -69q1 -19 4 -52t5 -60.5t3 -51.5q2 -41 2 -82t-2 -82q-1 -26 -10.5 -171t-9.5 -222q0 -40 3 -167 q2 -76 2 -132q0 -37 -1 -64q56 0 165 2t164 2q22 0 37 -14.5t15 -36.5q0 -20 -15 -33.5t-37 -13.5q-62 0 -188 -3t-190 -3q-19 0 -34 12.5t-16 32.5q-4 8 -4 16q3 95 3 113v8q0 26 -2 104q-2 94 -3 111z" />
<glyph unicode="M" horiz-adv-x="1105" d="M51 1511q0 21 15 37q13 14 30 13h6q54 -5 99 -60q29 -37 57 -94q13 -26 38 -70.5t32 -58.5q4 -6 40.5 -71.5t57.5 -98.5q9 -17 27.5 -46t23.5 -38q44 -80 47 -86q5 -11 14.5 -35t14.5 -35q6 17 29 70q3 6 47 86q5 9 23.5 38t27.5 46q16 24 32 52.5t35.5 63t30.5 54.5 q7 14 32 58.5t38 70.5q28 57 57 94q45 55 99 60h6q17 1 30 -13q15 -16 15 -37q0 -13 -11 -28q-3 -15 -6 -33q-1 -3 -2 -9.5t-2 -10.5v-7q-2 -8 -2 -10q-3 -14 -4 -29t-1 -34t-1 -29q-3 -91 -6 -186q-6 -189 -6 -195v-203q0 -29 1 -87t1 -87q0 -117 2 -176q1 -34 5 -117.5 t5 -117.5v-46.5v-70.5q0 -22 -13.5 -35.5t-35.5 -13.5q-21 0 -36.5 14t-14.5 35v37q0 70 -5 180q-7 140 -8 188q-2 135 -2 406q0 65 4 182t5 160q0 49 4 151q-11 -22 -17 -32q-17 -28 -48.5 -85.5t-47.5 -86.5q-22 -38 -100 -168q-24 -40 -35 -62q-5 -8 -14 -31l-2 -2 q-1 -3 -3.5 -8t-3.5 -8l-8 -20t-8.5 -21.5t-8 -20t-10 -21.5t-11 -18.5t-13.5 -19.5q-3 -5 -8 -8l-6 -6q-1 -1 -15 -8q-2 0 -4.5 -1t-3.5 -1q-14 0 -20 2q-12 6 -21 12l-2 2q-4 4 -6 8q-8 11 -15 21.5t-14 26.5t-10 22t-11 28t-9 23q-1 3 -3.5 8t-3.5 8l-2 2q-9 23 -14 31 q-11 22 -35 62q-78 130 -100 168q-16 29 -47.5 86.5t-48.5 85.5q-6 10 -17 32q4 -102 4 -151q1 -43 5 -160t4 -182q0 -204 -3 -406q-2 -44 -8 -186q-5 -108 -4 -179v-40q1 -21 -14.5 -35t-36.5 -14q-22 0 -35.5 13.5t-13.5 35.5v71v46q1 34 5 117.5t5 117.5q2 59 2 176 q0 29 1 87t1 87v203q0 6 -6 195q-3 95 -6 186q-1 10 -1 29t-1 34t-4 29l-2 10v7q-1 4 -2 10.5t-2 9.5q-1 7 -3.5 18.5t-3.5 14.5q-10 13 -10 28z" />
<glyph unicode="N" horiz-adv-x="825" d="M55 1497q-1 5 -1 9q0 13 8 26q12 17 30 22q20 3 39 -6q17 -8 23 -30l6 -13q0 -6 4 -10q22 -52 48.5 -110t59 -128t50.5 -110q17 -35 47.5 -106t33.5 -78q33 -78 68 -181q15 -40 59 -170.5t72 -199.5l37 -93q3 -8 9 -23.5t9 -23.5q5 87 5 103q2 51 3 108t1.5 125.5 t1.5 106.5q0 34 -1 101.5t-1 101.5v15q0 47 4 185q0 16 1 50t1 51l1 49q1 49 -1 49q-2 10 -2 29q-2 4 -2 10v4q-1 7 -4.5 22.5t-4.5 22.5q-8 76 -8 103v5q0 21 14.5 35.5t36.5 14.5q21 0 36 -15t14 -35q0 -29 2 -43q0 -16 2 -24q0 -13 2 -14l12 -86q4 -24 4 -52q0 -7 1 -15 q1 -22 -1 -49q-2 -36 -2 -52q-3 -82 -6 -168q-1 -24 -1 -52.5t0.5 -63.5t0.5 -54q1 -45 1 -104q0 -120 -3 -300q-1 -45 -4.5 -127t-5.5 -149t-2 -127q0 -20 -14.5 -33.5t-35.5 -13.5q-22 0 -36 14q-14 11 -17 25q-4 10 -8 30q-3 7 -9 22.5t-9 22.5q0 3 -5 13q-2 4 -2 6 q-1 3 -3 8t-3 8q-25 52 -39 88q-16 37 -43 107t-32 84q-22 62 -66.5 185t-67.5 185q-35 104 -67 179q0 4 -4 8q0 2 -4 10q-1 3 -4 10t-4 10l-19 43q-12 28 -41 89q-38 78 -65 141q0 -146 8 -432q16 -536 16 -807q0 -20 -14.5 -33.5t-34.5 -13.5q-22 0 -36.5 13.5t-14.5 33.5 q0 217 -12 651q-13 426 -13 659q0 90 2 152z" />
<glyph unicode="O" horiz-adv-x="712" d="M55 823q-2 15 -2 34q0 60 19 159q29 147 39 180q23 72 67 164l25 50t26 41.5t37 41.5q41 36 78 43q30 9 65 9q9 0 19 -1q110 -8 154 -61q47 -52 61 -142q14 -88 14 -192q0 -30 -2 -93t-2 -95q5 -165 6 -199q1 -35 0 -69q0 -124 -8 -236q-9 -102 -33 -201 q-30 -125 -79 -188q-34 -49 -78 -68q-37 -14 -73 -14q-20 0 -40 4q-63 13 -119 76q-49 55 -88 122q-31 55 -51 164q-25 166 -27 197q-4 49 -4 128q0 52 2 118q-2 8 -6 28zM160 625q0 -28 4 -78q0 -7 1 -20.5t1 -20.5q1 -3 2 -9.5t2 -9.5v-10q3 -27 13.5 -76l13.5 -63 q13 -58 20 -76l2 -6q1 -1 2 -4t2 -4q1 -4 10 -17q2 -4 17 -24q14 -24 20 -31q6 -9 11 -14q2 -4 6 -8q26 -34 49 -54q1 -1 3 -2t3 -2q8 -4 10 -6q4 0 4 -2q2 0 6.5 -1t6.5 -1q2 -2 8 -2h20q7 0 11 2q1 0 3 1t3 1q9 3 16 10h2l4 4l17 17q2 2 2 4l2 2q13 16 24 41q2 3 5.5 10 t5.5 10v2q4 8 4 13q10 24 16 47q22 78 25 102l6 49l2 2v11q2 6 2 20q12 142 12 242v28q0 67 -4 199q-1 22 -1 50q0 57 3 141q0 13 0.5 45.5t0.5 50.5t-1.5 45t-5.5 49q0 8 -2 12v2q0 3 -1 9.5t-1 9.5q-5 26 -8 33q-4 15 -9 28q-4 4 -4 10q-4 4 -8 15q-4 4 -6 8l-10 10l-8 8 q-4 0 -9 5q-1 0 -3 1t-3 1l-2 2q-3 1 -8.5 2t-7.5 2q-3 0 -9 1t-8 1q-4 2 -8 2h-39h-3h-11q-1 -1 -4.5 -2t-5.5 -2q-2 0 -6.5 -1t-6.5 -1l-12 -6q-1 -1 -3 -2.5t-3 -2.5q-2 -2 -6 -5t-6 -5q-2 -3 -13 -14l-2 -2l-2 -4q-9 -12 -20 -33q-30 -57 -35 -70q-4 -8 -14 -31t-15 -34 q-4 -8 -4 -10q-1 -2 -2 -6t-2 -5q-3 -12 -8 -22l-12 -43q-7 -26 -13 -54t-13.5 -66.5t-10.5 -55.5v-4q0 -2 1 -7.5t1 -7.5q0 -47 -4 -141q3 -8 0 -16q-2 -55 -2 -166z" />
<glyph unicode="P" horiz-adv-x="686" d="M51 43q3 85 12 174q9 130 9 167v7q-1 49 -6 171t-5 188q1 46 9 184q5 81 4 141q0 42 -2 74q-4 66 -4 98q0 15 1 43t1 43q4 62 4 90q-1 6 -2 20t-2 21v2q0 7 -2 9q0 3 -5 18v10q-2 2 -2 4q0 14 11 29h2q9 15 24 18q4 2 8 2h7h37h40.5t36 -1t41 -2t35.5 -3t40 -5.5t36 -8.5 q73 -19 132 -61.5t85 -104.5q37 -87 37 -204q0 -54 -8 -115q-10 -75 -33 -138q-15 -42 -41 -79q-26 -33 -64 -54q-33 -23 -77 -35q-38 -12 -74 -18q-128 -27 -172 -27q0 -50 3.5 -142.5t4.5 -123.5q1 -24 1 -49q0 -74 -7 -149q-12 -124 -14 -193q0 -21 -14.5 -35t-35.5 -14 t-36 14t-15 35zM164 801q16 0 26 2q11 0 15 2h6q10 2 31.5 6t31.5 6q94 19 119 27q1 1 4.5 2t5.5 2h3q1 0 5.5 3.5t8.5 4.5l31 18v3l8 4q8 8 12 14l4 4q2 3 5 8t5 8q4 4 4 11q1 2 3.5 5t3.5 5q1 5 4 15.5t4 15.5q12 35 18 69q4 20 4 33q0 1 1 7t1 7q2 6 2 19q3 33 3 56 q0 11 -1 20q0 27 -2 39v18q0 1 -1 3t-1 3q-7 47 -16 68q0 4 -4 12q0 6 -4 10q-6 13 -17 27q0 1 -1 2t-1 2l-2 2l-10 10q-18 18 -20 19v2q-3 0 -7 4q-8 4 -12 8q-4 2 -13 6t-13 6q-1 1 -3.5 2t-3.5 2q-8 4 -14 4q-3 1 -13.5 5t-15.5 6q-41 8 -57 10q-2 0 -7.5 1t-6.5 1 q-3 0 -9 1t-8 1q-5 0 -15.5 1t-16.5 1q-20 2 -66 2q2 -24 2 -49t-2 -49q-3 -79 -3 -122q0 -26 1 -40l3 -45l3 -45q0 -59 -2 -88q-1 -29 -4 -89t-4 -91q-2 -12 -2 -37z" />
<glyph unicode="Q" horiz-adv-x="712" d="M55 821q-2 15 -2 34q0 61 19 159q29 147 39 180q23 72 67 164l25 50t26 41.5t37 41.5q41 36 78 43q30 9 65 9q9 0 19 -1q110 -8 154 -61q47 -52 61 -142q14 -88 14 -192q0 -30 -2 -93.5t-2 -95.5q1 -22 2 -62t2 -73t2 -63q1 -35 1 -69q0 -124 -9 -236q-9 -102 -33 -201 q-30 -125 -79 -188q-20 -24 -29 -33q54 -99 84 -162q10 -18 6 -38t-22 -30q-11 -7 -25 -7q-7 0 -14 2q-22 5 -31 24q-12 25 -27 53t-33 61t-28 52q-17 -3 -35 -3t-37 3q-64 14 -119 75q-47 53 -88 123q-31 55 -51 164q-25 166 -27 197q-4 49 -4 128q0 52 2 118q-2 8 -6 28z M160 623q0 -28 4 -78q0 -7 1 -20.5t1 -20.5q1 -3 2 -9.5t2 -9.5v-10q3 -27 13.5 -76l13.5 -63q13 -58 20 -76l2 -6q1 -1 2 -4t2 -4q1 -4 10 -17q2 -4 17 -24q14 -24 20 -31q6 -9 11 -14q2 -4 6 -8q26 -34 49 -54q1 -1 3 -2t3 -2q8 -4 10 -6q4 0 4 -2q2 0 6.5 -1t6.5 -1 q0 -2 6 -2q-29 61 -51 92q-10 17 -4.5 38t22.5 32q19 10 38 4.5t30 -23.5q32 -50 51 -94q1 1 20 33q2 3 5.5 10t5.5 10v2q4 8 4 13q10 24 16 47q22 78 25 102l6 49l2 2v11q2 6 2 20q12 142 12 242v28q0 67 -4 199q-1 22 -1 50q0 57 3 141q0 13 0.5 45.5t0.5 50.5t-1.5 45 t-5.5 49q0 8 -2 12v2q0 3 -1 9.5t-1 9.5q-5 26 -8 33q-4 15 -9 28q-4 4 -4 10q-4 4 -8 15q-4 4 -6 8l-10 10l-8 8q-4 0 -9 5q-1 0 -3 1t-3 1l-2 2q-3 1 -8.5 2t-7.5 2q-3 0 -9 1t-8 1q-4 2 -8 2h-39h-3h-11q-1 -1 -4.5 -2t-5.5 -2q-2 0 -6.5 -1t-6.5 -1l-12 -6 q-1 -1 -3 -2.5t-3 -2.5q-2 -2 -6 -5t-6 -5q-2 -3 -13 -14l-2 -2l-2 -4q-9 -12 -20 -33q-30 -58 -35 -70q-4 -8 -14 -31t-15 -34q-4 -8 -4 -10q-1 -2 -2 -6t-2 -5q-3 -12 -8 -22l-12 -43q-7 -26 -13 -54t-13.5 -66.5t-10.5 -55.5v-4q0 -2 1 -7.5t1 -7.5q0 -47 -4 -141 q3 -9 0 -17q-2 -55 -2 -165z" />
<glyph unicode="R" horiz-adv-x="690" d="M51 1505q0 15 9 28t22 17v2q12 6 25 6q8 0 16 -2q171 0 248 -22q82 -20 133 -68q54 -52 86 -145q24 -74 31 -170q3 -39 3 -78t-3 -78q-7 -91 -41 -161q-38 -77 -115 -123q-23 -15 -62 -31q6 -7 16.5 -23t12.5 -18q44 -69 60 -162q3 -27 6 -51q1 -4 2 -12.5t2 -12.5v-8 l2 -6q7 -62 14 -100l19 -99q2 -10 5 -30.5t5 -30.5l6 -18q0 -3 2 -5q0 -4 4 -12l6 -6l2 -2q1 -1 3 -2t3 -2q1 0 3.5 -1t3.5 -1h8q22 0 36.5 -14.5t14.5 -34.5t-14.5 -34.5t-36.5 -14.5q-58 0 -92 34q-30 30 -43 76q-4 13 -13 68q-15 88 -18 106q-2 16 -8 49.5t-8 51.5 q-1 10 -4.5 30.5t-4.5 30.5l-2 14q0 9 -2 13q-6 44 -20 79q-4 8 -4 13l-2 2q-2 5 -9 16q-3 6 -9 17.5t-9 17.5q-1 1 -3 4t-3 4l-2 2q-3 7 -10 10l-3 3q-2 1 -6 4t-6 4q-4 0 -6 2h-2q-8 4 -14 4q-1 1 -23 6l-45 -6l-45 -6q2 -38 5 -112t5 -111q4 -133 4 -180v-15 q-5 -79 -10 -102q-2 -16 -10 -43q-3 -12 -6 -21q0 -2 -1 -5t-1 -5v-2q0 -20 -14.5 -33.5t-37.5 -13.5q-20 0 -35 14t-14 33q3 27 9 51q0 2 5.5 17.5t6.5 23.5q2 4 2 10q2 8 2 23q1 8 2 23.5t2 23.5q1 20 1 48q0 55 -3 138q-12 246 -16 377q-4 138 -4 253q0 82 2 153 q5 152 6 182v78q0 14 -2 22v6q0 1 -1 3.5t-1 4.5q-17 14 -17 35zM162 999q0 -132 4 -198q0 -10 1 -31t1 -31q30 4 55 4q18 0 33 -2q58 13 104 29q2 1 6.5 2t6.5 2q0 2 2 2q8 4 14 6q29 17 31 19q8 4 10 6l4 2l10 10l25 25l2 2l4 8q2 2 5 7t5 7q1 3 4.5 8.5t4.5 8.5q0 6 6 12 q10 32 16 64q0 2 1 6t1 6v4q2 4 2 12q2 12 2 37q1 11 1 24t-0.5 28.5t-0.5 23.5q-1 14 -2 41t-2 41q-2 4 -2 12q-1 3 -2 9t-2 9q-5 30 -8 39q-2 12 -10 41q-3 9 -7 17q-2 2 -2 6q-2 0 -2 4q-14 28 -20 37q-4 8 -10 14l-2 4l-2 2q-10 13 -23 23l-4 4q-1 1 -6 4t-8 4 q-2 1 -7.5 4t-7.5 4l-12 4q-13 7 -23 9q-31 11 -67 14v2h-8q-3 0 -9 1t-8 1q-6 0 -17.5 1t-17.5 1q-10 0 -30.5 1t-30.5 1q2 -15 2 -84q-1 -29 -2 -87t-2 -87q-1 -22 -3 -62t-3 -74v-32.5v-30.5z" />
<glyph unicode="S" horiz-adv-x="665" d="M51 264q0 20 14.5 34.5t36.5 14.5q20 0 35 -14.5t15 -34.5q0 -39 2 -57q0 -2 1 -7t1 -7v-3q2 -10 6 -26l6 -25l2 -2q4 -8 4 -10q1 -2 4 -6t4 -6q2 -2 2 -4l13 -13q1 0 2 -1t2 -1q4 -4 12 -8q1 0 3 -1t3 -1q8 -4 12 -4l19 -6h8q12 -2 37 -2q3 0 9 1t9 1h6q22 4 29 8 q2 0 7.5 2t6.5 2q1 1 3.5 2t3.5 2q4 2 22 14l6 7q6 3 13 10q14 14 20 22q3 3 6 9q2 2 5 6t5 6q3 7 11 18.5t10 14.5q8 16 12 22q0 2 4 10q11 25 13 41q7 22 10 41v13q2 6 2 20q0 29 -2 45v21q-2 4 -2 6v4q-4 28 -21 86q-4 8 -8 24q-2 2 -2 7h-2q-4 10 -14 30q-3 7 -11 18.5 t-10 14.5l-8 10q-1 1 -3 4.5t-3 4.5q-31 41 -105 103.5t-102 94.5q-53 57 -82 121q-28 67 -37 137q-8 51 -8 103q0 26 2 51q7 82 31 143q31 82 84 129q62 56 143 56q86 0 156 -48q84 -60 106 -141q2 -7 2 -14q0 -13 -7 -25q-10 -18 -30 -22q-20 -6 -38.5 4t-22.5 30 q-1 3 -2 8.5t-2 8.5q-4 4 -4 6q-1 2 -4.5 8t-5.5 8l-7 9q-6 8 -18 20q-4 2 -10 8t-10 6q-15 12 -29 17l-4 4h-2q-8 4 -15 4q-12 4 -16 4q-2 2 -12 2q-6 2 -23 2h-18l-2 -2h-2q-9 0 -21 -4q-6 -6 -12 -6q-4 -4 -12 -8l-17 -17q-6 -4 -14 -16q-4 -4 -4 -6q-13 -18 -17 -25 q-4 -6 -12 -22q0 -7 -4 -11q-1 -3 -2 -8t-2 -8q-8 -21 -16 -65l-2 -17q0 -4 -3 -10q0 -5 -1 -16.5t-1 -16.5q0 -49 2 -72q0 -11 3 -20q0 -1 1 -7t1 -7q0 -9 4 -25q2 -11 16 -65q1 -2 6 -17l2 -2v-2l13 -25q3 -5 10 -15t10 -15l8 -13l8 -8q17 -21 50 -51q21 -21 67.5 -63 t80 -76.5t58.5 -71.5q45 -68 64 -156q16 -65 16 -124q0 -28 -4 -56q-13 -109 -63 -180q-52 -77 -105 -113q-62 -41 -139 -41h-16q-82 0 -134 37q-61 43 -79 115q-17 64 -17 137z" />
<glyph unicode="T" horiz-adv-x="792" d="M51 1495q0 20 14.5 34.5t34.5 14.5q32 0 138 2q63 1 110 0h53q23 0 72 -2t72 -2h73q5 0 17 1t18 1q4 2 13 2q2 0 5.5 1t4.5 1q7 1 13 1q37 0 48 -36q2 -7 2 -14q-1 -13 -7 -25q-10 -20 -30 -22q-61 -10 -141 -10q-11 0 -22 -1q-66 0 -119 3q2 -4 2 -14q0 -190 -8 -576 q-1 -68 -4 -204.5t-4 -203.5v-204q1 -23 2.5 -63.5t2.5 -74t1 -63.5q0 -21 -14.5 -35t-35.5 -14q-22 0 -36.5 13.5t-14.5 35.5q0 47 -4 145q-2 47 -2 142q1 47 2 142.5t2 143.5q1 41 7 348t6 468q0 3 1 8t1 8q-37 0 -111.5 -1t-112.5 -1q-20 0 -34.5 14.5t-14.5 36.5z" />
<glyph unicode="U" horiz-adv-x="708" d="M51 1307q1 22 4.5 91t3.5 107q0 22 15 36.5t37 14.5q20 0 34.5 -14.5t14.5 -36.5q0 -35 -4 -97t-4 -98v-8q0 -35 4 -90q1 -15 7 -65.5t7 -77.5v-145q-3 -91 -3 -152q0 -30 1 -53q0 -33 2 -98.5t2 -98.5v-188q0 -33 2 -49q0 -3 1 -11t1 -12q0 -1 1 -4.5t1 -5.5v-2 q9 -52 17 -70q0 -6 6 -12q2 -6 6 -14l4 -4q1 -2 4 -5.5t4 -5.5l12 -12q5 0 5 -4q4 -2 12 -7t12 -7q10 -5 14 -9h5v-2q5 -1 15 -4t15 -4q11 -4 33 -8h4q3 0 8 -1t8 -1q43 0 66 2h8q2 0 6.5 1t6.5 1q2 1 7 2t7 2q1 0 2 1t2 1l16 8l17 17q4 8 6 10l6 12q4 4 4 8q9 21 12 45 q4 16 4 23q3 6 3 10q0 9 2 13l6 110q1 27 5 82.5t5 83.5q4 63 4 193q0 6 -12 192q-6 102 -6 203q-4 285 -13 401q-1 20 14.5 34.5t34.5 14.5q21 0 35.5 -14t16.5 -35q5 -78 10 -346q0 -142 14 -340q6 -92 6 -182q0 -103 -8 -201q-8 -86 -8 -129q-3 -63 -12 -125 q-10 -68 -41 -112q-45 -62 -109 -76q-43 -9 -87 -9q-27 0 -54 3q-91 15 -139 45q-70 45 -99 114q-10 24 -18 76q-6 34 -10 103v188q0 33 -2 98.5t-2 98.5q-1 23 -1 53q0 61 3 151q0 156 -4 201q-10 85 -11 96q-4 33 -4 99z" />
<glyph unicode="V" horiz-adv-x="894" d="M53 1501q2 22 16 36.5t35 14.5t36 -15t14 -36q0 -29 2 -43q0 -12 2 -18v-13l18 -86q2 -8 9.5 -38.5t9.5 -47.5q4 -17 8 -51v-2q2 -4 2 -12q1 -4 2 -12t2 -11q5 -33 18.5 -97t18.5 -97q5 -45 39 -191q69 -273 102 -387q12 -44 59 -192v-4q3 2 3 4q47 148 59 192 q33 114 102 387q34 146 39 191q5 33 18.5 97t18.5 97q1 3 2 11t2 12q0 8 2 12v2q4 34 8 51q2 17 9.5 47.5t9.5 38.5l18 86v13q2 6 2 18q2 14 2 43q-1 21 14 36t36 15t35 -14.5t16 -36.5v-7q0 -51 -25 -173q-1 -3 -8.5 -36t-9.5 -50q-6 -18 -6 -35q-5 -10 -5 -18v-11 q-4 -20 -4 -28q-4 -23 -11.5 -62.5t-14 -72.5t-10.5 -62q-12 -81 -41 -194q-62 -242 -103 -383q-14 -51 -59 -193q-2 -7 -7.5 -22.5t-7.5 -22.5q0 -8 -2 -12q0 -15 -4 -35q-3 -24 -16 -47q-5 -14 -8 -19v-2q-1 -2 -2 -5t-2 -5q-11 -32 -43 -35h-3q-17 -1 -32 9 q-16 10 -19 26q-1 2 -2 5t-2 5v2q-3 5 -8 19q-13 23 -16 47q-4 20 -4 35q-2 4 -2 12q-2 7 -7.5 22.5t-7.5 22.5q-45 142 -59 193q-41 141 -103 383q-29 113 -41 194q-4 29 -10.5 62t-14 72.5t-11.5 62.5q0 3 -5 28v11q-1 1 -2 8.5t-2 9.5q0 17 -6 35q-2 13 -5 27.5t-7 31.5 t-6 27q-25 122 -25 173v7z" />
<glyph unicode="W" horiz-adv-x="1583" d="M53 1501q2 22 16 36.5t35 14.5t36 -15t14 -36q0 -29 2 -43q0 -12 2 -18v-13l18 -86q2 -8 9.5 -38.5t9.5 -47.5q4 -17 8 -51v-2q2 -4 2 -12q1 -4 2 -12t2 -11q5 -33 18.5 -97t18.5 -97q5 -45 39 -191q69 -273 102 -387q12 -44 59 -192v-4q3 2 3 4q47 148 59 192 q33 114 102 387q34 146 39 191q5 33 18.5 97t18.5 97q1 3 2 11t2 12q0 8 2 12v2q4 34 8 51q2 17 9.5 47.5t9.5 38.5l18 86v13q2 6 2 18q2 14 2 43q-1 21 14 36t36 15h6q20 -3 33 -17.5t12 -33.5q0 -29 2 -43q0 -12 2 -18v-13l18 -86q2 -8 9.5 -38.5t9.5 -47.5q4 -17 8 -51 v-2q2 -4 2 -12q1 -4 2 -12t2 -11q5 -33 18.5 -97t18.5 -97q5 -45 39 -191q69 -273 102 -387q6 -21 60 -192v-4q2 2 2 4q47 148 59 192q33 114 102 387q34 146 39 191q5 33 18.5 97t18.5 97q1 3 2 11t2 12q0 8 2 12v2q3 24 9 51q2 13 5 27.5t7 31.5t6 27l18 86v13q2 6 2 18 q3 21 3 43q-1 21 13.5 36t35.5 15t35 -14.5t16 -36.5v-7q0 -51 -25 -173q-1 -3 -8.5 -36t-9.5 -50q-6 -18 -6 -35q-4 -8 -4 -18v-11q-4 -20 -4 -28q-3 -18 -17 -88.5t-20 -108.5q-12 -81 -41 -194q-62 -242 -103 -383q-14 -51 -59 -193q-2 -7 -7 -22.5t-7 -22.5q0 -8 -2 -12 q0 -10 -5 -35q-3 -24 -16 -47q-5 -14 -8 -19v-2q-1 -2 -2 -5t-2 -5q-11 -32 -43 -35h-3q-17 -1 -32 9q-16 10 -19 26q-1 2 -2 5t-2 5v2q-3 5 -8 19q-13 23 -16 47q-4 20 -4 35q-2 4 -2 12q-2 7 -7.5 22.5t-7.5 22.5q-45 142 -59 193q-33 113 -102 383q-29 113 -41 194 q-6 38 -20 108.5t-17 88.5q0 8 -4 28v11q-1 1 -1.5 3.5t-1 6.5t-1.5 6q-3 -9 -3 -16v-11q-4 -20 -4 -28q-4 -23 -11.5 -62.5t-14 -72.5t-10.5 -62q-12 -81 -41 -194q-62 -242 -103 -383q-14 -51 -59 -193q-2 -7 -7.5 -22.5t-7.5 -22.5q0 -8 -2 -12q0 -15 -4 -35 q-3 -24 -16 -47q-5 -14 -8 -19v-2q-1 -2 -2 -5t-2 -5q-11 -32 -43 -35h-3q-17 -1 -32 9q-16 10 -19 26q-1 2 -2 5t-2 5v2q-3 5 -8 19q-13 23 -16 47q-4 20 -4 35q-2 4 -2 12q-2 7 -7.5 22.5t-7.5 22.5q-45 142 -59 193q-41 141 -103 383q-29 113 -41 194q-4 29 -10.5 62 t-14 72.5t-11.5 62.5q0 3 -5 28v11q-1 1 -2 8.5t-2 9.5q0 17 -6 35q-2 13 -5 27.5t-7 31.5t-6 27q-25 122 -25 173v7z" />
<glyph unicode="X" horiz-adv-x="714" d="M53 4q-2 7 -2 13q0 12 6 24q2 4 6.5 13.5t6.5 13.5q4 4 4 10q1 1 2 3t2 3q9 27 18 57q22 69 47 172q35 142 45 174q19 55 60.5 154.5t54.5 132.5q-26 73 -80 262q-2 8 -16.5 57t-18.5 63t-16.5 54.5t-20 62t-19.5 53.5t-23 60q-1 3 -3 3v2q-4 8 -6 14q-7 17 -14 29 q-4 11 -14 30.5t-13 26.5q-7 13 -7 25q0 6 2 13q5 19 22 30q13 7 26 7q8 0 14 -2q20 -5 29 -22q35 -68 67.5 -153t50.5 -143t48.5 -165t44.5 -151q13 42 44 150.5t49 166t51 142.5t69 153q9 16 30 22q7 2 14 2q14 0 26 -7q17 -11 21 -30l2 -12q0 -13 -7 -26q-2 -5 -11.5 -25 t-14.5 -32q-10 -17 -15 -29q-2 -6 -6 -14v-2l-2 -3q-11 -28 -23 -60t-19.5 -53.5t-20 -62t-16.5 -54.5t-18.5 -63t-16.5 -57q-46 -163 -82 -262q13 -31 38 -90t44 -106.5t34 -90.5q8 -22 45 -174q25 -103 47 -172q3 -9 6 -18.5t7 -21t6 -17.5q1 -1 2 -3t2 -3q0 -6 4 -10 q2 -4 6 -13.5t6 -13.5q7 -15 7 -28q0 -24 -25 -38q-12 -8 -25 -8q-6 0 -13 2q-21 5 -30 23q-13 26 -25.5 55.5t-20.5 53t-18 60t-15 55t-15 61.5t-14 57q-29 120 -51 176q-9 25 -30 72.5t-26 58.5q-38 -91 -53 -131q-22 -56 -51 -176q-2 -7 -14 -56.5t-15.5 -62.5t-15 -54 t-19 -61.5t-20 -51t-25.5 -56.5q-9 -18 -29 -23q-6 -2 -13 -2q-13 0 -25 8q-18 11 -23 29z" />
<glyph unicode="Y" horiz-adv-x="864" d="M53 1512q0 19 14 34q15 15 35 15q23 0 37.5 -15.5t14.5 -36.5v-6q2 -2 2 -8q1 -4 2 -11t2 -11l12 -43q1 -5 29 -91q43 -130 63 -184q7 -20 30 -84t34 -100q9 -29 27.5 -90t27.5 -90q3 -9 8 -28t8 -28q21 41 33 70q24 50 39 86q1 2 3 7t3 7q2 2 2 4q2 3 8 21q14 33 17 43 q11 29 32 92.5t33 95.5q6 16 41 99q10 20 11 24q2 2 6 10q2 4 2 6q19 44 20 46q6 13 19.5 38t19.5 39q3 5 8 19q2 2 2 6q4 4 4 8l7 21q0 2 1 5t1 5q3 24 14 35q14 14 37 14q20 0 36 -15q13 -13 13 -28v-6q-5 -45 -33 -107q-6 -16 -21 -43t-20 -39l-6 -12q0 -2 -2 -2l-12 -31 q-9 -21 -19 -41q-4 -8 -10 -23.5t-10 -23.5v-2q-4 -8 -4 -10q-4 -9 -8 -23q-11 -30 -32.5 -92.5t-33.5 -93.5q-28 -76 -80 -186q-5 -12 -18.5 -41.5t-20.5 -46.5q-2 -3 -5.5 -11t-4.5 -10q-2 -4 -2 -6t-4 -10q-5 -11 -14 -41q-2 -4 -2 -10v-2q0 -226 2 -271q8 -180 8 -268 q0 -22 -14.5 -35.5t-36.5 -13.5q-21 0 -35.5 14t-14.5 35q0 88 -8 268q-2 45 -2 271v10q-33 77 -63 180q-38 130 -56 182q-32 97 -65 185q-13 34 -62 184q-49 131 -49 191z" />
<glyph unicode="Z" horiz-adv-x="792" d="M51 1487q0 20 14.5 34.5t34.5 14.5q44 0 179 2q68 1 124 1q55 1 101 -1q90 -2 178 -8q34 -3 47 -33q11 -14 11 -29q0 -8 -3 -16q-10 -32 -24 -61q-11 -20 -42.5 -65.5t-45.5 -72.5l-7 -12v-2q-4 -8 -8 -20q-5 -12 -14 -43q-6 -17 -16 -50t-13 -41q-13 -47 -30 -88 l-43 -98q-1 -1 -2 -3t-1.5 -3.5t-1.5 -3.5l-2 -4q-2 -4 -2 -6q-3 -5 -8 -19q-9 -21 -18 -45q-4 -9 -17.5 -41.5t-19.5 -50.5q-12 -36 -51 -184q-12 -47 -27 -93q-3 -9 -41 -98l-4 -10q-2 -2 -2 -6q-2 -4 -5 -11.5t-5 -11.5q-3 -7 -8.5 -21.5t-8.5 -21.5q-7 -18 -17 -50 t-13 -40q-7 -23 -39 -94q137 0 207 2q14 0 41 0.5t49.5 0.5t42.5 -1q31 -3 63 0h23q20 4 28 8q21 5 39.5 -6t22.5 -31q6 -20 -4.5 -37t-30.5 -22q-40 -11 -101 -11q-17 0 -36 1h-133q-196 -4 -293 -4q-5 0 -17 4q-4 0 -8 4q-11 6 -18 16q-8 12 -8 25q0 4 6 22l2 2 q5 11 14.5 29t11.5 22l19 44q2 2 8 14l2 4q0 6 4 10q5 15 14.5 44.5t14.5 43.5q16 51 35 92l24 56q1 3 4 10t4 10q1 1 2.5 4t2.5 4q0 1 1 3.5t1 3.5q11 26 19.5 54t19.5 73.5t14 56.5l24 92q1 5 35 92q9 20 37 87.5t45 105.5q4 8 6 14q2 2 2 4q5 8 9 19q1 3 6.5 17.5 t7.5 22.5q5 15 14.5 45t14.5 46q35 114 71 170q6 10 22.5 32.5t24.5 36.5q2 2 6 9t5 8q-79 4 -163 4q-21 0 -43 1q-69 1 -153 -1q-112 -2 -162 -2q-20 0 -34.5 15.5t-14.5 35.5z" />
<glyph unicode="[" horiz-adv-x="454" d="M53 748q-1 69 4 403q0 126 -4 192q-2 48 3 159t12 165v2q0 20 14.5 35.5t34.5 15.5h233q22 0 36.5 -14.5t14.5 -36.5q0 -20 -14.5 -34.5t-36.5 -14.5q-20 0 -58.5 -0.5t-70 -0.5t-59.5 1v-31q0 -14 -4 -112.5t-4 -110.5q4 -106 4 -158q0 -56 -3 -169t-3 -169 q-1 -79 3.5 -225t4.5 -180t-1 -100.5t-1 -100.5v-348q23 1 62.5 4.5t71.5 5.5t60 2q22 0 36.5 -14.5t14.5 -36.5q0 -20 -14.5 -34.5t-36.5 -14.5q-39 0 -117 -6t-118 -6q-2 -2 -11 -2q-13 0 -22 6q-29 13 -29 45q0 10 2 16q0 63 1 267.5t1 257.5q1 50 0 107t-3 126.5 t-3 108.5z" />
<glyph unicode="\" horiz-adv-x="813" d="M53 1649q-7 49 35 61q19 6 39 -4.5t23 -30.5q7 -41 46 -160.5t60 -171.5q22 -57 59 -184q37 -117 58 -190q11 -37 33.5 -105t27.5 -84q43 -136 62 -186q8 -25 34 -92q1 -3 4.5 -9.5t4.5 -9.5l2 -6q4 -8 4 -10q9 -16 20 -45q47 -109 106.5 -269t80.5 -245l6 -25 q5 -21 -5 -39t-30 -22q-20 -6 -37.5 4.5t-23.5 30.5q-25 88 -84 251t-97 254v3q-1 2 -2 5.5t-2 4.5l-10 20q-8 24 -23 54q-26 67 -34 92q-23 61 -64 186q-6 18 -28.5 85t-32.5 103q-34 108 -58 191q-40 136 -59 186q-104 296 -111 332q-4 16 -4 25z" />
<glyph unicode="]" horiz-adv-x="454" d="M51 1657q0 20 14.5 34.5t36.5 14.5q39 0 117.5 6t118.5 6q2 2 10 2q14 0 23 -6q28 -12 28 -45q0 -10 -2 -16q0 -65 -1 -270t-1 -257q-1 -50 0 -107t3 -126.5t3 -108.5q1 -69 -4 -403q0 -127 4 -193q2 -49 -2.5 -158.5t-11.5 -162.5v-2q0 -20 -14.5 -35.5t-34.5 -15.5 h-234q-22 0 -36.5 14.5t-14.5 36.5q0 20 14.5 34.5t36.5 14.5q20 0 58.5 0.5t70.5 0.5t60 -1v31q0 14 4 111.5t4 109.5q-4 106 -4 158q0 57 3 169.5t3 168.5q1 79 -3 225t-5 180q0 34 1 100.5t1 100.5v350q-22 -1 -62 -4.5t-72.5 -5.5t-60.5 -2q-22 0 -36.5 14.5t-14.5 36.5 z" />
<glyph unicode="_" d="M51 -57q0 22 14.5 36.5t34.5 14.5h492q22 0 36.5 -14.5t14.5 -36.5q0 -20 -14.5 -34.5t-36.5 -14.5h-492q-20 0 -34.5 14.5t-14.5 34.5z" />
<glyph unicode="`" horiz-adv-x="323" d="M53.5 1508q4.5 20 22.5 30q17 10 38.5 5t30.5 -23q6 -12 9 -15l4 -8q4 -4 4 -6q16 -16 28 -31q66 -58 68 -59q14 -15 14 -37t-14 -35q-15 -15 -36 -14.5t-36 14.5q-10 10 -34 31t-37.5 34t-30.5 34t-27 42q-8 18 -3.5 38z" />
<glyph unicode="a" horiz-adv-x="720" d="M55 209q13 94 72 162q39 43 127 90q9 4 19.5 9t24 10t21.5 9q2 1 6.5 2.5t6.5 2.5q4 4 10 4q24 12 29 14q8 4 28 16q4 4 7 4l22 23l6 12q0 1 1 3t1 3q0 3 4 7q-2 4 -2 12v4q-2 2 -2 8q-1 3 -2 8.5t-2 8.5q-4 8 -4 14l-2 2v2q-9 18 -14 23l-2 4q-5 5 -11 8q0 1 -1 2t-1 2 q-2 1 -5 3t-5 3q-4 4 -10 4v2q-4 1 -13.5 3t-13.5 3h-2q-8 0 -12 2q-19 0 -27 -2h-10q-2 -2 -6 -2q-38 -8 -55 -16q-2 0 -5 -1t-4 -1q-8 -4 -10 -6l-26 -13q-19 -11 -39 -5.5t-29 24.5q-11 17 -6 37.5t22 30.5q2 0 2 1q96 53 180 53q36 0 70 -10q70 -20 107 -77 q35 -51 43 -158q2 -32 2 -82t-2 -117q-3 -71 -3 -118q0 -24 1 -41q2 -6 2 -17q0 -6 2 -10q0 -6 4 -18q1 -5 3 -14.5t3 -14.5h2l6 -12q4 -5 4 -7l4 -4q0 -2 2 -2q3 0 7 -4h4l4 -2h18q22 3 39 -5.5t21 -29.5q2 -7 2 -14q0 -11 -6 -23q-10 -18 -31 -22q-21 -3 -39 -3 q-23 0 -41 5q-37 11 -57 37q-22 24 -35 63q-59 -36 -101 -55q-73 -32 -126 -32q-10 0 -19 1q-83 11 -121 60q-26 38 -33 65q-6 23 -6 45q0 14 2 27zM154 168q1 -2 2 -6t2 -6q0 -2 2 -4q0 -5 4 -9l2 -4l8 -8l2 -2q4 -2 8 -6q1 0 5.5 -2t5.5 -2t3 -1t3 -1q4 -2 12 -2 q0 -2 4 -2h29q1 0 6 1t6 1h6q5 2 17.5 5t17.5 5q2 2 6 2v2q15 5 17 6q31 14 73 43q12 6 21 12q0 5 4 5l4 4q12 8 16 14v86q0 23 2 69t2 70q-1 0 -2 -1t-2 -1q-32 -18 -55 -28q-6 -2 -19.5 -7.5t-19.5 -7.5l-12 -6q-2 0 -4 -2q-47 -21 -58 -27l-30 -18q-1 -2 -5 -5l-4 -3 q-1 -1 -3 -2t-3.5 -2t-1.5 -2q-13 -10 -24 -25l-3 -3l-6 -6t-2 -1q0 -2 -4 -6q-8 -14 -16 -33q-1 -1 -2 -4t-2 -4q-4 -8 -4 -15q-2 -8 -6 -20q0 -6 -2 -8v-33z" />
<glyph unicode="b" horiz-adv-x="636" d="M53 1495q0 22 14.5 36.5t34.5 14.5q22 0 37 -14.5t15 -36.5q-1 -39 -1 -89q1 -108 5 -264q6 -229 6 -315v-16l43 6q22 3 48 3q16 0 34 -1q59 -7 100 -24q74 -33 123 -105q72 -109 72 -267v-17q-4 -194 -107 -297q-63 -63 -158 -95q-107 -30 -180 -30h-8q-12 0 -18 2 q-36 10 -36 46q0 6 1 13v2q0 2 1 5t1 5v19q2 14 2 39q0 13 -1 39t-1 39q-2 53 -2 159q-4 216 -8 330q-18 482 -18 718q0 54 1 95zM168 713q4 -97 8 -291q1 -34 2 -101.5t2 -101.5l1 -67v-38q0 -30 -1 -30q26 4 37 8q36 8 80 21l18 6l2 2q1 0 9 4q20 7 34 18q1 1 8 5t9 6 q1 1 3 2t3 2l2 2q15 12 27 24q2 2 6 7.5t6 7.5v2l4 4q6 8 18 28q2 7 9 17q0 2 2 4v2q8 19 10 33q3 7 8 33q1 3 2 9t2 9v8q4 46 4 72q0 21 -4 67v9q-1 3 -2 8t-2 8q-5 26 -8 33q-2 10 -10 35l-4 12q-4 4 -4 8q-17 28 -19 31q-1 4 -4.5 8.5t-3.5 5.5l-4 4q-8 10 -25 27 q-1 1 -3 2t-3 2q-4 4 -12 8q-11 7 -19 10q-6 3 -10 7h-2q-17 9 -41 12q-2 0 -6 1t-6 1q-3 0 -9.5 1t-9.5 1q-27 0 -39 -2q-16 0 -22 -2h-14q-20 -4 -29 -4z" />
<glyph unicode="c" horiz-adv-x="575" d="M52 395q0 19 1 45.5t4 48.5q10 86 35 152q35 90 92 129q35 24 81 30q15 2 28 3q30 0 57 -10q86 -31 129 -115q10 -18 5 -38t-23 -30q-17 -11 -39 -6t-29 23q-15 25 -18 28v2l-4 5q-10 10 -11 12l-8 4q-2 4 -10 8t-14 8q-4 0 -4 2q-7 0 -19 4h-26l-25 -6q-2 0 -6 -4 q-8 -4 -10 -6h-2q0 -1 -2 -2t-3 -2l-10 -10q-1 -1 -2 -3t-2 -3q-1 -2 -4 -5.5t-4 -5.5q-12 -20 -16 -30q0 -1 -1.5 -3.5t-1.5 -3.5q-1 -2 -3 -7t-3 -7l-18 -61q-1 -7 -4 -20.5t-4 -20.5v-13q-2 -8 -2 -24q-4 -27 -4 -57v-22q0 -23 1 -51q1 -42 1 -59v-38q2 -4 2 -15v-6 q3 -16 10 -33v-2q0 -2 2 -2q1 -2 3 -7t3 -7q1 -1 3 -4t3 -4q7 -7 10 -13q9 -6 15 -12l4 -4q35 -20 43 -23q1 -1 3 -2t3 -2q4 0 12 -4l25 -6q2 0 6 -1t6 -1h4q4 0 12.5 -1t12.5 -1q2 0 7 1t7 1h2q9 0 21 4q4 2 8 2q1 1 3 2t3 2t4 2t4 2l2 2q6 3 9 9q4 0 4 4q4 4 8 12q0 4 2 6 q0 2 1 6t1 6q0 5 2 5v14q0 22 14.5 36.5t34.5 14.5q22 0 36.5 -14.5t14.5 -36.5q-3 -105 -82 -152q-42 -24 -102 -24q-26 0 -55 4q-70 8 -128 49.5t-85 106.5q-19 48 -19 149q0 16 -0.5 46.5t-0.5 49.5z" />
<glyph unicode="d" d="M51 414q0 157 68 268q44 70 114.5 116t149.5 52q11 1 22 1q60 0 119 -28q0 111 3 334t3 334q0 21 15 36t35 15q22 0 36.5 -14.5t14.5 -36.5q0 -109 -3 -330t-3 -330q1 -54 3 -192q2 -99 1 -165v-48q1 -24 -1 -94q-1 -42 -1 -73v-36q0 -30 4 -100q1 -8 2 -25.5t2 -25.5 q2 -8 2 -23h2q0 -14 2 -20q1 -20 -14.5 -33.5t-36.5 -13.5t-34 12t-15 33q-2 6 -2 16q-65 -51 -151 -51q-30 0 -62 6q-64 10 -119.5 49.5t-89.5 95.5q-66 112 -66 271zM152 383q0 -11 4 -35v-6q0 -2 1 -7t1 -7q4 -25 16 -64q2 -12 10 -31q0 -1 1 -2t1 -2l7 -14q2 -4 7 -13.5 t7 -13.5q2 -2 4.5 -5.5t3.5 -4.5t3 -4t3 -4q15 -22 37 -37q2 0 6 -4q1 -1 4.5 -3.5t5.5 -4.5l25 -12q1 0 3 -1.5t3 -1.5q8 -4 12 -4q9 -4 27 -8q2 -1 7 -2t7 -2h48q16 4 22 6q2 1 7 2t7 2q2 0 2 2q6 1 23 13q1 0 2 1t2 1q6 6 10 8q2 4 8 10l5 4q4 6 14 25l6 12q0 1 1 3.5 t1 4.5q5 14 12 19q-2 49 -2 145q2 55 2 166q0 26 -1 81t-1 81v6q-2 4 -2 10q-2 2 -2 4q-5 10 -8 13l-2 2l-10 10l-4 4q-17 9 -23 10q-4 4 -10 4q-8 4 -14 4q-10 5 -15 5q-1 0 -5.5 1t-6.5 1h-41q-1 0 -6 -1t-6 -1q-24 -6 -29 -7q-4 -2 -16 -6q-1 -1 -3.5 -2t-3.5 -2 q-16 -5 -32 -18q-1 -1 -11 -6l-8 -9q-6 -6 -22.5 -21t-24.5 -24q-2 -2 -2 -4q-4 -2 -8 -10q-7 -10 -14 -23l-13 -26q-2 -2 -2 -6q-1 -2 -3 -7.5t-3 -7.5q-12 -40 -16 -63q-1 -3 -2 -9.5t-2 -9.5v-6q-1 -5 -2 -15t-2 -15v-68z" />
<glyph unicode="e" horiz-adv-x="663" d="M55 412q22 157 111 270q50 62 92 80q52 24 110 24h13q73 -3 125 -30q63 -33 86 -82q20 -38 20 -77t-20 -77q-38 -74 -119 -119q-37 -21 -78 -30q-39 -7 -77 -7q-13 0 -25 1q-14 0 -43 1t-45 1q-18 -2 -53 2q0 -40 2 -60v-6q1 -3 2 -7.5t2 -6.5q0 -5 6 -29q1 -3 2 -8t2 -8 q2 0 2 -4q10 -20 12 -23q9 -18 21 -33q1 -1 4 -6t4 -8l4 -4q15 -15 21 -23q4 -2 10 -8q1 0 2 -1t2 -1q8 -6 24 -14q1 0 2.5 -1t2.5 -1q2 -1 6 -2t6 -2q11 -6 28 -9l13 -2h8h70h16q2 2 6 2l31 7q1 1 3 2t3 2l12 6q2 0 6 4q1 1 4.5 3t4.5 3t2 3t2 3q3 3 8 13v2q2 0 2 4 q1 2 2 7.5t2 8.5q4 20 23 30t38 5q21 -5 31 -23q6 -11 6 -25q0 -7 -2 -14q-2 -15 -14 -43q-46 -102 -216 -102q-21 0 -44 2q-80 7 -133 41q-59 42 -99 107q-39 67 -47 122q-7 37 -7 75q0 32 5 65zM168 467h94q12 0 36 -1t36 -1q4 0 13 1t13 1q1 0 7.5 1t7.5 1q2 1 7 2t7 2 t6.5 2t7.5 2l3 2q10 5 22 13q12 6 21 12l8 8q4 2 10 8q11 11 20 23q1 0 5 4q1 1 3 4t3 4q1 2 3 7t3 7q5 15 6 17v20q0 4 -2 6q0 2 -1 6t-1 5t-1 2t-1 2q-2 2 -6 10l-9 8q-1 2 -4 5t-4 5h-2q-3 1 -10 6.5t-12 6.5q-1 1 -5.5 3t-5.5 3h-4q-8 4 -24 8q-6 2 -17 2q0 2 -2 2h-55 q-2 -1 -6 -2t-6 -2q-3 -1 -23 -6q-2 0 -2 -2q-2 0 -10 -4q-2 -1 -6 -4t-6 -4q0 -3 -2 -3q-3 -3 -10.5 -9t-10.5 -9q-5 -5 -20 -25q-1 0 -2 -1t-2 -1q-1 -2 -4.5 -6t-4.5 -6q-14 -21 -32 -57q-7 -14 -9 -17v-2q0 -2 -2 -2q-2 -5 -5 -15t-5 -15l-4 -12t-4 -15z" />
<glyph unicode="f" horiz-adv-x="724" d="M102 707q0 21 14.5 35t35.5 16q60 4 90 8h4q1 0 4 1t4 1h4v31q0 31 -1 96t-1 96q3 115 16 201q9 64 27 129q20 80 66 135q39 51 106 64q46 10 87 10q26 0 50 -4q80 -11 109 -70q8 -13 8 -27q0 -5 -1 -11q-5 -19 -24 -29q-19 -11 -39.5 -5.5t-29.5 23.5q-2 2 -2 4l-4 4 q-2 1 -5.5 3t-5.5 3h-4l-18 6q-9 0 -12 3h-27q-17 0 -35 -3q-6 0 -8 -2q-10 0 -14 -2q-18 -5 -25 -8q-4 0 -4 -2l-8 -4q-1 -1 -5 -4t-5 -4q-9 -9 -11 -10v-2l-2 -3q-4 -4 -8 -12q-11 -18 -16 -31v-2q-2 -2 -2 -4l-7 -14q-17 -51 -28 -127q-6 -36 -6 -39l-2 -6v-6 q-2 -8 -2 -23q-1 -9 -4 -43t-3 -53v-192v-48q10 3 30 9.5t30 9.5q31 9 43 14q1 0 4 1t4 1l2 2q3 1 9 4t9 4q18 10 39 6t31 -22q10 -17 5 -39t-23 -31q-71 -36 -183 -61v-45q0 -135 2 -201v-53v-147q-1 -42 -1 -76q0 -91 3 -123q1 -20 -13.5 -34.5t-35.5 -14.5t-35 14t-16 35 q-2 47 -2 283q0 47 -2 140.5t-2 139.5q2 23 2 66q-47 -8 -106 -11q-20 -1 -35 15t-15 35z" />
<glyph unicode="g" horiz-adv-x="679" d="M55 475q16 197 86 283q62 80 196 80q23 0 48 -2q83 -7 133 -37q5 17 18.5 28t30.5 11q20 0 34.5 -15t14.5 -37q0 -106 2 -161q1 -16 5 -61.5t4 -69.5v-15q0 -59 -3 -243q-2 -110 -2 -190q0 -53 1 -93q4 -82 4 -125q2 -2 2 -10q0 -183 -27 -271q-26 -88 -76 -133 q-52 -46 -125 -59q-50 -10 -98 -10q-95 0 -180 39q-18 9 -23.5 30.5t4.5 38.5q16 25 42 25q13 0 28 -6q1 -1 3 -2t3 -2h2l21 -7q27 -8 45 -10q1 0 4 -1t4 -1h6q8 -2 25 -2h47q14 0 20 2h4l31 6q12 2 31 10h4q6 3 12 9q14 7 15 8q2 0 2 2q3 2 6 5t6.5 7t5.5 6q0 2 2 2 q0 3 4 7q1 2 4 7t4 7q5 10 9 14q0 4 2 6q10 30 20 70q4 20 4 31q0 1 1 7t1 7q0 3 1 9t1 9q4 43 4 129q-4 40 -4 66q-2 63 -2 186q-8 -6 -24 -22q-52 -33 -78 -37q-42 -10 -76 -10q-93 0 -151 39q-60 40 -101 135q-40 99 -40 234q0 37 3 77zM156 344q0 -6 1 -19t1 -20 q2 -2 2 -8q1 -3 2 -9t2 -9q16 -65 18 -72q4 -8 4 -12h2q1 -2 3.5 -7.5t3.5 -7.5q4 -10 16 -30q2 -2 12 -17q0 -1 1 -2t1 -2q7 -7 13 -10l4 -4q4 -1 9.5 -5t6.5 -4q1 -1 3 -2t3 -2q9 -4 31 -8q2 -1 7 -2t7 -2h13q10 -2 32 -2q6 2 19 2h4q22 4 31 8l8 4q5 5 14 11q2 0 2 2h2 l27 26l2 4l2 2q3 4 18 29q1 3 4.5 9.5t4.5 9.5q6 6 6 12q1 4 4 11t4 11q4 13 8 39q4 16 4 25q0 1 1 3.5t1 4.5v6q6 47 6 96v28q0 61 -6 163q0 9 -1 26.5t-1 26.5q-9 9 -12 21l-4 14q-1 1 -2 3t-2 3q0 2 -2 4h-2q-3 6 -11 10v3q-1 0 -2 1t-2 1q-5 5 -14 8l-8 4q-2 1 -6.5 2 t-6.5 2q-14 5 -34 8q-4 2 -13 2q-2 2 -12 2q-10 2 -66 2q-8 -2 -22 -2q-4 -2 -8 -2q-3 -1 -8.5 -2t-8.5 -2q-4 0 -12 -4q-8 0 -8 -4q-9 -3 -14 -8l-2 -2q-12 -9 -21 -21l-4 -4l-6 -12q-1 -1 -8 -15q-1 -1 -3.5 -6t-3.5 -6q-5 -16 -8 -20q-3 -13 -14 -66l-6 -37v-8 q-2 -6 -2 -16q-6 -51 -6 -99q0 -29 2 -57z" />
<glyph unicode="h" horiz-adv-x="661" d="M53 1499q-2 7 -2 14q0 13 7 25q10 18 30 23q7 2 14 2q12 -1 25 -7q19 -10 23 -30q16 -64 20 -172q4 -114 4 -174v-365v-18q43 21 117 28q24 1 45 1q52 0 82 -7q69 -13 110 -67q47 -59 62 -134q14 -73 18 -190q1 -22 1 -51q0 -58 -3 -146q0 -17 -2 -49t-2 -49 q0 -7 0.5 -53t-4.5 -53q-4 -19 -22 -27q-14 -6 -29 -7q-5 0 -10 1q-23 6 -33 22l-2 4q-8 12 -8 28t8 28v47q0 24 4 78q2 51 2 153q0 105 -6 158q0 13 -4 41q0 10 -2 16v4q-2 16 -11 52q-2 4 -6 16q-2 2 -2 6q-9 19 -14 25q-1 2 -3 5t-3 5q-1 1 -2 2.5t-2 2.5t-2 1 q-3 6 -11 10q0 4 -4 4q-18 12 -20 13q-4 4 -10 4q-2 1 -7.5 2t-7.5 2q-2 0 -5 1t-5 1h-16q-19 0 -29 2q-22 0 -62 -4h-4q-2 -1 -7 -2t-7 -2q-18 -4 -29 -8q-2 0 -4 -2l-12 -7q-2 -2 -4 -2q-3 -5 -8 -8q0 -4 -4 -4l-7 -12q-1 -1 -2 -3t-2 -3q0 -7 -4 -15q-2 -6 -6 -14 q0 -39 -1 -116.5t-1 -116.5v-203q0 -57 2 -86q0 -27 2 -41q0 -13 2 -17v-14q3 -17 -6 -29q-8 -17 -29 -20q-20 -6 -40 3t-21 30q-10 61 -10 151v185q0 62 1 185.5t1 184.5v404q0 60 -4 192q0 28 -4 90q0 4 -1.5 12.5t-1.5 12.5q0 2 -2 4v8q-1 6 -4 19.5t-4 19.5z" />
<glyph unicode="i" horiz-adv-x="223" d="M51 764q0 22 14.5 36.5t34.5 14.5q22 0 37 -14.5t15 -36.5q0 -270 6 -361l6 -92q6 -87 6 -88l-2 -88v-39q0 -50 2 -49q1 -20 -14.5 -33.5t-36.5 -13.5t-34 13t-15 34q-1 14 -1 41q1 20 1 48q1 38 0 63v26q-1 30 -6.5 89.5t-6.5 88.5q-6 121 -6 361zM51 913q0 20 14.5 35 t34.5 15q22 0 37 -15t15 -35q0 -21 -15 -36t-37 -15q-20 0 -34.5 15.5t-14.5 35.5z" />
<glyph unicode="j" horiz-adv-x="352" d="M-123 -612q14 13 34.5 12.5t35.5 -12.5l2 -2q1 0 2 -1t2 -1l2 -2h2q1 0 3 -1.5t3 -1.5h12q3 3 9 3q8 4 14 4l2 2q2 2 14 8q11 6 25 16l8 6l12 13q4 3 21 20l2 2q1 4 10 17q2 3 5 10t5 10q1 2 2 5t2 5l3 4q10 30 12 35l12 43q1 4 2 11t2 10l2 15v-1q0 1 6 86q3 82 3 137 q0 28 -1 49q-1 64 -7.5 355t-6.5 448q0 22 14.5 36.5t36.5 14.5q20 0 34.5 -14.5t14.5 -36.5q0 -30 1.5 -89t1.5 -89q6 -409 6 -410q1 -41 3.5 -125.5t2.5 -126.5q1 -15 1 -34q0 -37 -1 -94q-4 -111 -23 -185q-26 -104 -75 -160q-34 -41 -79.5 -68t-98.5 -31h-10 q-47 0 -85 36q-15 14 -15 34q0 22 15 38zM102 850q0 22 13 35l2 2v6q8 23 24 31q13 6 24 6q7 0 13 -2q39 -8 51 -35q9 -27 9 -35q0 -17 -9 -35q-3 -5 -22 -24q-12 -7 -35 -11h-6q-26 0 -51 25q-13 15 -13 37z" />
<glyph unicode="k" horiz-adv-x="655" d="M53 729v31q0 95 4 373q0 126 -4 192q-1 30 -1 57q0 81 9 136q3 19 23 29q13 7 26 7q7 0 13 -2q21 -6 30.5 -23t4.5 -38v-10h-2v-19q-2 -12 -2 -37v-77q4 -106 4 -158q0 -56 -3 -168.5t-3 -169.5v-29q0 -69 4 -181q4 -136 4 -196v-61q41 36 59 57q60 63 119 131 q9 12 29 34t30 34q15 15 27 33l4 4q2 4 10 12q1 1 3 4t3 4q25 28 41 50l2 2q2 2 2 4q2 2 5.5 6t5.5 6q0 2 4 6v6q6 20 24 30t37 5q21 -6 31 -23q7 -12 8 -25q0 -6 -2 -13q-7 -23 -41 -72l-43 -49l-4 -4q-4 -4 -4 -6l-2 -3l-10 -14q-5 -6 -14.5 -17.5t-14.5 -17.5l-61 -67 q-22 -22 -46 -53q0 -5 3 -11q1 -1 2 -4.5t2 -5.5v-2h2q7 -20 26 -51q7 -13 27 -42.5t29 -45.5q11 -20 49.5 -99t64.5 -120q12 -17 6.5 -38t-22.5 -30q-12 -6 -25 -6q-7 0 -14 2q-20 5 -31 20q-26 40 -63.5 117.5t-55.5 108.5q-10 18 -30.5 49.5t-28.5 44.5q-8 14 -16 33 q-73 -73 -129 -117v-205q0 -20 -15 -33.5t-37 -13.5q-20 0 -34.5 13.5t-14.5 33.5q0 225 2 340q0 50 -1 107t-2.5 126.5t-2.5 108.5z" />
<glyph unicode="l" horiz-adv-x="212" d="M53 719v30q0 94 4 373q0 127 -4 193q-1 30 -1 56q0 80 9 136q3 19 23 29q13 7 26 8q6 0 13 -2q21 -6 30.5 -23t4.5 -38v-11h-2v-18q-2 -12 -2 -37v-78q4 -106 4 -157q0 -56 -3 -169t-3 -169v-31q0 -75 4 -195q4 -147 4 -180q0 -34 -1 -100t-1 -100v-199q0 -20 -15 -33.5 t-37 -13.5q-20 0 -34.5 13.5t-14.5 33.5q0 225 2 340q0 50 -1 107t-2.5 126.5t-2.5 108.5z" />
<glyph unicode="m" horiz-adv-x="954" d="M53 743q-2 7 -2 14q1 13 7 25q10 18 30 23q19 6 39 -4.5t23 -30.5q0 -3 1 -9t1 -9q2 -2 2 -11q43 34 73 47q61 31 107 31h6q66 -3 111 -45q12 -12 18 -20q56 59 143 69q34 5 63 5t54 -5q51 -11 94 -61q31 -43 43 -78q15 -46 17 -76q13 -111 16 -194q3 -55 3 -119 q0 -38 -1 -80q0 -17 -1 -49t-1 -49q-5 -87 -8 -103q-3 -18 -23 -28q-13 -6 -25 -6q-7 0 -14 2q-36 11 -36 53v2q2 2 2 4v18q0 5 1 15.5t1 15.5q0 10 1 30t1 30q4 82 4 120q0 144 -10 246q-1 12 -11 86q0 12 -2 16q0 5 -4 17q0 6 -4 14l-4 13q-2 6 -7.5 15t-6.5 11l-9 10 l-6 7l-10 10q-4 4 -8 4q-1 1 -3 2t-3 2q-5 0 -13 4h-8q-2 0 -6.5 1t-7.5 1h-31q-4 -2 -14 -2q-2 0 -4.5 -1t-3.5 -1q-22 -4 -33 -8q-1 -1 -4 -2t-4 -2l-13 -6q-8 -3 -14 -9q-2 0 -6 -4q-7 -3 -10 -10l-8 -8q-2 -3 -6.5 -10.5t-6.5 -10.5q-4 -8 -6 -10q4 -24 4 -35 q6 -55 6 -168q2 -66 2 -194q-2 -70 -2 -205q0 -20 -14.5 -34.5t-34.5 -14.5t-35.5 14.5t-15.5 34.5q0 39 1 118t1 118q0 36 -1 108t-1 109q0 55 -2 84q0 4 -1 12t-1 12q0 1 -1 4t-1 4q-5 30 -8 39q-1 2 -6 17q0 2 -3 2q0 4 -4 8q-4 8 -6 10q0 2 -8 10l-6 7q-5 5 -14 8l-3 2 h-2q-2 1 -7 2t-7 2h-18q-2 0 -7.5 -1t-7.5 -1q-3 -1 -8 -3t-8 -3q-1 0 -4 -1t-4 -1l-13 -7l-30 -18q-3 -2 -9.5 -5t-9.5 -5l-6 -6q-5 -4 -26 -25q-10 -7 -15 -14q-1 -1 -2 -3t-2 -3q-1 -2 -4 -6.5t-4 -6.5v-4q-2 -2 -2 -4q2 -40 2 -100t-2 -140q-2 -42 -2 -84t2 -83 q0 -120 -14 -166q-6 -19 -24 -28.5t-38 -4.5q-20 4 -30 22q-7 11 -7 23q0 7 2 14v4q4 9 8 35q0 4 3 10v19q0 9 0.5 26t0.5 30.5t-1 25.5q0 14 -1.5 40.5t-1.5 39.5q0 45 3 88q3 85 3 142q0 28 -1 50q0 55 -5 94l-6 50v8q-2 2 -2 4q0 4 -1 11.5t-1 10.5z" />
<glyph unicode="n" horiz-adv-x="620" d="M53 750q-2 7 -2 14q1 13 7 25q10 18 30 22q7 2 14 2q12 -1 25 -7q20 -10 23 -30q0 -3 1 -9t1 -9q6 -24 6 -47q6 5 17.5 16t17.5 16q70 57 151 60q91 0 143 -58q50 -53 60 -135q11 -71 14 -159q6 -100 6 -402q0 -20 -14.5 -34.5t-34.5 -14.5t-35.5 14.5t-15.5 34.5v301 q-1 25 -4 75t-4 75q-1 8 -2 24.5t-2 24.5q0 4 -1 12t-1 12v5q-2 2 -2 8q-5 27 -15 59q-6 6 -6 12q-1 2 -4 6.5t-4 6.5l-2 2v2l-10 10h-2l-5 4q-2 1 -7 3t-7 3l-4 2q-2 1 -5 2t-5 2q-1 0 -4 1t-4 1h-7l-8 1q-8 1 -8 -1h-10q-22 -4 -33 -8q-1 -1 -4 -2t-4 -2t-4 -2t-4 -2 q-2 -2 -8.5 -5t-8.5 -5l-4 -2v-2q-4 -2 -10 -8l-25 -25l-8 -12q-3 -3 -6 -9q-25 -36 -37 -63q0 -2 -2 -2q0 -4 -2 -6q-4 -12 -4 -15q-2 -4 -2 -8q0 -27 -1 -78.5t-1 -76.5q-2 -42 -2 -84.5t2 -83.5q0 -120 -14 -166q-6 -18 -24 -28q-13 -8 -28 -8q-5 0 -10 1q-20 6 -30 24 q-7 11 -7 23q0 7 2 14v5q4 10 8 34q0 5 3 11v18q0 9 0.5 26t0.5 30.5t-1 25.5q0 13 -1.5 40t-1.5 40q0 15 1.5 44t1.5 44q2 41 2 123q-2 4 -2 12q0 3 1 9t1 9v39q0 56 -5 95l-6 49v8q-2 2 -2 4q0 4 -1 12t-1 11z" />
<glyph unicode="o" horiz-adv-x="649" d="M53 342q4 34 8 51q-3 13 -3 30q0 36 14 87q4 17 11 35.5t16.5 41.5t13.5 34q32 77 57 110q43 53 102 62q19 2 37 2q67 0 121 -29q62 -38 98 -102q61 -103 68 -250q1 -20 1 -39q-1 -41 -5 -81q-6 -58 -24 -118.5t-58 -106t-98 -65.5q-37 -10 -76 -10q-35 0 -70 8 q-71 20 -129 84q-67 80 -80 162q-5 36 -5 67q0 14 1 27zM152 386v-9q0 -10 1 -24q1 -21 1 -29q-2 -11 -2 -22.5t2 -22.5v-11q0 -1 1 -2t1 -2q0 -6 4 -18q5 -20 6 -23l2 -2v-2q4 -8 6 -10q5 -10 23 -37q1 -1 2 -2.5t2 -2.5t2 -1v-2q6 -9 14 -17q10 -13 25 -22l6 -6 q9 -3 14 -8l12 -7q5 0 9 -2q24 -6 28 -6q2 -2 13 -2h36q18 4 25 8h4q6 3 10 7q10 5 11 6q1 0 3 2t3 2q6 4 14 12q1 2 4 5t4 5q15 21 27 45v4l6 13l6 24q12 52 12 56q0 3 3 6v12q2 8 2 27q2 18 2 55q0 33 -2 51q0 17 -2 25v6q0 1 -1.5 5t-1.5 5q-10 52 -14 64q-2 5 -5 15 t-5 15q-2 2 -2 6q-1 2 -3 7.5t-3 7.5q-1 1 -17 28q-1 2 -4 6.5t-4 6.5q-1 1 -2 3t-2 3q-2 2 -5.5 6t-7 7.5t-7.5 6.5l-11 11q-1 0 -2 1t-2 1q-10 8 -26 14q0 2 -5 2q-8 4 -14 4q-2 1 -5.5 2t-4.5 2h-47q-4 -2 -8 -2q-1 -1 -4.5 -2t-5.5 -2t-3 -2q-1 0 -3 -1t-3 -1l-4 -4 q-4 -2 -12 -10l-2 -4q-13 -18 -17 -27q-2 -5 -7 -15.5t-7 -15.5v-2l-2 -2q-1 -3 -3 -8t-3 -8q-2 -4 -12 -28t-15 -38q-12 -35 -18 -71q-2 3 -4 -42v-3q-6 -8 -6 -20z" />
<glyph unicode="p" d="M53 813q-1 20 14.5 34.5t36.5 14.5q20 0 33.5 -13.5t16.5 -33.5q2 -6 2 -16q64 53 151 53q30 0 62 -6q64 -12 119.5 -52t89.5 -96q65 -111 65 -270q0 -157 -68 -268q-44 -70 -114.5 -116t-149.5 -50q-12 -1 -23 -1q-59 0 -118 25q0 -110 -3 -331.5t-3 -333.5 q0 -22 -14.5 -36.5t-34.5 -14.5q-22 0 -37 14.5t-15 36.5q0 110 3.5 329.5t3.5 327.5q0 54 -2 192q-2 99 -2 166v48q0 23 2 93v73v36q0 14 -5 101q-1 8 -2 25.5t-2 25.5q-2 6 -2 23h-2q0 14 -2 20zM166 328q0 -26 1 -81t1 -81v-6q2 -4 2 -10q2 -2 2 -5q4 -8 8 -12l2 -2 q9 -9 11 -10l4 -4l22 -11q4 -4 10 -4q8 -4 15 -4q8 -4 14 -4q1 0 5.5 -1t6.5 -1h41q1 0 6.5 1t6.5 1q8 2 28 6q2 1 17 6q1 1 3 2.5t3 2.5q18 6 33 18q2 2 10 6l8 8q6 6 22.5 21t24.5 24q2 2 2 5q4 2 8 10q12 16 15 22q2 4 6 13.5t6 13.5q2 2 2 6q1 2 3 7t3 7q14 47 17 64 q1 3 2 9t2 9v6q1 5 2 15.5t2 15.5v68q0 11 -4 35v6q0 2 -1 7t-1 7q-3 17 -17 64q-2 10 -10 30q0 1 -1 2t-1 2q-3 6 -6 15q-2 4 -7.5 13t-7.5 13q-2 2 -4.5 6t-3.5 5t-3 4t-3 4q-15 22 -37 37q-2 0 -6 4q-1 1 -4.5 3.5t-5.5 4.5l-25 12q-1 0 -3 1t-3 1q-8 4 -12 4 q-12 6 -27 9q-2 1 -7 2t-7 2h-47q-8 -2 -23 -7q-3 -1 -7.5 -2t-6.5 -2q-2 0 -2 -2q-8 -2 -23 -12q-1 0 -2 -1t-2 -1q-6 -6 -10 -8q-2 -4 -8 -10l-4 -5q-9 -12 -15 -24l-6 -12q0 -1 -1 -4t-1 -5q-4 -13 -12 -18q2 -49 2 -145q-2 -55 -2 -166z" />
<glyph unicode="q" d="M51 428q0 158 66 270q34 56 89.5 96t119.5 52q32 6 62 6q87 0 151 -53q0 10 2 16q2 20 15 33.5t34 13.5t36.5 -14.5t14.5 -34.5q-2 -6 -2 -20h-2q0 -17 -2 -23q-1 -8 -2 -25.5t-2 -25.5q-4 -70 -4 -101v-36q0 -31 1 -73q1 -70 1 -93v-48q0 -67 -1 -166q-3 -138 -3 -192 q0 -108 3 -327.5t3 -329.5q0 -22 -14.5 -36.5t-36.5 -14.5q-20 0 -35 15t-15 36q0 112 -3 333.5t-3 331.5q-59 -25 -118 -25q-11 0 -23 1q-79 4 -149.5 50t-114.5 116q-68 111 -68 268zM152 391q1 -5 2 -15.5t2 -15.5v-6q1 -3 2 -9t2 -9q4 -25 16 -64q1 -2 3 -7t3 -7 q0 -4 2 -6q2 -4 6.5 -13.5t6.5 -13.5q5 -10 14 -22q4 -8 8 -10q0 -3 2 -5q8 -9 24.5 -24t22.5 -21l8 -8q10 -5 11 -6q16 -13 32 -18q1 -1 3.5 -2.5t3.5 -2.5q12 -4 16 -6q25 -5 29 -6q1 0 6 -1t6 -1h41q2 0 6.5 1t5.5 1q7 0 15 4q6 0 14 4q6 0 10 4q2 0 23 11l4 4l10 10l2 2 q4 4 8 12q0 3 2 5q0 6 2 10v6q0 26 1 81t1 81q0 111 -2 166q0 96 2 145q-8 5 -12 18q0 2 -1 5t-1 4l-6 12q-8 16 -14 24l-5 5q-6 6 -8 10q-4 2 -10 8q-1 0 -2 1t-2 1q-15 10 -23 12l-2 2q-2 1 -7 2t-7 2q-18 6 -22 7h-48q-2 -1 -7 -2t-7 -2q-15 -3 -27 -9q-4 0 -12 -4 q-1 0 -3 -1t-3 -1l-25 -12q-2 -2 -5.5 -4.5t-4.5 -3.5q-4 -4 -6 -4q-22 -15 -37 -37q-1 -1 -3 -4t-3 -4t-3.5 -5t-4.5 -6q-2 -4 -7 -13t-7 -13q-1 -3 -7 -15q0 -1 -1 -2t-1 -2q-8 -20 -10 -30q-12 -39 -16 -64q0 -2 -1 -7t-1 -7v-6q-4 -24 -4 -35v-68z" />
<glyph unicode="r" horiz-adv-x="567" d="M53 41q4 13 8 39q0 2 1 4.5t1 3.5v21l1 43q0 43 -1 43q-4 54 -4 81v91q0 20 -2 30v25v143q0 47 6 94q0 12 3 21v4q0 2 1 7t1 7v19q-8 28 -5 39q7 20 23 30q10 7 24 7q7 0 14 -2q23 -5 32 -23l6 -18q6 -18 6 -41t-6 -52l1 -1l-1 -5q55 65 119 92q53 23 97 23q19 0 36 -4 q72 -17 100 -103q2 -7 2 -13q0 -13 -8 -25q-12 -18 -31 -23q-20 -6 -37.5 4.5t-23.5 30.5l-4 10l-2 4q-1 1 -2 3t-2 3l-9 9q-1 0 -3 1t-3 1q-2 2 -6 2h-2q-9 3 -21 0h-6q-2 -1 -6 -2t-6 -2t-6 -2.5t-6 -2.5q-4 0 -8 -4q-10 -4 -41 -22l-4 -4l-7 -6q-2 -1 -20 -19 q-2 -3 -7 -9t-7 -9q-1 0 -5 -4l-4 -5q-3 -5 -10 -16t-10 -16q-12 -18 -21 -39q-1 -1 -2 -4t-2 -4v-2q-3 -10 -8 -17q-3 -10 -9 -31.5t-9 -31.5q2 -18 2 -52l-1 -46q-1 -46 1 -46q0 -26 4 -84q1 -21 1 -40q0 -87 -15 -132q-6 -16 -24 -26q-13 -7 -26 -7q-6 0 -12 1 q-19 6 -30 24q-7 11 -7 22q0 7 2 13z" />
<glyph unicode="s" horiz-adv-x="505" d="M57 672q13 60 60 98q43 37 100 49q23 5 45 5q34 0 68 -11q55 -17 94 -68q30 -41 30 -92q0 -9 -1 -18q-2 -21 -15.5 -35t-34.5 -14t-36.5 14.5t-14.5 34.5q2 8 2 22q0 3 -2 5v4q0 2 -2 7.5t-2 6.5q-1 1 -3 4t-3 4q0 2 -2 4l-10 10h-2l-6 7q-7 0 -11 4l-6 2q-2 1 -5.5 2 t-4.5 2q-2 0 -5.5 1t-4.5 1h-6q-19 3 -35 0h-6q-1 0 -5 -1t-6 -1l-18 -6q-2 -2 -4 -2q-1 -1 -4 -3t-4 -3q-1 0 -11 -5v-2q-6 -4 -16 -14q-1 -2 -3 -5t-3 -5q-4 -4 -4 -10q-2 0 -2 -2l-6 -25v-31q0 -1 1 -4t1 -4q0 -2 4 -14q2 -5 2 -9q1 -2 4 -7t4 -7t4 -6t4 -6q2 0 2 -2 q4 -6 17 -19q6 -6 41 -36q62 -46 90 -72q53 -49 75 -92q34 -72 39 -138q1 -10 1 -20q0 -65 -40 -115q-44 -51 -151 -59q-15 -1 -28 -1q-32 0 -54 7q-36 11 -66 45q-33 37 -41 74q-6 24 0 51q5 22 23 43q13 16 35.5 15t36.5 -15q14 -17 14 -35q0 -17 -10 -30h-2v-3q2 -2 2 -4 v-4q1 -2 3 -5t3 -5l4 -8q1 0 2 -1t2 -1q7 -10 14 -15l5 -4l8 -4q2 -1 6 -2t6 -2h18q15 0 21 2q6 0 10 2q22 4 35 8q2 1 6 2.5t6 2.5q2 2 10 6l3 2l4 4q6 6 6 10l2 2q1 4 3 11.5t3 11.5v34q0 5 -2 7q-2 21 -14 57l-5 12q-1 1 -2 3t-2 3q-11 22 -12 23q-4 8 -8 12v2h-2 q-4 8 -17 21q-5 4 -13.5 12t-16 14.5t-13.5 10.5q-10 8 -43 34t-48.5 39.5t-36.5 38t-33 49.5q-20 47 -20 95q0 24 5 49z" />
<glyph unicode="t" horiz-adv-x="684" d="M51 776q0 20 14.5 34.5t36.5 14.5h123q1 13 6 76q1 34 3.5 102.5t3.5 102.5q0 99 6 201q8 138 8 186v10q0 20 14.5 34.5t34.5 14.5q21 0 35 -14t16 -35v-28v-43q-2 -36 -5.5 -87t-4.5 -71q-2 -34 -3 -72.5t-1.5 -85.5t-1.5 -72q-4 -136 -8 -204q-2 -4 -2 -15h141 q22 0 36.5 -14.5t14.5 -34.5q0 -22 -14.5 -36.5t-36.5 -14.5h-150q0 -13 -1 -41t-1 -41q-2 -66 -2 -199q0 -150 2 -180q0 -16 2 -22v-11q1 -6 4.5 -18t4.5 -18q4 -14 8 -23l2 -4q0 -4 2 -4q13 -27 20 -35q0 -6 4 -6q3 -6 11 -10q3 -7 8 -9q2 -2 4 -2l18 -12q2 0 5 -1t4 -1 q8 -4 12 -4q2 0 5 -1t5 -1h35q2 1 5.5 2t4.5 2q1 0 4 1t4 1q1 1 3.5 2t3.5 2q2 2 10 6q2 0 2 2q2 1 5 5l3 4q2 2 4 2l6 12q4 4 4 10l7 21q4 20 23 30t38 4q20 -4 30 -22q6 -12 7 -25q0 -7 -2 -14q-9 -48 -42.5 -85t-80.5 -50q-30 -9 -61 -9q-13 -1 -27 1q-46 6 -82 28 q-66 42 -100 131q-25 66 -25 170q0 65 2 195t2 194v23h-115q-22 0 -36.5 14.5t-14.5 36.5z" />
<glyph unicode="u" horiz-adv-x="641" d="M52 476v32q0 51 2 114q2 83 1 123q0 20 15.5 35t35.5 15t35 -15t15 -35q0 -31 -2 -126q-1 -57 -1 -99q0 -28 1 -49q0 -43 4 -137q1 -5 2 -17t2 -18q0 -2 1 -7t1 -7v-6q2 -20 10 -50q4 -20 8 -30l2 -2l6 -13q3 -6 9 -12l2 -2q3 -4 10 -11.5t10 -11.5q2 0 6 -4h2 q2 -2 7.5 -6t7.5 -6q20 -12 30 -16q14 -9 19 -11q2 -1 5 -2t5 -2q23 -8 37 -10q1 0 5 -1t5 -1h29q4 2 16 6h4q1 1 11 6l4 4q4 4 4 5l10 10q0 2 2 2q2 3 6 10t6 10q6 12 7 15l2 2q4 8 8 24q12 40 14 60q2 6 2 16q2 2 2 6t1 13.5t1 13.5q1 12 2.5 34.5t2.5 41t1 34.5 q4 238 4 359q0 22 14.5 36.5t35.5 14.5q22 0 36.5 -14.5t14.5 -36.5q0 -108 -4 -326q-5 -145 -8 -174q-11 -82 -29 -127q-24 -66 -70 -104q-35 -28 -65 -33q-22 -5 -46 -5t-51 5q-78 11 -155 74q-60 47 -80 112q-6 20 -14 66q-10 88 -11 106q-5 58 -5 122z" />
<glyph unicode="v" horiz-adv-x="763" d="M55 725q-2 7 -2 14q1 11 7 23q10 18 30 24q7 2 14 2q12 0 24 -6q18 -10 24 -30q22 -88 63 -187q15 -40 18 -47q1 -3 3.5 -7.5t4 -8t3.5 -6.5v-4q1 -1 6 -11l37 -86q63 -147 78 -190q1 -2 2 -6t2 -6q0 -1 1 -3.5t1 -3.5q6 -12 8 -14q15 -30 18 -35q32 56 54 107 q8 16 10 22l4 8l2 5q2 6 7 19t7 19q8 20 31 86q44 135 100 342q6 20 24.5 30.5t37.5 4.5q20 -4 31 -22q8 -13 8 -27q0 -6 -2 -12t-6 -18.5t-5 -16.5q-58 -220 -115 -378t-147 -296q-12 -16 -30 -20q-6 -1 -11 -1q-13 0 -26 7q-5 0 -9 4q-14 6 -22 29l-4 8q0 1 -1 2t-1 2 q-1 3 -4 9t-4 9q-2 3 -6 10t-7.5 13.5t-7.5 11.5q-32 66 -39 88q-2 9 -8 25t-8 22l-6 19q-1 1 -2 3t-2 3q0 2 -4 10q-6 14 -19.5 43t-19.5 43q-102 229 -142 375z" />
<glyph unicode="w" horiz-adv-x="1320" d="M55 725q-2 7 -2 14q1 11 7 23q10 18 30 24q7 2 14 2q12 0 24 -6q18 -10 24 -30q22 -88 63 -187q15 -40 18 -47q1 -3 3.5 -7.5t4 -8t3.5 -6.5v-4q1 -1 6 -11l37 -86q63 -147 78 -190q1 -2 2 -6t2 -6q0 -1 1 -3.5t1 -3.5q6 -12 8 -14q15 -30 18 -35q32 56 54 107 q8 16 10 22l4 8l2 5q2 6 7 19t7 19q8 20 31 86q44 136 98 334q-3 35 37 49q7 2 14 2q13 0 25 -6q18 -10 23 -30q22 -88 63 -187q8 -21 19 -47q1 -3 4.5 -11t5.5 -11v-4q1 -1 6 -11l37 -86q63 -147 78 -190q1 -2 2 -6t2 -6q0 -1 1 -3.5t1 -3.5q6 -12 8 -14q15 -30 18 -35 q32 56 54 107q8 16 10 22l4 8l2 5q2 6 7 19t7 19q8 20 31 86q44 135 100 342q6 20 24.5 30.5t37.5 4.5q20 -4 31 -22q8 -13 8 -27q0 -6 -2 -12t-6 -18.5t-5 -16.5q-58 -220 -115 -378t-147 -296q-11 -16 -29 -20q-6 -1 -12 -1q-13 0 -26 7q-4 0 -8 4q-15 6 -23 29l-4 8 q0 1 -1 2t-1 2q-1 3 -4 9t-4 9q-2 3 -6 10t-7.5 13.5t-7.5 11.5q-32 66 -39 88q-2 9 -8 25t-8 22l-6 19q-1 1 -2 3t-2 3q0 2 -4 10q-15 36 -39 86q-63 142 -88 209q-97 -347 -228 -549q-12 -16 -30 -20q-6 -1 -11 -1q-13 0 -26 7q-5 0 -9 4q-14 6 -22 29l-4 8q0 1 -1 2t-1 2 q-1 3 -4 9t-4 9q-2 3 -6 10t-7.5 13.5t-7.5 11.5q-32 66 -39 88q-2 9 -8 25t-8 22l-6 19q-1 1 -2 3t-2 3q0 2 -4 10q-6 14 -19.5 43t-19.5 43q-102 229 -142 375z" />
<glyph unicode="x" horiz-adv-x="661" d="M51 47q0 15 15 37l6 6q2 3 5 9.5t5 9.5q16 24 22 36q4 8 19 36t22 42q35 60 101 156q8 14 22 31q-19 26 -51.5 79t-48.5 76q-19 32 -51 80q-5 6 -14.5 19.5t-14.5 19.5l-12 18q-4 4 -4 7l-4 4q-17 20 -17 37t17 34q12 14 34 15h3q20 0 32 -15q43 -54 68 -92 q4 -5 102 -157q4 -6 11.5 -18.5t11.5 -18.5l24 37q90 139 103 157q29 45 67 92q12 15 32 15h3q22 -1 35 -15q16 -16 16 -34t-16 -37l-4 -4q0 -3 -4 -7l-13 -18q-5 -6 -14 -19.5t-14 -19.5q-32 -48 -51 -80q-19 -27 -52.5 -80t-48.5 -75q5 -9 23 -31q59 -86 100 -156 q7 -14 22 -42t19 -36q3 -6 23 -36q2 -3 5 -9.5t5 -9.5l6 -6q14 -21 14 -37q0 -24 -14 -35q-14 -14 -36 -14h-2q-21 0 -34 14q-35 47 -55 86q-9 16 -26.5 48.5t-32 58t-29.5 47.5q-18 29 -51 74l-49 -74q-15 -22 -29.5 -47.5t-32 -58t-26.5 -48.5q-18 -34 -56 -86 q-14 -14 -34 -14h-1q-22 0 -36 14q-15 12 -15 35z" />
<glyph unicode="y" horiz-adv-x="851" d="M55 743q-3 7 -3 14q0 11 7 23q11 19 31 25q8 2 15 2q12 0 23 -7q18 -10 24 -30l18 -49q4 -8 4 -10q1 -2 3 -5.5t3 -5.5q2 -8 10 -24q79 -172 82 -180q1 -3 7 -15l2 -8q1 -2 4 -7t4 -7l18 -43q4 -10 45 -84q7 -13 21.5 -36.5t21.5 -35.5q6 -12 17.5 -33t17.5 -32 q11 -25 37 -68q4 0 4 -4q17 49 39 125q35 119 61 180q5 15 12 30.5t15.5 34.5t13.5 31q0 4 2 6q0 3 4 11q1 3 4.5 10t4.5 10q3 7 8 21.5t8 21.5q13 40 37 90v4q4 8 4 11q1 2 4 8.5t4 11.5q7 22 10 41q4 20 23 30q13 7 26 7q6 0 13 -2q21 -6 30 -23q7 -12 7 -25q0 -7 -2 -14 q-7 -37 -29 -90q-11 -22 -16 -37v-2q-4 -4 -4 -8q-2 -6 -7 -16q-3 -8 -28.5 -73t-40.5 -99q0 -1 -1 -3t-1 -3q-1 -2 -2 -5.5t-2 -5.5q-7 -14 -9 -20q-3 -7 -8 -21.5t-8 -21.5q-4 -15 -12.5 -42.5t-12.5 -41.5q-9 -28 -26.5 -83.5t-26.5 -82.5q-39 -118 -67 -182 q-16 -37 -84 -176q-19 -39 -82 -181q0 -1 -1 -3t-1 -3q-4 -8 -4 -12q-2 -3 -6 -12t-5 -11q-3 -7 -8 -21.5t-8 -21.5q-32 -83 -35 -92q-6 -20 -24 -31q-11 -6 -23 -6q-7 0 -14 2q-19 5 -30.5 23.5t-4.5 38.5q48 141 145 352q61 125 80 166q1 2 4.5 10t5.5 11q0 5 5 10 q0 4 2 6l14 35q1 4 2.5 7.5t3.5 8t4 8.5q-27 20 -63 78q-11 19 -34 63t-36 66q-54 90 -90 166q-2 5 -10 20.5t-11 24.5q-2 5 -6 14.5t-6 14.5q0 6 -4 10v2q-6 15 -19.5 43.5t-19.5 42.5q-55 116 -80 184z" />
<glyph unicode="z" horiz-adv-x="643" d="M51 745q0 22 14.5 37t36.5 15q69 0 210 -1t212 -1q13 3 29 0q21 -4 31 -23q7 -12 6 -25q0 -7 -2 -14q-20 -70 -66 -135q-39 -55 -104 -131q-4 -5 -12.5 -16.5t-12.5 -16.5q-8 -8 -12 -14l-6 -6q-7 -11 -21.5 -32.5t-21.5 -33.5q-18 -31 -72.5 -115.5t-79.5 -132.5 q212 0 316 2q22 0 36.5 -14.5t14.5 -34.5q0 -22 -14.5 -36.5t-36.5 -14.5q-131 -2 -392 -2q-20 0 -34 14q-14 11 -17 25q-5 17 6 39q21 51 76 143q6 10 42.5 69t55.5 89q11 20 46 70q4 7 53 69l49 62q15 15 27 30q1 1 2 3t2 3l2 2q5 5 10 15q30 43 39 61q-59 0 -179.5 1 t-181.5 1q-22 0 -36.5 14.5t-14.5 34.5z" />
<glyph unicode="{" horiz-adv-x="544" d="M51 760q0 22 17 39q16 16 36 16h15q4 4 6 4v2q4 4 8 6q0 2 2 4q0 1 1 2.5t1 2.5q2 3 6.5 10t6.5 10q0 2 1 5t1 5q7 15 10 43l2 6v3q0 8 2 14q0 19 2 29q0 10 1 30.5t1 32.5q-4 82 -6 125q-6 88 -6 180q0 119 14 176q27 107 96 142q49 26 152 26q22 0 36.5 -14.5 t14.5 -36.5q0 -20 -14.5 -34.5t-36.5 -14.5q-31 0 -47 -2h-15q-12 -4 -18 -4q-8 -4 -14 -4q-2 -2 -4 -2q-11 -6 -13 -9l-4 -2q-4 -4 -6 -4q0 -2 -4 -6q-2 -2 -2 -4q-8 -12 -12 -20l-2 -7q-5 -10 -5 -12q-3 -7 -5 -15.5t-4 -18.5l-3 -15v-12q0 -2 -1 -6.5t-1 -6.5 q0 -18 -2 -28v-54q0 -89 6 -178q7 -102 4 -188q-4 -112 -32 -172q-16 -27 -27 -41q12 -15 22 -35q31 -57 39 -170q6 -64 2 -188q-3 -92 0 -181q0 -35 2 -53q0 -16 2 -26q0 -7 3 -13q0 -12 2 -12q3 -26 12 -49q0 -4 4 -12q2 -5 2 -7q1 -2 3.5 -6t4.5 -7t4 -5t2 -4q4 -4 6 -4 q4 -4 5 -4l4 -4l12 -7q1 0 3 -1t3 -1q2 -1 6 -2t6 -2q3 0 10.5 -1t10.5 -1h2q4 -2 12 -2h47q21 0 36.5 -13.5t15.5 -33.5q1 -22 -13.5 -37.5t-36.5 -15.5q-96 -4 -151 22q-70 34 -101 138q-20 69 -20 174q-2 60 2 182q2 41 2 125q-1 10 -2 30.5t-2 30.5q-1 5 -2 15.5 t-2 15.5q0 8 -2 14v9q-11 40 -12 41q0 2 -1 5t-1 5h-3q-3 10 -10 20l-4 4q-2 2 -2 4q-6 6 -8 7v2q-1 0 -3 1t-3 1h-2q-2 2 -4 2q-5 0 -7 -2q-21 -1 -36 14t-17 35z" />
<glyph unicode="|" horiz-adv-x="237" d="M53 20v105l6 405q2 78 2.5 220.5t1.5 187.5q0 33 5 203q0 58 8 168q8 114 8 174v43q0 14 -2 20v15q0 11 -2 23t-5.5 26.5t-4.5 21.5q-6 21 4.5 39t31.5 21q20 6 37 -5t23 -32q18 -64 18 -176q-1 -58 -8 -171.5t-8 -170.5q-2 -77 -2.5 -219t-1.5 -187q0 -77 -3.5 -219.5 t-4.5 -187.5q0 -23 -1.5 -93.5t-0.5 -109.5v-101q0 -8 -1 -23.5t-1 -23.5q0 -14 2 -22v-6l-2 -4q3 -22 -5.5 -39t-29.5 -21q-20 -6 -39.5 5.5t-22.5 31.5q-5 47 -2 102z" />
<glyph unicode="}" horiz-adv-x="544" d="M53 -82q0 20 15 33.5t36 13.5h48q8 0 12 2h2q3 0 10 1t10 1q2 1 6.5 2t6.5 2q1 0 3 1t3 1l12 7l4 4l4 4q2 0 6 4l2 4q3 3 13 18l2 7q4 8 4 12q9 23 12 49q2 0 2 12q2 4 2 13q2 10 2 26q2 18 2 53q3 89 0 181q-4 124 2 188q8 113 39 170q8 17 23 35q-11 14 -27 41 q-29 62 -33 172q-2 75 5 188q6 89 6 178v54q-2 10 -2 28q0 2 -1 6.5t-1 6.5v12q-11 43 -13 49q0 4 -4 12q-2 5 -2 7q-4 8 -12 20q0 2 -2 4q-4 4 -4 6q-2 0 -6 4q-2 2 -4 2q-2 3 -13 9l-4 2q-6 0 -14 4q-7 0 -19 4h-14q-16 2 -47 2q-22 0 -36.5 14.5t-14.5 34.5 q0 22 14.5 36.5t36.5 14.5q102 0 151 -26q70 -36 97 -142q14 -57 14 -176q0 -91 -6 -180q-2 -43 -6 -125q0 -12 1 -32.5t1 -30.5q2 -10 2 -29q2 -6 2 -14v-3l2 -6q3 -28 10 -43q0 -2 1 -5t1 -5q2 -3 6.5 -10t6.5 -10q0 -1 1 -2.5t1 -2.5q2 -2 2 -4q4 -2 8 -6v-2q2 0 6 -4h14 q21 0 37 -16q17 -17 17 -39q-2 -20 -17.5 -35t-36.5 -14q-2 2 -6 2l-4 -2h-2q-1 0 -3 -1t-3 -1v-2q-2 -1 -8 -7l-2 -4l-4 -4q-9 -13 -11 -20h-2q0 -2 -1 -5t-1 -5q-1 -1 -12 -41v-9q-2 -6 -2 -14q-1 -5 -2 -15.5t-2 -15.5q-1 -10 -2 -30.5t-2 -30.5q0 -84 2 -125 q4 -122 2 -182q0 -102 -21 -174q-32 -104 -100 -138q-55 -26 -152 -22q-22 0 -36.5 15.5t-12.5 37.5z" />
<glyph unicode="~" horiz-adv-x="1222" d="M53 674q32 92 111 135q93 52 246 33q117 -17 239 -62q9 -3 56 -19.5t73 -23.5q36 -11 66 -16q3 0 9 -1t9 -1h4q5 -1 15.5 -2t15.5 -2q23 0 33 2h8q1 0 5 1t5 1q22 4 31 8q1 0 3 1t3 1q8 4 10 6q3 1 8.5 4t8.5 4q1 1 5 4.5t5 4.5q10 6 16 16q3 2 15 14q1 1 2 3t2 3 q4 6 12.5 20t13.5 21q14 15 36 14.5t36 -14.5q13 -15 13.5 -34.5t-11.5 -34.5l-4 -4l-6 -13q-8 -12 -12 -16q-20 -29 -35 -39q-20 -26 -72 -49q-109 -47 -283 4q-29 9 -111 37t-128 41q-20 7 -57 14l-31 6h-12l-5 2q-50 5 -61 5q-16 0 -31 -3h-14q-1 0 -5 -1t-5 -1 q-14 -2 -47 -10q-1 -1 -2.5 -1.5l-3 -1t-3.5 -1.5q-4 0 -8 -4q-3 -2 -10 -6t-10 -6q-1 -1 -3 -2t-3 -2t-4.5 -3.5t-4.5 -3.5l-14 -14q0 -4 -6 -10q-4 -8 -8 -12q-4 -8 -4 -13q-2 -2 -2 -6q-8 -19 -25.5 -29t-38.5 -6q-19 6 -30 25t-5 37z" />
<glyph unicode="&#xa1;" horiz-adv-x="249" d="M52.5 384q-0.5 27 0 73.5t6 84.5t15.5 76q4 19 23.5 29.5t39.5 5.5q20 -6 30 -24t5 -37q-9 -30 -12 -57v-7q-2 -4 -2 -14q-2 -10 -2 -27q-4 -77 -2 -116q1 -30 5.5 -109t4.5 -121q0 -76 -3.5 -215.5t-4.5 -183.5q0 -45 3 -129t3.5 -129t-4.5 -129q-2 -21 -15 -36t-34 -15 t-37 15t-15 36q6 63 2 235q-5 106 -2 236q1 39 3.5 132.5t2.5 132t-2 132.5q-1 18 -4.5 76t-4 85zM74 815q7 24 35 45q9 8 24.5 8t24.5 -8q23 -15 28 -35v-6q12 -15 11.5 -35.5t-13.5 -33.5q-13 -11 -30 -19q-12 -4 -35 0q-12 1 -23 10.5t-16 20.5q-14 28 -6 53z" />
<glyph unicode="&#xa2;" d="M53 324q3 84 35 176q27 82 70 145q52 76 126 117.5t154 17.5q26 -6 49 -18q10 15 11 18q11 17 18 37l6 12q0 7 6 13q10 31 11 35q0 3 1 7.5t1 6.5q0 6 2 8q0 21 14 35t35 14t36.5 -14.5t14.5 -34.5q-5 -85 -72 -192q67 -63 62 -125q-2 -21 -15 -35.5t-34 -14.5 q-20 0 -36 15t-16 35v8q0 2 -2 6.5t-2 5.5q0 4 -4 8l-4 4q0 1 -1 2t-1 2q-3 -6 -13.5 -24t-15.5 -27q-4 -6 -8 -18l-2 -2q0 -4 -4 -8q-3 -9 -10 -27t-10 -27q-6 -11 -41 -90q-5 -12 -18.5 -41.5t-20.5 -46.5q0 -8 -4 -8q0 -6 -4 -10q-1 -5 -4.5 -13t-4.5 -10q-3 -7 -8 -21.5 t-8 -21.5l-37 -98q-1 -1 -3 -4t-3 -4q12 -4 16 -4q2 -1 6 -2.5t7.5 -2.5t7.5 -2q6 0 8 -2h55q1 0 4 1t5 1q5 1 14 3.5t14 3.5q2 0 2 2q4 0 6 2q10 5 13 8l6 6q1 1 4 3.5t5.5 5t4.5 5.5q12 15 34 14.5t36 -14.5q15 -15 14.5 -35.5t-14.5 -35.5q-29 -37 -76 -56 q-27 -10 -82 -14q-64 -3 -133 23q-26 -50 -33 -66q-9 -18 -10 -22q-1 -2 -3 -5.5t-3 -5.5v-2q-5 -11 -14 -41q-8 -19 -25 -29t-37 -6q-20 6 -31.5 24.5t-5.5 37.5q22 66 76 164q-40 32 -72 78q-48 75 -45 170zM154 289q0 -1 1 -5t1 -5v-3q1 -3 2 -9t2 -9l6 -18q1 -1 2 -4.5 t2 -4.5q8 -16 20 -34l3 -2l4 -5q2 -4 10 -12l8 -8q1 2 2 5t2 5l2 4q1 2 2 6t2 5q23 67 37 102q11 26 82 188q6 12 21 47q7 14 10 23q4 8 4 10l3 7l-1 -1q11 28 37 74l18 31l-4 2q-12 4 -14 4q-12 6 -25 6h-4h-16h-2q-7 0 -9 -2q-3 -1 -8.5 -2t-7.5 -2q-1 0 -2 -1t-2 -1 q-2 0 -4 -2q-12 -6 -14 -8q-5 -2 -19 -11q0 -1 -1 -2t-1 -2q-2 0 -4 -2q-4 -4 -13.5 -12t-13.5 -12q-2 -2 -6.5 -8t-7.5 -9q0 -2 -4 -6q-17 -21 -21 -28q-12 -20 -32 -66v-4q-4 -4 -4 -8q-4 -11 -9 -19l-12 -37q-14 -41 -20 -84v-2q0 -8 -2 -10v-59z" />
<glyph unicode="&#xa3;" horiz-adv-x="1056" d="M53 768q-1 22 14 37.5t37 15.5q134 4 203 8q0 1 -6 164q-4 131 -2 197q0 65 2 98q4 64 8 96q22 91 78 134q57 48 133 45q81 -4 127 -31q32 -18 52.5 -50t19.5 -67q-7 -48 -49 -51q-22 2 -38.5 16t-13.5 33v12l-4 5l-8 8h-2q-4 4 -6 4q-2 2 -7.5 4t-6.5 2l-2 2q-5 0 -7 2 q-3 1 -8 3t-8 3q-13 4 -20 2q-2 2 -7 2q-16 3 -32 0q-2 -2 -4 -2h-15q-2 -1 -5 -2t-5 -2h-2q-12 -8 -18 -14q-4 -4 -7 -4q-1 -2 -4 -6.5t-4 -6.5l-2 -4q-2 -2 -5 -7t-5 -7q-1 -1 -4 -7q-4 -6 -4 -5q0 -2 -1 -5.5t-1 -5.5q-1 -5 -3 -16t-3 -16q-2 -4 -2 -11v-2q0 -13 -3 -22 q-2 -16 -2 -47q0 -17 -2 -49t-2 -47q0 -65 4 -181.5t5 -158.5q152 12 227 12q21 0 36.5 -13.5t14.5 -33.5q1 -22 -14 -37.5t-35 -13.5q-44 -1 -124 -6.5t-101 -6.5q-1 -59 -5.5 -179t-5.5 -181q-4 -211 -30 -303q46 1 129.5 8.5t119.5 9.5q59 3 167 1.5t169 0.5 q20 0 35 -14.5t17 -34.5q-2 -21 -16 -35.5t-34 -13.5q-52 -2 -170.5 -0.5t-169.5 -1.5q-18 -1 -134 -13t-177 -8q-33 7 -45 27q-12 16 -6 35q25 73 33 137q1 3 2 8t2 8v15q0 4 2 12t2 12q0 11 1 35t1 35q1 24 1 74t1 75q0 22 1 47t2.5 55.5t2.5 47.5q4 90 4 133 q-35 -1 -205 -6q-21 0 -35 13t-16 34z" />
<glyph unicode="&#xa4;" horiz-adv-x="884" d="M51 1184q0 20 15 35q14 14 36 15t35 -15q20 -27 63.5 -73t59.5 -65q17 9 27 11q56 18 155 6q13 -1 37.5 -4t36.5 -4q41 -7 72 -19q8 -4 12 -8q33 38 50 57t48 46t60 42q18 10 38.5 5t30.5 -23q10 -17 5 -38t-23 -30q-4 -3 -12.5 -8t-12.5 -8q-1 -1 -3 -2t-3 -2 q-4 -2 -10 -8q-14 -12 -45 -43l-49 -56l2 -2q63 -96 39 -231q-8 -45 -35 -98q1 -1 2 -3t2 -2l43 -30q37 -26 82 -74q15 -15 15 -36t-15 -34q-13 -15 -34.5 -15t-35.5 15q-6 6 -18.5 17.5t-18.5 17.5q-2 1 -8.5 7t-11.5 8l-8 8q-1 0 -2 1t-2 1q-5 4 -25 18.5t-29 22.5 q-2 -1 -14.5 -10t-19.5 -13q-70 -37 -154 -37q-86 0 -149 31q-26 -35 -97 -106q-14 -13 -35 -13t-34 13q-15 13 -15 34.5t15 36.5q30 30 57 60q10 10 14 16q1 1 3 4t3 4q3 4 5 4q1 1 3 4t3 4q-23 27 -35 56q-16 36 -16 86q-47 104 16 227q7 18 18 29q-3 3 -8 9t-8 9 q-20 24 -33 37q-35 34 -69 78q-15 19 -15 35zM231 852q23 -13 23 -41q-4 -20 -4 -61l2 -15q0 -4 2 -6q0 -3 1 -7.5t1 -6.5q4 -4 4 -10q2 -3 5 -8.5t5 -8.5l9 -8q3 -7 10 -10l6 -6q2 0 4 -2q2 -1 7 -4.5t7 -4.5q1 -1 15 -8q1 0 2 -1t2 -1q19 -8 33 -10q2 -1 7.5 -2t8.5 -2h6 q47 -4 70 0h10q2 1 7.5 2t8.5 2q12 2 31 10q1 0 3 1t3 1h2q10 5 13 8q2 1 7 3t7 3v3q2 0 2 2q13 9 18 18q6 3 9 6q0 2 2 4q15 22 22 39q0 1 1 4t1 4q4 8 4 13q4 8 8 24q0 3 1 8.5t1 8.5v2q3 12 3 24v27q0 8 -3 14v2q-3 27 -12 47q0 4 -2 4q0 7 -4 11q-2 3 -6 10t-6 10 q0 2 -2 2q-16 11 -17 12q-2 2 -5 6.5t-5 6.5t-10 6l-4 4q-2 0 -4.5 1t-3.5 1l-25 6h-4q-3 0 -9.5 1t-9.5 1q-12 2 -36.5 5t-36.5 5q-37 3 -74 0q-6 0 -8 -2q-9 0 -17 -4q-2 0 -7.5 -2t-6.5 -2q-4 -4 -8 -6q-4 0 -8 -4l-21 -20q-1 -1 -2 -3.5t-2 -3.5l-12 -24q-4 -4 -4 -10 q-1 -3 -3 -8.5t-3 -8.5q-4 -12 -4 -18l-3 -15q0 -3 -1 -9t-1 -9z" />
<glyph unicode="&#xa5;" horiz-adv-x="864" d="M53 1501q-1 21 14 36t35 15q23 0 37.5 -15t14.5 -36v-6q2 -2 2 -8q1 -4 2 -11.5t2 -11.5l12 -43q0 -1 29 -90q43 -130 63 -184q7 -20 30 -84t34 -100q9 -30 27.5 -91t27.5 -90q3 -9 8 -27.5t8 -27.5q21 41 33 70q24 50 39 86q1 2 3 7t3 7q2 2 2 4q2 3 8 21q14 33 17 43 q11 29 32 92.5t33 95.5q3 9 41 98q10 19 11 25q2 2 6 10q2 4 2 6q17 40 20 45q6 14 19.5 39.5t19.5 38.5q3 5 8 19q2 2 2 6q4 4 4 8q1 5 4 12t3 8q0 2 1 5.5t1 5.5q3 23 14 34q15 15 37 15q20 0 36 -15t13 -34q-5 -45 -33 -107q-6 -16 -21 -43t-20 -39l-6 -12q0 -2 -2 -2 l-12 -31q-9 -21 -19 -41q-4 -8 -10 -23.5t-10 -23.5v-2q-4 -8 -4 -10q-4 -9 -8 -23q-11 -31 -32.5 -93.5t-33.5 -92.5q-28 -76 -80 -186q-5 -12 -18.5 -41.5t-20.5 -46.5q-5 -7 -8 -17q35 -2 107 -2q21 0 36 -15t15 -36q0 -20 -15.5 -34.5t-35.5 -14.5q-45 0 -131 4v-64 q86 -4 129 -4q20 0 34.5 -14.5t14.5 -34.5t-14.5 -35.5t-34.5 -15.5q-43 0 -129 4q0 -55 2 -82q8 -180 8 -268q0 -22 -14.5 -35.5t-36.5 -13.5q-21 0 -35.5 14t-14.5 35q0 88 -8 268q-2 29 -2 86q-9 0 -27.5 -1t-27.5 -1q-15 0 -47 -4h-6q-1 0 -3.5 -1t-3.5 -1q-8 0 -20 -4 q-22 -3 -39.5 6t-23.5 29q-5 21 5 39t31 22q74 14 162 14v68q-47 2 -143 2q-20 0 -34.5 14.5t-14.5 34.5q0 22 14.5 36.5t34.5 14.5q77 0 114 -2q-21 63 -34 109q-38 130 -56 182q-29 89 -65 184q-10 27 -62 185q-42 112 -49 188z" />
<glyph unicode="&#xa6;" horiz-adv-x="202" d="M51 -123v684q0 20 14.5 34.5t36.5 14.5q20 0 35 -14.5t15 -34.5v-684q0 -20 -15 -34.5t-35 -14.5q-22 0 -36.5 14.5t-14.5 34.5zM51 940v686q0 20 14.5 34.5t36.5 14.5q20 0 35 -14.5t15 -34.5v-686q0 -20 -15 -34.5t-35 -14.5q-22 0 -36.5 14.5t-14.5 34.5z" />
<glyph unicode="&#xa7;" horiz-adv-x="579" d="M55 1436q11 94 60 143q58 64 151 74q98 14 166 -37q17 -12 19.5 -33.5t-9.5 -38.5q-12 -15 -33 -18t-36 10q-10 5 -11 6q-2 0 -2 2q-8 2 -20 6h-2q-4 2 -10 2q-8 2 -25 2h-12q-4 -1 -12 -2t-11 -2q-2 0 -6 -1t-6 -1v-2h-2q-18 -6 -21 -8q-8 -2 -20 -10h-2q-1 -1 -4 -3 t-4 -3q-4 -2 -8 -6q-5 0 -5 -5q-2 -2 -5 -6t-5 -6q-4 -4 -4 -8h-2q-1 -3 -4 -10.5t-4 -10.5q-4 -12 -6 -20v-2q-1 -2 -2 -5t-2 -5q-2 -12 -2 -37v-15v-10q0 -11 4 -35q2 0 2 -4q4 -12 6 -16q11 -33 33 -70l2 -6q1 -1 3 -4t3 -4q2 -3 5 -8t5 -8q18 -22 25 -33q19 -24 55 -68 t47 -57q8 -10 42 -49t52 -62q55 -73 66 -143q15 -101 -29 -164q-48 -70 -178 -70q4 -4 12.5 -13t12.5 -13q7 -9 49.5 -61t58 -73t40 -62.5t36.5 -78.5q29 -85 18 -159q-11 -93 -61 -140q-60 -63 -152 -73q-99 -14 -166 39q-15 12 -17.5 32.5t9.5 34.5q12 17 33.5 19.5 t36.5 -9.5q6 -6 10 -8h2q3 -2 21 -8h2q2 -2 10 -2h22h15q14 0 22 2q2 0 6.5 1t6.5 1q4 2 22 8q18 9 21 11q2 0 2 2q4 0 8 4q1 1 4 3t4 3l4 4q2 2 5 6t5 6q4 4 4 8q3 0 3 2q1 3 4 9.5t4 9.5q2 8 6 20q0 2 2 2q0 9 2 13q1 6 2 18.5t2 18.5v22q-1 6 -3 17.5t-3 17.5v4l-6 18 q-11 33 -33 70q0 1 -1 3t-1 3q-4 4 -6 8q-2 2 -5.5 8.5t-4.5 8.5q-20 25 -23 30q-17 21 -51 63.5t-51 63.5q-11 13 -44 51t-51 60q-52 73 -63 143q-15 102 29 164q48 70 174 70q-12 16 -23 27q-14 18 -51 62.5t-56.5 69t-43.5 65t-37 77.5q-30 84 -19 158zM178 780 q2 -4 2 -12t4 -20v-9l13 -30q7 -14 8 -17q1 -1 2 -3t2 -3q1 -2 4 -6t4 -6q15 4 23 2h73q15 0 39 4q2 2 8 2l13 6q1 0 3 1t3 1q10 5 10 10l6 7q0 1 1 3t1 3q4 8 4 12q5 15 5 20v41q-1 3 -2.5 10.5t-2.5 10.5q0 1 -1 3.5t-1 4.5q-3 13 -12 29q-4 12 -8 16v2q-2 2 -2 4 q-3 3 -8 13q-20 -5 -23 -5q-21 3 -43 3h-31q-9 0 -39 -5q-1 0 -3.5 -1t-4.5 -1l-12 -6q-4 0 -6 -2l-10 -8q-6 -6 -7 -8q0 -1 -1 -3t-1 -3q-4 -4 -4 -11v-2q-4 -12 -4 -20q0 -3 -1 -9.5t-1 -9.5v-8z" />
<glyph unicode="&#xa8;" horiz-adv-x="565" d="M53 1440q-4 21 6 37v4q0 16 15 35q17 23 47.5 27.5t54.5 -9.5q25 -15 36.5 -42t4.5 -54q-6 -28 -30 -48.5t-52 -17.5q-33 3 -53 23q-18 15 -29 45zM348 1440q-6 19 4 37v4q0 16 15 35q18 23 48 27.5t54 -9.5q25 -15 37 -41.5t6 -54.5q-6 -27 -30.5 -48t-51.5 -18 q-32 3 -55 23q-21 21 -27 45z" />
<glyph unicode="&#xaa;" horiz-adv-x="622" d="M66 1358q32 93 108 129q50 20 88 18q46 0 88 -22q28 -17 43 -35v25q0 20 14.5 34.5t36.5 14.5q20 0 35 -14.5t15 -34.5q0 -22 -5 -130q0 -18 -2 -51t-2 -49q2 -4 2 -16v-2q3 0 5 -2h6q8 -2 22 -2q20 0 35.5 -15t15.5 -35t-15.5 -35.5t-35.5 -15.5q-66 0 -102 31 q-5 4 -15 18q-34 -31 -88 -41q-87 -14 -147 21q-71 18 -96 65q-35 60 -6 144zM154 1278q0 -1 1 -4t1 -4q0 -2 2 -2q0 -4 2 -4l6 -7q0 -2 2 -2q4 -4 8 -4q2 -2 6 -2q2 -1 6 -2t5 -2q8 0 10 -2h16q23 0 37 -18h31q2 0 4 2q6 0 10 2q2 0 6 1t6 1q1 1 4.5 2t4.5 2l12 6l2 2 q4 4 4 6l2 2q1 2 3 5.5t3 5.5v2h2q0 2 1 6t1 6q2 2 2 4v33q-1 2 -2 6t-2 6q0 6 -4 14q-1 1 -2 4.5t-2 4.5q-4 8 -6 10l-6 12l-13 12l-8 7q-4 4 -6 4q-1 1 -7 4l-3 2q-4 1 -11.5 3t-11.5 3h-26q-2 -1 -6.5 -2t-6.5 -2q-1 0 -6 -2t-6 -2q-3 -1 -18 -11l-19 -18q-1 -1 -4 -6 t-4 -6q-1 -2 -4 -7.5t-4 -7.5v-2l-4 -8q-4 -12 -4 -16q-4 -8 -4 -17v-20z" />
<glyph unicode="&#xab;" horiz-adv-x="888" d="M57 449q-11 41 0 71q15 37 35 66q41 51 111 114q9 8 34 31t43.5 39t36.5 29q8 7 68 49l6 6l4 2q1 1 7 5.5t8 8.5q18 14 28 27q14 15 35 14.5t35 -14.5q15 -15 14.5 -36t-14.5 -36q-29 -32 -109 -88q-2 -2 -26 -20l-11 -8q-1 -1 -4 -3.5t-4 -3.5q-8 -6 -22 -18.5 t-17 -15.5q-81 -75 -82 -76q-22 -22 -40 -43q-9 -9 -11 -10q-1 -1 -2 -3.5t-2 -3.5l-12 -18q-1 -2 -4 -7t-4 -7q0 -1 -1 -2t-1 -2q-2 -2 -2 -9v-6q0 -4 4 -12v-2q1 -2 4 -7t4 -7q10 -15 14 -23l8 -8q2 -2 5.5 -6t5.5 -6q7 -8 22.5 -25t22.5 -25q17 -17 50.5 -52.5 t51.5 -53.5q79 -83 135 -125q14 -14 13.5 -36t-13.5 -36q-14 -14 -35 -14q-15 0 -36 14q-22 17 -44 36.5t-47 44.5t-38.5 39.5t-44 47t-39.5 41.5q-8 9 -33.5 35t-38.5 41q-55 63 -68 107zM371 449q-11 41 0 71q15 37 35 66q43 54 110 114q7 6 34 31t44.5 40t36.5 28 q12 11 67 49l7 6l4 2l14 14q21 16 29 27q14 15 34.5 14.5t34.5 -14.5q15 -15 14.5 -36t-14.5 -36q-30 -34 -108 -88q-4 -4 -8.5 -7.5t-10 -7t-8.5 -5.5l-10 -8q-1 -1 -4 -3.5t-4 -3.5q-8 -6 -22 -18.5t-17 -15.5q-81 -75 -82 -76q-29 -29 -41 -43l-10 -10q-1 -1 -2 -3.5 t-2 -3.5l-13 -18q-1 -2 -4 -7t-4 -7q0 -1 -1 -2t-1 -2q-2 -2 -2 -9v-6q0 -4 4 -12v-2q1 -2 4 -7t4 -7q14 -21 15 -23l8 -8q2 -2 5 -6t5 -6q7 -8 22.5 -25t22.5 -25q17 -17 50.5 -52.5t51.5 -53.5q77 -80 136 -125q14 -14 13.5 -36t-13.5 -36q-14 -14 -35 -14q-16 0 -37 14 q-22 17 -44 36.5t-47 44.5t-38.5 39.5t-44 47t-39.5 41.5q-8 9 -33.5 35t-38.5 41q-54 62 -67 107z" />
<glyph unicode="&#xac;" horiz-adv-x="921" d="M51 782q0 22 14.5 37t34.5 15h713q21 0 36 -15t15 -37q0 -150 6 -297q1 -20 -14.5 -35.5t-36.5 -15.5t-34 15t-15 36q-6 123 -6 248h-664q-20 0 -34.5 14.5t-14.5 34.5z" />
<glyph unicode="&#xad;" d="M51 469q0 22 14.5 36.5t34.5 14.5h492q22 0 36.5 -14.5t14.5 -36.5q0 -20 -14.5 -34.5t-36.5 -14.5h-492q-20 0 -34.5 14.5t-14.5 34.5z" />
<glyph unicode="&#xaf;" horiz-adv-x="595" d="M51 1528q0 21 15 36t36 15q66 0 197 -2t197 -2q20 0 34.5 -14.5t14.5 -34.5t-14.5 -35.5t-34.5 -15.5q-66 0 -197 2t-197 2q-20 0 -35.5 14.5t-15.5 34.5z" />
<glyph unicode="&#xb0;" horiz-adv-x="434" d="M51 1331q0 82 10 119q9 37 34.5 65t60.5 35q86 21 147 -20q37 -23 55 -60q20 -41 23 -88q7 -111 -25 -182q-17 -39 -51.5 -63t-75.5 -25q-38 -3 -77 16q-31 14 -64 56q0 1 -1 4t-1 4q-18 21 -25 41q-2 4 -8 39q-2 20 -2 59zM152 1282q2 -2 2 -12l2 -4q0 -2 2 -2 q0 -5 4 -9q5 -5 8 -14l6 -6l2 -2l8 -8l2 -2q2 -2 7 -2q4 -4 6 -4l2 -3q2 0 5 -1t5 -1h10q11 0 15 2q1 1 3 2.5t3 2.5q2 0 4 2l2 2l8 8v2q4 4 6 8q0 4 4 8q9 32 11 45v9q2 4 2 12v28q0 34 -2 52q0 5 -3 8q0 2 -1 5.5t-1 4.5q-1 1 -3 5t-3 5l-6 11l-6 6q-2 2 -4 2v2l-12 6 l-2 2h-2q-12 4 -17 4h-6q-8 3 -16 0h-7q-2 0 -6 -1t-6 -1q-4 -4 -6 -4l-4 -4q-4 -8 -6 -10l-2 -4q-1 -5 -3 -14.5t-3 -14.5v-4q0 -3 -1 -8.5t-1 -8.5v-100z" />
<glyph unicode="&#xb1;" horiz-adv-x="796" d="M51 662q0 20 14.5 35.5t34.5 15.5q75 -2 226 2q-7 130 -4 235q2 22 16 36.5t35 14.5t35.5 -15t13.5 -36q-3 -102 4 -231l246 6q22 0 36.5 -14.5t14.5 -36.5q0 -20 -14.5 -34.5t-36.5 -14.5q-47 0 -135 -3.5t-107 -3.5q1 -23 2.5 -64.5t2.5 -75.5t1 -64q0 -21 -15 -36.5 t-36 -15.5q-20 0 -34.5 15.5t-14.5 36.5q0 30 -1 63.5t-2.5 73.5t-2.5 63q-152 -4 -230 -2q-20 0 -34.5 15t-14.5 35zM74 178q0 20 14.5 35.5t34.5 15.5q125 -3 225 2l101 5q123 6 245 6q22 0 36.5 -15t14.5 -37q0 -20 -14.5 -34.5t-36.5 -14.5q-121 0 -241 -6l-101 -4 q-101 -5 -229 -2q-20 0 -34.5 14.5t-14.5 34.5z" />
<glyph unicode="&#xb4;" horiz-adv-x="323" d="M52 1364q0 22 14 37q13 11 37.5 32.5t29.5 26.5q8 10 29 31q0 2 4 6l4 8q1 1 8 15q9 18 31 23t39 -5q37 -21 18 -68q-10 -21 -27 -42t-30.5 -34t-37.5 -34t-34 -31q-15 -14 -35.5 -14.5t-35.5 14.5q-14 13 -14 35z" />
<glyph unicode="&#xb5;" horiz-adv-x="759" d="M61 -281q-18 229 5 621q2 23 2 68v403q0 20 14.5 34.5t34.5 14.5t35.5 -14.5t15.5 -34.5v-274q0 -30 -1 -89.5t-1 -89.5q2 -4 2 -12q-2 -2 -2 -8v-41q2 -12 2 -39q2 -4 2 -16v-2q0 -2 2 -4q4 -26 8 -37q0 -7 4 -15q1 -1 2 -3t2 -3q1 -4 5 -9.5t4 -6.5q1 -1 2 -3t2 -3 l20 -21q9 -6 21 -10q2 -2 6 -2q8 -4 14 -6q9 -4 35 -8q2 -1 8 -2.5t8 -2.5q4 0 6 -2q23 -2 70 -2q13 0 19 2h12q3 1 9 2t9 2q2 2 8 5h3q2 2 14 8l6 6q2 1 6 4t6 4q2 4 8 10q0 2 7 9q6 10 14 26v2q1 1 2 4t2 4q0 7 4 15q0 3 3 15t3 18q2 0 2 6q0 3 1 9t1 9q0 11 4 31v18 q0 10 3 19v6v10v64q0 33 -1 96.5t-1.5 103t2.5 94.5t10 101q3 19 22 29.5t39 5.5q42 -12 35 -62q0 -13 -2 -14q0 -10 -2 -14q0 -6 -1 -18.5t-1 -18.5q-4 -54 -4 -78q-1 -25 4 -152v-153q0 -5 -1 -15.5t-1 -15.5q-4 -44 -8 -72q0 -8 -1 -23.5t-1 -23.5q0 -3 1 -10t1 -10v-2 q0 -4 2 -6q0 -3 4 -15q0 -1 1 -3t1 -3h2q0 -2 2 -2h20q20 0 36 -15.5t16 -35.5q0 -21 -15.5 -34t-36.5 -15q-66 -7 -100 36q0 3 -2 5l-12 -13q-28 -28 -78 -45q-23 -6 -72 -10q-84 0 -147 16q-46 13 -92 47q-6 -179 8 -344q1 -20 -14.5 -35.5t-36.5 -15.5t-34.5 15t-15.5 36 z" />
<glyph unicode="&#xb6;" horiz-adv-x="1323" d="M53 1094q-3 79 10 139q22 111 107 180q80 67 188 95.5t242 35.5q43 3 95.5 3.5t87.5 0t98.5 -2t89.5 -1.5q12 4 16 4q33 0 112 -3.5t122 -2.5q20 1 35.5 -14.5t15.5 -36.5q0 -20 -15.5 -34.5t-35.5 -14.5q-27 -1 -160 4q6 -74 6 -143q0 -74 -6.5 -212t-7.5 -167 q-6 -133 -6 -402q0 -68 3 -204t3 -205v-201q0 -34 3 -101.5t3 -101.5q0 -20 -14.5 -35.5t-34.5 -15.5q-22 0 -37 15t-15 36q0 34 -3 101.5t-3 101.5v201q0 35 -2 102.5t-2 101.5q-3 203 0 406q2 102 15 391q5 158 4 189q0 61 -2 92q0 19 -4 47v4q-78 0 -117 2q6 -74 6 -145 q0 -74 -6.5 -212t-7.5 -167q-7 -155 -7 -402q0 -66 5 -409q0 -133 2 -201q1 -23 2.5 -64t2.5 -75t1 -64q0 -20 -15.5 -35.5t-35.5 -15.5t-35 15.5t-15 35.5q0 30 -1 64t-2.5 75t-2.5 64q-2 68 -2 201q0 68 -4 204q-3 198 0 396q-4 0 -11 -1t-11 -1q-36 -4 -54 -4 q-181 -9 -352 47q-91 27 -141 75q-55 52 -80 125q-24 67 -27 140z" />
<glyph unicode="&#xb7;" horiz-adv-x="251" d="M52 677q0 21 14 36q0 28 24 43q19 13 45.5 12.5t44.5 -18.5q26 -29 19 -74q-3 -18 -13 -27q-6 -12 -12 -14q-13 -13 -27 -17q-21 -7 -41 0q-24 9 -40 25q-14 13 -14 34z" />
<glyph unicode="&#xb8;" horiz-adv-x="395" d="M55 -268q5 19 23.5 30t38.5 5q35 -10 41 -11q6 0 8 -2h8q4 0 12.5 -1t12.5 -1q2 0 6.5 1t7.5 1h2q4 0 16 4q1 0 3.5 1t3.5 1v2q2 0 2 2h2q0 2 1 5t1 4v10q0 6 -2 10q0 2 -2 2q-3 6 -7 10q0 3 -4 7l-12 12q-2 1 -6 4t-6 4q-9 3 -15 6l-2 2q-4 1 -11 3t-11 3h-19 q-21 0 -36 15.5t-15 34.5q0 14 6 26q1 1 2 3t2 3q3 6 9 15q0 2 2 4v2q6 15 12 33q14 40 29 69q10 19 31 24.5t38 -5.5q18 -10 23.5 -30.5t-4.5 -37.5q-5 -5 -8 -14q-2 -2 -2 -8q-12 -30 -13 -33q-4 -8 -4 -13q54 -20 86 -57q32 -40 37 -72q7 -52 -14 -90q-21 -37 -65 -52 t-87 -11t-86 18q-20 6 -30.5 24t-4.5 38z" />
<glyph unicode="&#xba;" horiz-adv-x="507" d="M66 1399q32 93 108 129q50 20 88 18q46 0 88 -22q68 -39 94.5 -120.5t-8.5 -150.5q-37 -70 -121 -84q-87 -14 -147 21q-71 18 -96 65q-35 60 -6 144zM154 1319q0 -1 1 -4t1 -4q0 -2 2 -2q0 -4 2 -4l6 -7q0 -2 2 -2q4 -4 8 -4q2 -2 6 -2q2 -1 6 -2t5 -2q8 0 10 -2h16 q23 0 37 -18h31q2 0 4 2q6 0 10 2q2 0 6 1t6 1q1 1 4.5 2t4.5 2l12 6l2 2q4 4 4 6l2 2q1 2 3 5.5t3 5.5v2h2q0 2 1 6t1 6q2 2 2 4v33q-1 2 -2 6t-2 6q0 6 -4 14q-1 1 -2 4.5t-2 4.5q-4 8 -6 10l-6 12l-13 12l-8 7q-4 4 -6 4q-1 1 -7 4l-3 2q-4 1 -11.5 3t-11.5 3h-26 q-2 -1 -6.5 -2t-6.5 -2q-1 0 -6 -2t-6 -2q-3 -1 -18 -11l-19 -18q-1 -1 -4 -6t-4 -6q-1 -2 -4 -7.5t-4 -7.5v-2l-4 -8q-4 -12 -4 -16q-4 -8 -4 -17v-20z" />
<glyph unicode="&#xbb;" horiz-adv-x="888" d="M53.5 861q-0.5 21 14.5 36q14 14 34.5 14.5t34.5 -14.5q8 -11 29 -27l14 -14q2 0 4 -2l6 -6q60 -42 68 -49q19 -13 36.5 -28t44.5 -40t34 -31q67 -60 110 -114q20 -29 35 -66q11 -30 0 -71q-13 -45 -67 -107q-13 -15 -38.5 -41t-33.5 -35q-9 -9 -39.5 -41.5t-44 -47 t-38.5 -39.5t-47 -44.5t-44 -36.5q-21 -14 -37 -14q-21 0 -35 14q-13 14 -13.5 36t13.5 36q56 42 135 125q17 18 51 53.5t52 52.5q7 8 22.5 25t22.5 25q2 2 5 6t5 6l8 8q1 2 15 23q1 2 4 7t4 7v2q4 8 4 12v6q0 7 -2 9q0 1 -1 2t-1 2q-1 2 -4 7t-4 7l-13 18q-1 1 -2 3.5 t-2 3.5l-10 10q-12 14 -41 43q-1 1 -82 76q-3 3 -17 15.5t-22 18.5q-1 1 -4 3.5t-4 3.5q-8 6 -10 8l-11 7q-11 8 -16 13q-78 54 -108 88q-14 15 -14.5 36zM366.5 861q-0.5 21 14.5 36q14 14 35 14.5t35 -14.5q10 -13 28 -27q2 -4 8 -8.5t7 -5.5q2 0 4 -2l6 -6q55 -38 67 -49 q19 -13 36.5 -28t44.5 -40t34 -31q70 -63 111 -114q18 -25 34 -66q11 -30 0 -71q-13 -45 -67 -107q-13 -15 -38.5 -41t-33.5 -35q-9 -9 -39.5 -41.5t-44 -47t-38.5 -39.5t-47 -44.5t-44 -36.5q-21 -14 -37 -14q-20 0 -34 14q-13 14 -13.5 36t13.5 36q56 42 135 125 q18 18 51.5 53.5t50.5 52.5q7 8 22.5 25t22.5 25q2 2 5 6t5 6l9 8q4 8 14 23q1 2 4 7t4 7v2q4 8 4 12v6q0 7 -2 9q0 1 -1 2t-1 2q-1 2 -4 7t-4 7l-12 18q-1 1 -2 3.5t-2 3.5q-2 1 -11 10q-12 14 -41 43q-1 1 -82 76q-4 3 -17 15.5t-21 18.5q-1 1 -4.5 3.5t-4.5 3.5 q-8 6 -10 8l-11 7q-11 8 -16 13q-78 54 -108 88q-14 15 -14.5 36z" />
<glyph unicode="&#xbc;" horiz-adv-x="1259" d="M53.5 1336q-0.5 21 12.5 36q17 18 58.5 58t70.5 71.5t53 63.5q8 14 28 16t31 -6q22 -11 25 -41q3 -37 3 -53t-3 -52t-4 -51q-2 -34 -1.5 -90t-0.5 -90q-4 -209 4 -313l45 2q21 1 36 -13t17 -36q0 -21 -15 -36.5t-36 -15.5l-215 -6q-20 0 -34.5 13.5t-14.5 33.5 q-1 22 13 38t34 16l67 2q-4 94 -4 139q0 60 4 178q0 19 -1 55t-1 66t2 55q0 13 2 19q-16 -17 -46 -46t-44 -44q-15 -15 -35.5 -16t-35.5 11q-14 15 -14.5 36zM188 -117l7 25q21 85 80.5 246t105.5 268q11 29 20 45l5 10q2 4 2 6q1 3 4 9.5t4 9.5q32 83 35 92q12 33 61 186 q5 16 27.5 84t33.5 105q21 73 58 190q37 127 59 184q22 53 61 172t46 160q3 20 22.5 30.5t38.5 4.5q42 -12 35 -61q0 -9 -4 -25q-7 -36 -111 -332q-19 -50 -59 -186q-33 -114 -57 -191q-10 -36 -32.5 -101t-29.5 -87q-48 -145 -63 -186q-3 -9 -35 -92q-15 -30 -23 -54 l-10 -20q-1 -1 -2 -4.5t-2 -5.5v-3q-38 -90 -96 -253t-84 -252q-6 -20 -24 -30.5t-38 -4.5q-20 4 -30 22t-5 39zM610 383q8 28 18.5 58t27 71.5t22.5 56.5q21 58 31 99q0 6 4 22l2 10v5v45q0 21 15 36t36 15t34 -14.5t15 -36.5q1 -43 -8.5 -92.5t-19 -77t-34 -91 t-30.5 -79.5q8 0 24 -1t23 -1q78 4 119 6h84q4 136 4 200q0 22 14.5 37t34.5 15q22 0 36.5 -15t14.5 -37q0 -66 -4 -198h86q20 0 34.5 -14.5t14.5 -34.5q0 -21 -14.5 -36.5t-34.5 -15.5h-90q-8 -184 -8 -274q0 -20 -14.5 -34.5t-34.5 -14.5t-35.5 14.5t-15.5 34.5 q0 92 8 272q-57 0 -86 -2q-52 -4 -120.5 -3t-117.5 14q-20 6 -30.5 23.5t-4.5 37.5z" />
<glyph unicode="&#xbd;" horiz-adv-x="1183" d="M53.5 1336q-0.5 21 12.5 36q17 18 58.5 58t70.5 71.5t53 63.5q8 14 28 16t31 -6q22 -11 25 -41q3 -37 3 -53t-3 -52t-4 -51q-2 -34 -1.5 -90t-0.5 -90q-4 -209 4 -313l45 2q21 1 36 -13t17 -36q0 -21 -15 -36.5t-36 -15.5l-215 -6q-20 0 -34.5 13.5t-14.5 33.5 q-1 22 13 38t34 16l67 2q-4 94 -4 139q0 60 4 178q0 19 -1 55t-1 66t2 55q0 13 2 19q-16 -17 -46 -46t-44 -44q-15 -15 -35.5 -16t-35.5 11q-14 15 -14.5 36zM188 -117l7 25q21 85 80.5 246t105.5 268q11 29 20 45l5 10q2 4 2 6q1 3 4 9.5t4 9.5q32 83 35 92q12 33 61 186 q5 16 27.5 84t33.5 105q21 73 58 190q37 127 59 184q22 53 61 172t46 160q3 20 22.5 30.5t38.5 4.5q42 -12 35 -61q0 -9 -4 -25q-7 -36 -111 -332q-19 -50 -59 -186q-33 -114 -57 -191q-10 -36 -32.5 -101t-29.5 -87q-48 -145 -63 -186q-3 -9 -35 -92q-15 -30 -23 -54 l-10 -20q-1 -1 -2 -4.5t-2 -5.5v-3q-38 -90 -96 -253t-84 -252q-6 -20 -24 -30.5t-38 -4.5q-20 4 -30 22t-5 39zM684 647q-21 62 21 113q27 37 98 57q49 14 108 14q78 3 133 -43q58 -49 68 -126q16 -98 -18 -183q-27 -69 -86 -164q-62 -102 -97 -151q-25 -39 -51 -68 q31 0 45 2q15 0 42 -1t40 -1q48 -3 94 0q22 0 37 -14.5t15 -34.5q0 -21 -14.5 -34t-37.5 -15q-50 -3 -100 0h-84q-35 -4 -82.5 -2.5t-79.5 16.5q-19 9 -23.5 31t5.5 39q7 16 28 37q33 33 58 65h2q0 2 2 4q1 1 3 4.5t3 4.5q8 12 12 16q4 6 12.5 18.5t12.5 18.5q18 26 48.5 78 t45.5 75q35 63 41 76q1 2 3 6.5t3 6.5v2q1 3 4 9t4 9q9 27 11 39l6 24v11q3 20 0 41v10q-1 2 -2 7t-2 7q-6 22 -8 27v2q-1 1 -2.5 3t-2.5 3l-6 12l-2 2q0 2 -2 2q-4 8 -10 11l-4 4q-2 1 -6 4t-6 4h-2q-3 0 -5 2q-6 0 -14 4h-4h-4h-8h-19h-24q-1 0 -4.5 -1t-4.5 -1h-4 q-26 -3 -49 -12q-2 -1 -6 -2t-6 -2h-2q-6 -3 -21 -13l-6 -6l-2 -4v-2q-2 -2 0 -2q0 -8 2 -12q6 -18 -5 -37t-30 -25q-21 -4 -38 6t-23 29zM776 690z" />
<glyph unicode="&#xbf;" horiz-adv-x="692" d="M55 -313q-14 135 49 288q53 133 181 316q9 13 30 43t35.5 52.5t24.5 45.5q1 1 2 4t2 4q0 1 1 4.5t1 4.5q2 8 6 20q0 6 2 10v6q0 3 1 9.5t1 9.5q5 87 8 106t22.5 29.5t39.5 5.5q42 -12 35 -61v-11q-2 -6 -2 -18q-5 -80 -9 -106q-8 -40 -32 -87q-17 -30 -55 -83.5 t-44 -61.5q-60 -88 -94 -149q-19 -32 -41 -78q-9 -17 -10 -23q-1 -1 -2 -3t-2 -3q0 -4 -2 -6q-2 -6 -7.5 -18.5t-7.5 -18.5q-16 -54 -18 -63q-2 -7 -8 -35q-1 -3 -2 -9.5t-2 -9.5q0 -12 -2 -12q-2 -23 -2 -65q0 -25 2 -37v-6q1 -3 2 -8.5t2 -8.5q3 -16 10 -33q0 -1 1 -3 t1 -3q1 -2 4 -7t4 -7q2 -2 5 -7t5 -7q0 -2 5 -7q12 -12 20 -18q0 -2 4 -6l12 -6q18 -13 27 -17q3 -1 8 -4t8 -4q1 0 3.5 -1t3.5 -1q20 -8 30 -10q13 -4 35 -8q4 0 6 -2h17q15 -3 34 0h9q1 0 5 1t5 1q22 4 31 8q2 2 4 2q2 2 14 8q0 2 4 2v2q2 2 6 5t6 5q9 9 11 13q1 1 2 3 t2 3q8 10 18 31q0 1 1 3t1 3q1 2 3 7t3 7q1 7 4.5 19t4.5 16q0 6 2 8v16q3 18 0 37v13q-2 4 -2 10q-2 11 -11 33q0 1 -1 3t-1 3q-3 9 -8 14q-9 18 -4 39t23 31q17 10 38 4.5t31 -23.5q32 -63 35 -125q6 -77 -27 -157q-36 -80 -98 -115q-73 -36 -147.5 -31.5t-147.5 39.5 q-64 28 -113 90q-40 53 -51 146zM383 854q-24 44 0 82q18 24 45 32t55 -5q22 -15 31 -35q12 -21 8 -56q-6 -22 -26 -32q-11 -18 -29 -21q-34 -3 -55 6q-19 13 -29 29z" />
<glyph unicode="&#xc0;" horiz-adv-x="733" d="M51 39q0 -20 14.5 -33.5t36.5 -13.5q21 0 35.5 13.5t14.5 33.5q0 60 14 256q2 2 4 2q4 0 13.5 1t13.5 1q18 2 55 2q74 0 113 -2q154 -9 200 -8v-103q0 -104 4 -155q2 -22 15 -35.5t34 -13.5t37 14t15 35q-4 44 -4 198v205q0 204 6 406q1 27 5.5 120.5t4 120.5t-3.5 121 q-6 92 -33 180q-29 84 -94 132q-53 40 -139 47q-89 6 -158 -29q-67 -37 -117 -115q-27 -47 -35 -76q-8 -28 -16 -88q-13 -114 -16 -200q-2 -34 -2 -203q-3 -203 0 -406q0 -83 -7 -202q-10 -170 -10 -205zM167 716.5q0 67.5 1 127.5q0 169 2 203q1 28 16 200q0 4 1 12.5 t1 12.5l2 2v8q1 4 4.5 16t4.5 19q2 4 6 16l2 2q0 2 2 4q5 16 18 35q1 2 5 7t6 8v2l4 4l6 6t6.5 7t6.5 6.5t7 6.5q1 1 5.5 4.5t5.5 4.5t4 3t4 3q3 2 8 5t8 5q1 0 3 1t3 1q1 1 3 2t3 2q11 4 29 8q4 0 8 2h17q17 3 34 0h17q2 -2 6 -2q22 -4 31 -8q4 0 6 -2q10 -4 14 -6 q1 -1 8 -4.5t11 -7.5q3 0 10 -7l12 -12q1 -1 2 -3t2 -3q1 -2 4 -6t4 -6q1 -1 4.5 -6.5t4.5 -8.5q0 -2 4 -6v-2q17 -46 22 -80l6 -43q2 -4 2 -10q0 -4 1 -12.5t1 -12.5q5 -78 5 -90q1 -15 -5 -178q-2 -66 -6 -192q-4 -242 -4 -363q-46 -1 -205 8q-109 7 -192 -4v43 q0 45 -0.5 128t-0.5 150.5zM201 1747q-19 47 18 68q17 10 39 4.5t31 -23.5q6 -12 8 -14l4 -8q4 -4 4 -7q25 -25 29 -30q7 -7 30.5 -28.5t36.5 -31.5q13 -15 13 -36t-13 -35q-15 -15 -35.5 -14.5t-35.5 14.5q-10 10 -34 31t-37.5 34t-30.5 34t-27 42z" />
<glyph unicode="&#xc1;" horiz-adv-x="733" d="M51 39q0 35 10 205q7 119 7 202q-3 203 0 406q0 169 2 203q3 86 16 200q8 60 16 88q8 29 35 76q50 78 117 115q69 35 158 29q86 -7 139 -47q65 -48 94 -132q27 -88 33 -180q3 -94 3.5 -121t-4 -120.5t-5.5 -120.5q-6 -203 -6 -406v-205q0 -154 4 -198q1 -21 -15 -35 t-37 -14t-34 13.5t-15 35.5q-4 51 -4 155v103q-46 -1 -200 8q-39 2 -113 2q-37 0 -55 -2q-4 0 -13.5 -1t-13.5 -1l-4 -2q-14 -196 -14 -256q0 -20 -14.5 -33.5t-35.5 -13.5q-22 0 -36.5 13.5t-14.5 33.5zM167 716.5q0 -67.5 0.5 -150.5t0.5 -128v-43q83 11 192 4 q159 -9 205 -8q0 121 4 363q4 126 6 192q6 163 5 178q0 12 -5 90q0 4 -1 12.5t-1 12.5q0 6 -2 10l-6 43q-5 34 -22 80v2q-4 4 -4 6q-1 3 -4.5 8.5t-4.5 6.5q-1 2 -4 6t-4 6q-1 1 -2 3t-2 3l-12 12q-7 7 -10 7q-3 3 -6 5t-7 4l-6 3l-14 6q-2 2 -6 2q-9 4 -31 8q-4 0 -6 2h-17 q-17 3 -34 0h-17q-4 -2 -8 -2q-18 -4 -29 -8q-1 -1 -3 -2t-3 -2q-1 0 -3 -1t-3 -1q-3 -2 -8 -5t-8 -5q-1 -1 -4 -3t-4 -3t-5.5 -4.5t-5.5 -4.5l-8.5 -8.5l-9.5 -9.5l-8 -8l-4 -4v-2q-2 -3 -6 -8t-5 -7q-13 -19 -18 -35q-2 -2 -2 -4l-2 -2q-4 -12 -6 -16q-1 -7 -4.5 -19 t-4.5 -16v-8l-2 -2q0 -4 -1 -12.5t-1 -12.5q-15 -172 -16 -200q-2 -34 -2 -203q-1 -60 -1 -127.5zM368 1641q0 21 13 36q13 11 38 33t30 27q8 10 28 30q0 3 4 7l4 8q4 4 9 14q9 18 30.5 23.5t38.5 -4.5q18 -10 22.5 -30t-3.5 -38q-10 -21 -27 -42t-30.5 -34t-37.5 -34 t-34 -31q-15 -14 -36 -14.5t-36 14.5q-13 14 -13 35z" />
<glyph unicode="&#xc2;" horiz-adv-x="733" d="M51 39q0 35 10 205q7 119 7 202q-3 203 0 406q0 169 2 203q3 86 16 200q8 60 16 88q8 29 35 76q50 78 117 115q69 35 158 29q86 -7 139 -47q65 -48 94 -132q27 -88 33 -180q3 -94 3.5 -121t-4 -120.5t-5.5 -120.5q-6 -203 -6 -406v-205q0 -154 4 -198q1 -21 -15 -35 t-37 -14t-34 13.5t-15 35.5q-4 51 -4 155v103q-46 -1 -200 8q-39 2 -113 2q-37 0 -55 -2q-4 0 -13.5 -1t-13.5 -1l-4 -2q-14 -196 -14 -256q0 -20 -14.5 -33.5t-35.5 -13.5q-22 0 -36.5 13.5t-14.5 33.5zM167 716.5q0 -67.5 0.5 -150.5t0.5 -128v-43q83 11 192 4 q159 -9 205 -8q0 121 4 363q4 126 6 192q6 163 5 178q0 12 -5 90q0 4 -1 12.5t-1 12.5q0 6 -2 10l-6 43q-5 34 -22 80v2q-4 4 -4 6q-1 3 -4.5 8.5t-4.5 6.5q-1 2 -4 6t-4 6q-1 1 -2 3t-2 3l-12 12q-7 7 -10 7q-3 3 -6 5t-7 4l-6 3l-14 6q-2 2 -6 2q-9 4 -31 8q-4 0 -6 2h-17 q-17 3 -34 0h-17q-4 -2 -8 -2q-18 -4 -29 -8q-1 -1 -3 -2t-3 -2q-1 0 -3 -1t-3 -1q-3 -2 -8 -5t-8 -5q-1 -1 -4 -3t-4 -3t-5.5 -4.5t-5.5 -4.5l-8.5 -8.5l-9.5 -9.5l-8 -8l-4 -4v-2q-2 -3 -6 -8t-5 -7q-13 -19 -18 -35q-2 -2 -2 -4l-2 -2q-4 -12 -6 -16q-1 -7 -4.5 -19 t-4.5 -16v-8l-2 -2q0 -4 -1 -12.5t-1 -12.5q-15 -172 -16 -200q-2 -34 -2 -203q-1 -60 -1 -127.5zM173 1628q0 22 15 35q14 14 51 49t62.5 62t46.5 53q6 6 10 8q22 14 41 6q48 -13 105 -78q7 -8 22 -28.5t27 -34.5t25 -25q15 -14 14.5 -34.5t-14.5 -34.5q-15 -15 -35 -14.5 t-35 14.5q-10 8 -21 19t-17 18.5t-18 23.5t-16 21q-24 28 -39 43q-19 -22 -42.5 -45t-52 -50t-44.5 -43q-15 -15 -35.5 -15t-34.5 15q-15 13 -15 35z" />
<glyph unicode="&#xc3;" horiz-adv-x="733" d="M51 39q0 35 10 205q7 119 7 202q-3 203 0 406q0 169 2 203q3 86 16 200q8 60 16 88q8 29 35 76q50 78 117 115q69 35 158 29q86 -7 139 -47q65 -48 94 -132q27 -88 33 -180q3 -94 3.5 -121t-4 -120.5t-5.5 -120.5q-6 -203 -6 -406v-205q0 -154 4 -198q1 -21 -15 -35 t-37 -14t-34 13.5t-15 35.5q-4 51 -4 155v103q-46 -1 -200 8q-39 2 -113 2q-37 0 -55 -2q-4 0 -13.5 -1t-13.5 -1l-4 -2q-14 -196 -14 -256q0 -20 -14.5 -33.5t-35.5 -13.5q-22 0 -36.5 13.5t-14.5 33.5zM159 1623q-5 20 5 38q30 66 86 74q35 4 98 -15q30 -11 49 -16 q7 -4 25 -8q6 0 8 -2h19q4 2 8 2q1 1 5 3t5 3l6 4l14 14q14 15 36 14.5t36 -14.5q15 -15 14.5 -35t-14.5 -34q-52 -55 -113 -58q-33 -2 -102 23q-5 2 -20.5 7t-24.5 7q-3 1 -10 3t-10 3h-11l-2 -2q-1 0 -2 -1t-2 -1q0 -1 -1 -2t-1 -2q-2 -3 -5 -9t-5 -9q-9 -18 -30 -23 t-38 6q-18 10 -23 30zM167 716.5q0 -67.5 0.5 -150.5t0.5 -128v-43q83 11 192 4q159 -9 205 -8q0 121 4 363q4 126 6 192q6 163 5 178q0 12 -5 90q0 4 -1 12.5t-1 12.5q0 6 -2 10l-6 43q-5 34 -22 80v2q-4 4 -4 6q-1 3 -4.5 8.5t-4.5 6.5q-1 2 -4 6t-4 6q-1 1 -2 3t-2 3 l-12 12q-7 7 -10 7q-3 3 -6 5t-7 4l-6 3l-14 6q-2 2 -6 2q-9 4 -31 8q-4 0 -6 2h-17q-17 3 -34 0h-17q-4 -2 -8 -2q-18 -4 -29 -8q-1 -1 -3 -2t-3 -2q-1 0 -3 -1t-3 -1q-3 -2 -8 -5t-8 -5q-1 -1 -4 -3t-4 -3t-5.5 -4.5t-5.5 -4.5l-8.5 -8.5l-9.5 -9.5l-8 -8l-4 -4v-2 q-2 -3 -6 -8t-5 -7q-13 -19 -18 -35q-2 -2 -2 -4l-2 -2q-4 -12 -6 -16q-1 -7 -4.5 -19t-4.5 -16v-8l-2 -2q0 -4 -1 -12.5t-1 -12.5q-15 -172 -16 -200q-2 -34 -2 -203q-1 -60 -1 -127.5z" />
<glyph unicode="&#xc4;" horiz-adv-x="733" d="M51 39q0 35 10 205q7 119 7 202q-3 203 0 406q0 169 2 203q3 86 16 200q8 60 16 88q8 29 35 76q50 78 117 115q69 35 158 29q86 -7 139 -47q65 -48 94 -132q27 -88 33 -180q3 -94 3.5 -121t-4 -120.5t-5.5 -120.5q-6 -203 -6 -406v-205q0 -154 4 -198q1 -21 -15 -35 t-37 -14t-34 13.5t-15 35.5q-4 51 -4 155v103q-46 -1 -200 8q-39 2 -113 2q-37 0 -55 -2q-4 0 -13.5 -1t-13.5 -1l-4 -2q-14 -196 -14 -256q0 -20 -14.5 -33.5t-35.5 -13.5q-22 0 -36.5 13.5t-14.5 33.5zM145 1642q-3 20 7 37v4q0 17 14 35q17 23 47.5 28t54.5 -9 q25 -15 36.5 -42.5t4.5 -54.5q-6 -28 -30 -48t-52 -17q-34 3 -53 22q-18 15 -29 45zM167 716.5q0 -67.5 0.5 -150.5t0.5 -128v-43q83 11 192 4q159 -9 205 -8q0 121 4 363q4 126 6 192q6 163 5 178q0 12 -5 90q0 4 -1 12.5t-1 12.5q0 6 -2 10l-6 43q-5 34 -22 80v2 q-4 4 -4 6q-1 3 -4.5 8.5t-4.5 6.5q-1 2 -4 6t-4 6q-1 1 -2 3t-2 3l-12 12q-7 7 -10 7q-3 3 -6 5t-7 4l-6 3l-14 6q-2 2 -6 2q-9 4 -31 8q-4 0 -6 2h-17q-17 3 -34 0h-17q-4 -2 -8 -2q-18 -4 -29 -8q-1 -1 -3 -2t-3 -2q-1 0 -3 -1t-3 -1q-3 -2 -8 -5t-8 -5q-1 -1 -4 -3 t-4 -3t-5.5 -4.5t-5.5 -4.5l-8.5 -8.5l-9.5 -9.5l-8 -8l-4 -4v-2q-2 -3 -6 -8t-5 -7q-13 -19 -18 -35q-2 -2 -2 -4l-2 -2q-4 -12 -6 -16q-1 -7 -4.5 -19t-4.5 -16v-8l-2 -2q0 -4 -1 -12.5t-1 -12.5q-15 -172 -16 -200q-2 -34 -2 -203q-1 -60 -1 -127.5zM440 1642q-6 19 4 37 v4q0 16 15 35q18 23 48 28t54 -9q25 -15 37 -42t6 -55q-6 -27 -30.5 -47.5t-51.5 -17.5q-33 3 -55 22q-21 21 -27 45z" />
<glyph unicode="&#xc5;" horiz-adv-x="733" d="M51 39q0 35 10 205q7 119 7 202q-3 203 0 406q0 169 2 203q3 86 16 200q8 60 16 88q8 29 35 76q50 78 117 115q69 35 158 29q86 -7 139 -47q65 -48 94 -132q27 -88 33 -180q3 -94 3.5 -121t-4 -120.5t-5.5 -120.5q-6 -203 -6 -406v-205q0 -154 4 -198q1 -21 -15 -35 t-37 -14t-34 13.5t-15 35.5q-4 51 -4 155v103q-46 -1 -200 8q-39 2 -113 2q-37 0 -55 -2q-4 0 -13.5 -1t-13.5 -1l-4 -2q-14 -196 -14 -256q0 -20 -14.5 -33.5t-35.5 -13.5q-22 0 -36.5 13.5t-14.5 33.5zM167 716.5q0 -67.5 0.5 -150.5t0.5 -128v-43q83 11 192 4 q159 -9 205 -8q0 121 4 363q4 126 6 192q6 163 5 178q0 12 -5 90q0 4 -1 12.5t-1 12.5q0 6 -2 10l-6 43q-5 34 -22 80v2q-4 4 -4 6q-1 3 -4.5 8.5t-4.5 6.5q-1 2 -4 6t-4 6q-1 1 -2 3t-2 3l-12 12q-7 7 -10 7q-3 3 -6 5t-7 4l-6 3l-14 6q-2 2 -6 2q-9 4 -31 8q-4 0 -6 2h-17 q-17 3 -34 0h-17q-4 -2 -8 -2q-18 -4 -29 -8q-1 -1 -3 -2t-3 -2q-1 0 -3 -1t-3 -1q-3 -2 -8 -5t-8 -5q-1 -1 -4 -3t-4 -3t-5.5 -4.5t-5.5 -4.5l-8.5 -8.5l-9.5 -9.5l-8 -8l-4 -4v-2q-2 -3 -6 -8t-5 -7q-13 -19 -18 -35q-2 -2 -2 -4l-2 -2q-4 -12 -6 -16q-1 -7 -4.5 -19 t-4.5 -16v-8l-2 -2q0 -4 -1 -12.5t-1 -12.5q-15 -172 -16 -200q-2 -34 -2 -203q-1 -60 -1 -127.5zM248 1788q18 35 67 55q35 13 86 6q51 -12 78 -53q20 -28 23 -70q5 -26 -10 -63q-10 -24 -33.5 -41.5t-48.5 -22.5q-58 -13 -105 11q-24 12 -39.5 34t-15.5 46v2q-30 48 -2 96 zM336 1741q2 -2 6 -10q11 -14 8 -31q2 0 2 -2q1 0 6 -1t7 -1q2 -2 4 -2h8q2 1 6 2t6 2h4l2 2l2 2q2 0 2 2l2 2v2q2 0 2 4v8q-1 2 -2 6.5t-2 6.5v2q-1 1 -2 3t-2 3q0 4 -4 4q-1 1 -3 2t-3 2q-2 0 -4 2h-21q-2 0 -5 -1t-5 -1l-4 -2q-1 0 -2 -1t-2 -1q-2 0 -6 -4z" />
<glyph unicode="&#xc7;" horiz-adv-x="708" d="M57 545q-10 212 4 395q3 53 21 205q16 110 33 164q33 97 92 159q26 32 61 52q42 20 82 28q90 14 156 -24q80 -46 90 -140q3 -21 -11.5 -36t-35.5 -17q-21 -1 -35.5 13t-17.5 36v6q0 7 -4 15q-3 3 -3 4q-1 2 -3 5t-3 5q0 1 -1 2t-1 2q-2 1 -5 3t-5 3q0 2 -2.5 4.5 t-3.5 2.5q-1 1 -3 2t-3 2q-12 6 -15 8h-4q-4 0 -12 2t-12 2q-2 2 -10 2h-7q-20 0 -30 -2h-9q-15 -5 -16 -6q-3 -1 -8 -2t-8 -2q0 -2 -2 -2q-19 -11 -31 -21l-4 -4q-2 -2 -7.5 -6t-7.5 -6t-5.5 -7t-6.5 -8q-2 -4 -6 -8q0 -2 -2 -2q-1 -2 -8.5 -15t-9.5 -20q-14 -21 -19 -41 q-4 -4 -4 -8q-4 -6 -8 -18q-20 -77 -29 -170q-2 -17 -6 -48.5t-6 -47.5q0 -19 -2 -29q0 -2 -1 -5.5t-1 -4.5v-4q0 -16 -4 -48q-9 -150 2 -393q9 -149 16 -190q1 -4 2 -11.5t2 -11.5l2 -2q0 -6 2 -10q4 -23 9 -41q9 -44 26 -82q0 -1 1 -4t1 -4l2 -2q1 -3 4 -8.5t4 -8.5 q1 0 5 -4q8 -8 14 -10l6 -6q1 -1 5.5 -4t8.5 -4q4 -5 15 -8q5 -5 12 -5q12 -5 35.5 -11t27.5 -7q14 -4 21 -2q1 0 3 -1t3 -1h35q4 4 8 4q6 0 14 4l13 4q0 1 6 4q8 8 14 11q4 4 6 4q2 2 11 9.5t12 12.5q2 7 10 15v2l4 4q13 17 15 28q2 3 5 8.5t5 8.5l4 12q4 11 8 29 q6 19 22.5 29.5t36.5 7.5q21 -4 32.5 -22.5t6.5 -37.5q-29 -113 -96 -172q-47 -44 -88 -51q-41 -12 -78 -12v-6q-6 -15 -12 -33q-4 -8 -4 -13q54 -20 86 -57q32 -40 37 -72q7 -51 -15 -90q-21 -37 -65 -52t-86.5 -11t-85.5 18q-20 6 -30.5 24t-4.5 38q5 19 23 30t38 5 q35 -10 41 -11q7 0 9 -2h8q4 0 12 -1t12 -1q2 0 7 1t8 1h2q4 0 16 4q1 0 3 1t3 1v2q2 0 2 2h2q0 2 1 5t1 4v10q0 6 -2 10q0 2 -2 2q-4 8 -6 10q0 3 -4 7l-12 12q-2 1 -6.5 4t-6.5 4q-6 2 -14 6l-2 2q-4 1 -11 3t-11 3h-19q-21 0 -36 15.5t-15 34.5q0 14 6 26q1 1 2 3t2 3 q6 12 8 15q0 2 2 4v2q12 30 13 33q3 12 6 18l-2 2q-6 2 -25 8t-30.5 11.5t-20.5 13.5q-32 13 -65 55q-23 36 -37 80q-45 139 -56 375z" />
<glyph unicode="&#xc8;" d="M53 446q1 -39 9.5 -113t9.5 -85q10 -85 10 -207q0 -21 14 -35t35 -14q3 0 8 1t8 1q82 -2 234 3t211 5q21 0 36 15t15 36q0 20 -14.5 34.5t-36.5 14.5q-62 0 -199.5 -5.5t-210.5 -4.5q-4 96 -8 144q-1 9 -9 84t-9 114q-2 34 -2 203q0 21 1 65.5t1 65.5q25 0 75 -1t81 -1.5 t74 2.5t79 10q20 3 30.5 23t4.5 39q-4 21 -22.5 30t-39.5 4q-3 0 -8 -1t-8 -1q-2 -2 -8 -2q-12 -2 -35 -2q-25 -2 -74 -2q-25 0 -74 1t-73 1q4 118 4 176v191q0 15 3.5 43t4.5 37q8 74 8 110v29q40 1 135.5 5t136 4t136.5 -7q20 -1 34.5 15t14.5 36q0 21 -14 34t-35 15 q-99 8 -156 7t-155.5 -5.5t-155.5 -3.5q-13 0 -19 -4q-26 -7 -34 -22t-5.5 -34.5t15.5 -29.5v-8q2 -8 2 -24q0 -37 -8 -111q-1 -15 -4.5 -42.5t-4.5 -41.5v-80v-100q0 -78 -3.5 -221t-4.5 -187v-203zM180 1739q-18 46 19 67q17 10 38.5 5t30.5 -23q6 -12 8 -14q1 -2 2 -3.5 l2 -3t1 -2.5q4 -4 4 -6q20 -20 28 -30q5 -5 30 -27t38 -33q13 -15 13 -37t-13 -35q-15 -15 -36 -14.5t-36 14.5q-10 9 -34 31t-37.5 35t-30.5 34t-27 42z" />
<glyph unicode="&#xc9;" d="M53 446v203q1 44 4.5 187t3.5 221v100v80q1 14 4.5 41.5t4.5 42.5q8 74 8 111q0 16 -2 24v8q-13 10 -15.5 29.5t5.5 34.5t34 22q6 4 19 4q57 -1 155.5 3.5t155.5 5.5t156 -7q21 -2 35 -15t14 -34q0 -20 -14.5 -36t-34.5 -15q-96 7 -136.5 7t-136 -4t-135.5 -5v-29 q0 -36 -8 -110q-1 -9 -4.5 -37t-3.5 -43v-191q0 -58 -4 -176q24 0 73 -1t74 -1q49 0 74 2q23 0 35 2q6 0 8 2q3 0 8 1t8 1q21 5 39.5 -4t22.5 -30q6 -19 -4.5 -39t-30.5 -23q-46 -9 -93 -11.5t-123 -0.5t-93 2q0 -21 -1 -65.5t-1 -65.5q0 -169 2 -203q1 -29 4 -62t7.5 -72.5 t6.5 -63.5q4 -48 8 -144q73 -1 210.5 4.5t199.5 5.5q22 0 36.5 -14.5t14.5 -34.5q0 -21 -15 -36t-36 -15q-59 0 -211 -5t-234 -3q-3 0 -8 -1t-8 -1q-21 0 -35 14t-14 35q0 122 -10 207q-1 11 -9.5 85t-9.5 113zM280 1643q0 21 13 36q13 10 36.5 31.5t30.5 28.5q4 5 29 30 q0 3 4 7l4 8q4 4 9 14q9 18 30.5 23.5t38.5 -4.5q18 -10 22.5 -30t-3.5 -38q-10 -21 -27 -42t-30.5 -34t-37.5 -34t-34 -31q-15 -14 -36 -14.5t-36 14.5q-13 14 -13 35z" />
<glyph unicode="&#xca;" d="M53 446v203q1 44 4.5 187t3.5 221v100v80q1 14 4.5 41.5t4.5 42.5q8 74 8 111q0 16 -2 24v8q-13 10 -15.5 29.5t5.5 34.5t34 22q6 4 19 4q57 -1 155.5 3.5t155.5 5.5t156 -7q21 -2 35 -15t14 -34q0 -20 -14.5 -36t-34.5 -15q-96 7 -136.5 7t-136 -4t-135.5 -5v-29 q0 -36 -8 -110q-1 -9 -4.5 -37t-3.5 -43v-191q0 -58 -4 -176q24 0 73 -1t74 -1q49 0 74 2q23 0 35 2q6 0 8 2q3 0 8 1t8 1q21 5 39.5 -4t22.5 -30q6 -19 -4.5 -39t-30.5 -23q-46 -9 -93 -11.5t-123 -0.5t-93 2q0 -21 -1 -65.5t-1 -65.5q0 -169 2 -203q1 -29 4 -62t7.5 -72.5 t6.5 -63.5q4 -48 8 -144q73 -1 210.5 4.5t199.5 5.5q22 0 36.5 -14.5t14.5 -34.5q0 -21 -15 -36t-36 -15q-59 0 -211 -5t-234 -3q-3 0 -8 -1t-8 -1q-21 0 -35 14t-14 35q0 122 -10 207q-1 11 -9.5 85t-9.5 113zM137 1630q0 22 15 35q12 12 50 48.5t63 62.5t46 53q5 5 11 8 q21 14 40 6q48 -13 105 -78q7 -8 22 -28.5t27 -34.5t25 -25q15 -14 14.5 -34.5t-14.5 -34.5q-15 -15 -35 -14.5t-35 14.5q-10 8 -21 19t-17 18.5t-18 23.5t-16 21q-24 28 -39 43q-19 -22 -42.5 -45t-52 -50t-44.5 -43q-15 -15 -35 -15t-34 15q-15 13 -15 35z" />
<glyph unicode="&#xcb;" d="M53 446v203q1 44 4.5 187t3.5 221v100v80q1 14 4.5 41.5t4.5 42.5q8 74 8 111q0 16 -2 24v8q-13 10 -15.5 29.5t5.5 34.5t34 22q6 4 19 4q57 -1 155.5 3.5t155.5 5.5t156 -7q21 -2 35 -15t14 -34q0 -20 -14.5 -36t-34.5 -15q-96 7 -136.5 7t-136 -4t-135.5 -5v-29 q0 -36 -8 -110q-1 -9 -4.5 -37t-3.5 -43v-191q0 -58 -4 -176q24 0 73 -1t74 -1q49 0 74 2q23 0 35 2q6 0 8 2q3 0 8 1t8 1q21 5 39.5 -4t22.5 -30q6 -19 -4.5 -39t-30.5 -23q-46 -9 -93 -11.5t-123 -0.5t-93 2q0 -21 -1 -65.5t-1 -65.5q0 -169 2 -203q1 -29 4 -62t7.5 -72.5 t6.5 -63.5q4 -48 8 -144q73 -1 210.5 4.5t199.5 5.5q22 0 36.5 -14.5t14.5 -34.5q0 -21 -15 -36t-36 -15q-59 0 -211 -5t-234 -3q-3 0 -8 -1t-8 -1q-21 0 -35 14t-14 35q0 122 -10 207q-1 11 -9.5 85t-9.5 113zM115 1663q-4 21 6 37v4q0 18 14 35q17 23 48 27.5t55 -9.5 q25 -15 36.5 -42t4.5 -54q-6 -28 -30 -48.5t-52 -17.5q-34 3 -54 23q-16 14 -28 45zM410 1663q-6 19 4 37v4q0 18 14 35q18 23 48 27.5t54 -9.5q25 -15 37 -41.5t6 -54.5q-6 -27 -30 -48t-51 -18q-33 3 -56 23q-20 20 -26 45z" />
<glyph unicode="&#xcc;" horiz-adv-x="530" d="M51 1518q0 -20 14.5 -35t36.5 -15q18 0 131 5q0 -2 1.5 -7t1.5 -8q1 -4 2 -11t2 -11q0 -1 1 -5t1 -6v-10q4 -30 8 -86q5 -153 4 -184q0 -31 -1 -92t-1 -92q-1 -33 -1 -98.5t-1 -96.5q-1 -59 -4 -177.5t-4 -178.5v-330q-20 0 -60 -1t-59 -1q-22 0 -36.5 -14.5t-14.5 -34.5 q0 -22 14.5 -35.5t36.5 -13.5q51 0 153.5 4t153.5 4q20 0 34.5 13.5t14.5 33.5q0 22 -14.5 36.5t-34.5 14.5q-59 0 -88 -2v371q1 67 5 201.5t5 201.5q0 37 1.5 152.5t0.5 177.5q0 173 -20 293q31 2 92 2q22 0 36.5 14.5t14.5 36.5q0 20 -14.5 34.5t-36.5 14.5q-54 0 -162 -7 t-162 -7q-22 0 -36.5 -14.5t-14.5 -36.5zM100.5 1797q4.5 20 22.5 30q17 10 39 4.5t31 -23.5q6 -12 8 -14l4 -8q4 -4 4 -6q21 -21 29 -31q5 -5 29.5 -26.5t37.5 -32.5q13 -15 13 -36.5t-13 -35.5q-15 -15 -36 -14.5t-36 14.5q-10 10 -34 31t-37.5 34t-30.5 34t-27 42 q-8 18 -3.5 38z" />
<glyph unicode="&#xcd;" horiz-adv-x="530" d="M51 1518q0 22 14.5 36.5t36.5 14.5q54 0 162 7t162 7q22 0 36.5 -14.5t14.5 -34.5q0 -22 -14.5 -36.5t-36.5 -14.5q-61 0 -92 -2q20 -120 20 -293q1 -62 -0.5 -177.5t-1.5 -152.5q-1 -67 -5 -201.5t-5 -201.5v-371q29 2 88 2q20 0 34.5 -14.5t14.5 -36.5 q0 -20 -14.5 -33.5t-34.5 -13.5q-51 0 -153.5 -4t-153.5 -4q-22 0 -36.5 13.5t-14.5 35.5q0 20 14.5 34.5t36.5 14.5q19 0 59 1t60 1v330q1 60 4 178.5t4 177.5q1 31 1 96.5t1 98.5q0 31 1 92t1 92q1 31 -4 184q-4 56 -8 86v10q0 2 -1 6t-1 5q-1 4 -2 11t-2 11q0 3 -1.5 8 t-1.5 7q-112 -5 -131 -5q-22 0 -36.5 15t-14.5 35zM214 1657.5q0 21.5 13 36.5q1 1 68 59q8 10 29 31q0 2 4 6l4 8q2 2 8 14q9 18 31 23.5t39 -4.5q37 -21 18 -68q-10 -21 -27 -42t-30.5 -34t-37.5 -34t-34 -31q-15 -14 -36 -14.5t-36 14.5q-13 14 -13 35.5z" />
<glyph unicode="&#xce;" horiz-adv-x="530" d="M51 1518q0 22 14.5 36.5t36.5 14.5q54 0 162 7t162 7q22 0 36.5 -14.5t14.5 -34.5q0 -22 -14.5 -36.5t-36.5 -14.5q-61 0 -92 -2q20 -120 20 -293q1 -62 -0.5 -177.5t-1.5 -152.5q-1 -67 -5 -201.5t-5 -201.5v-371q29 2 88 2q20 0 34.5 -14.5t14.5 -36.5 q0 -20 -14.5 -33.5t-34.5 -13.5q-51 0 -153.5 -4t-153.5 -4q-22 0 -36.5 13.5t-14.5 35.5q0 20 14.5 34.5t36.5 14.5q19 0 59 1t60 1v330q1 60 4 178.5t4 177.5q1 31 1 96.5t1 98.5q0 31 1 92t1 92q1 31 -4 184q-4 56 -8 86v10q0 2 -1 6t-1 5q-1 4 -2 11t-2 11q0 3 -1.5 8 t-1.5 7q-112 -5 -131 -5q-22 0 -36.5 15t-14.5 35zM55 1657q0 21 15 35q14 14 50.5 49t62 61t46.5 53q7 7 11 9q22 14 41 6q47 -13 104 -78q7 -8 22 -28.5t27 -34.5t25 -25q15 -14 14.5 -35t-14.5 -35q-15 -15 -35 -14.5t-35 14.5q-10 8 -21 19t-17 18.5t-18 23.5t-16 21 q-30 35 -38 43q-25 -29 -76.5 -77t-63.5 -60q-15 -15 -35 -15t-34 15q-15 14 -15 35z" />
<glyph unicode="&#xcf;" horiz-adv-x="565" d="M53 1677q-4 21 6 37v4q0 16 15 35q17 23 47.5 28t54.5 -9q25 -15 36.5 -42.5t4.5 -54.5q-6 -28 -30 -48t-52 -17q-34 3 -53 22q-18 15 -29 45zM72 1518q0 22 14.5 36.5t36.5 14.5q55 0 162 7t161 7q22 0 37 -14.5t15 -34.5q0 -22 -15 -36.5t-37 -14.5q-61 0 -92 -2 q21 -126 21 -293q1 -62 -0.5 -177.5t-1.5 -152.5q-1 -67 -5.5 -201.5t-5.5 -201.5v-371q29 2 89 2q20 0 34.5 -14.5t14.5 -36.5q0 -20 -14.5 -33.5t-34.5 -13.5q-51 0 -154 -4t-154 -4q-22 0 -36.5 13.5t-14.5 35.5q0 20 14.5 34.5t36.5 14.5q19 0 59 1t60 1v330q1 60 4 178 t4 178q1 31 1 96.5t1 98.5q0 31 1 92t1 92q1 31 -4 184q-4 56 -8 86v10q0 2 -1 6t-1 5q-1 4 -2 11t-2 11q0 3 -1 8t-1 7q-113 -5 -131 -5q-21 0 -36 15t-15 35zM348 1677q-6 19 4 37v4q0 16 15 35q18 23 48 28t54 -9q25 -15 37 -42t6 -55q-6 -27 -30.5 -47.5t-51.5 -17.5 q-33 3 -55 22q-21 21 -27 45z" />
<glyph unicode="&#xd0;" horiz-adv-x="970" d="M51 743q0 22 14.5 37t34.5 15h172q-3 163 0 329q0 131 2 197v88q0 17 -2 25v10q-1 3 -3 10t-3 10q-6 9 -6 21q-4 14 3 29.5t20 23.5q32 28 82 31q42 2 116 -13q57 -12 109 -32q52 -18 84 -41q100 -79 162 -262q21 -65 36 -129q16 -61 31 -160q25 -179 10 -352 q-13 -190 -71 -332q-36 -91 -86 -139q-55 -55 -115 -80q-111 -45 -291 -52q-22 0 -37 19q-17 3 -28 15.5t-11 29.5q-2 96 -2 205t1 242t1 206h-174q-20 0 -34.5 14.5t-14.5 34.5zM369 1468q6 -29 6 -116q-1 -26 -1 -81.5t-1 -82.5q-1 -50 -1 -107t0.5 -126t0.5 -107v-53h219 q22 0 36.5 -15t14.5 -37q0 -20 -14.5 -34.5t-36.5 -14.5h-219q0 -514 2 -616q60 4 92 8h8q2 0 6.5 1t7.5 1q12 3 27 6q32 7 53 15q5 1 13.5 4.5t9.5 3.5q4 0 8 4q2 1 6 2t6 2q15 7 45 29h2q0 1 1.5 2t1.5 2q4 2 10 8q2 2 6 5.5t7 6.5t5 6l12 13q0 1 1.5 2t1.5 2q3 4 8 11 t8 11q13 26 16 35q4 4 4 6v2q1 4 5 10l4 7q4 13 12 38.5t12 38.5q25 92 33 160q0 1 1 3t1 3v11q2 6 2 20q4 24 4 41q4 58 4 86q0 127 -6 170l-6 43v10q-1 3 -2 10.5t-2 10.5q-6 37 -15 80q-7 35 -34 139q-1 4 -23 67q-2 6 -6 17.5t-6 17.5q-2 2 -2 6l-2 2q-1 2 -3 7.5 t-3 7.5q-15 34 -35 63q-2 3 -5 8.5t-5 8.5q-1 1 -2.5 3t-2.5 3q-9 13 -22 22l-12 13q-4 4 -7 4q-8 8 -12 10l-16 8q-2 1 -5 2t-5 2q-2 0 -2 2q-53 19 -101 33q-35 8 -57 10q-2 2 -4 2h-13q-8 2 -24 2h-10z" />
<glyph unicode="&#xd1;" horiz-adv-x="825" d="M55 1497q-4 18 7.5 35t29.5 22q20 3 39 -6q17 -8 23 -30l6 -13q0 -6 4 -10q22 -52 48.5 -110t59 -128t50.5 -110q17 -35 47.5 -106t33.5 -78q33 -78 68 -181q15 -40 59 -170.5t72 -199.5l37 -93q3 -8 9 -23.5t9 -23.5q5 87 5 103q2 51 3 108t1.5 125.5t1.5 106.5 q0 34 -1 101.5t-1 101.5q-1 35 4 200q0 16 1 50t1 51l1 49q1 49 -1 49q-2 10 -2 29q-2 4 -2 10v4q-1 7 -4.5 22.5t-4.5 22.5q-9 85 -8 108q0 21 14.5 35.5t36.5 14.5q21 0 36 -15t14 -35q0 -29 2 -43q0 -16 2 -24q0 -13 2 -14l12 -86q4 -25 4.5 -52.5t-1 -63.5t-1.5 -52 q-3 -82 -6 -168q-1 -24 -1 -52.5t0.5 -63.5t0.5 -54q2 -134 -2 -404q-1 -45 -4.5 -127t-5.5 -149t-2 -127q0 -20 -14.5 -33.5t-35.5 -13.5q-22 0 -36 14q-14 11 -17 25q-4 10 -8 30q-3 7 -9 22.5t-9 22.5q0 3 -5 13q-2 4 -2 6q-1 3 -3 8t-3 8q-25 52 -39 88q-16 37 -43 107 t-32 84q-22 62 -66.5 185t-67.5 185q-35 104 -67 179q0 4 -4 8q0 2 -4 10q-1 3 -4 10t-4 10l-19 43q-12 28 -41 89q-38 78 -65 141q0 -146 8 -432q16 -536 16 -807q0 -20 -14.5 -33.5t-34.5 -13.5q-22 0 -36.5 13.5t-14.5 33.5q0 217 -12 651q-18 591 -11 811zM206 1600.5 q-5 19.5 5 37.5q30 66 86 74q37 4 98 -14q38 -14 49 -17q7 -3 25 -8q6 0 8 -2h19q4 2 8 2q1 1 5 3t5 3l6 4l15 15q14 15 35.5 14.5t35.5 -14.5q15 -15 14.5 -35.5t-14.5 -34.5q-51 -54 -112 -57q-37 -2 -103 22q-6 2 -21 7.5t-24 7.5q-3 1 -10 3t-10 3h-11l-2 -2q-1 0 -2 -1 t-2 -1q0 -1 -1 -2t-1 -2q-2 -3 -5 -9.5t-5 -9.5q-9 -18 -30 -22.5t-38 6.5q-18 10 -23 29.5z" />
<glyph unicode="&#xd2;" horiz-adv-x="712" d="M55 823q4 -20 6 -28q-4 -164 2 -246q2 -31 27 -197q20 -109 51 -164q39 -67 88 -122q56 -63 119 -76q56 -12 113 10q44 19 78 68q49 63 79 188q24 99 33 201q11 143 8 305q-1 34 -6 199q0 32 2 95t2 93q0 104 -14 192q-14 90 -61 142q-44 53 -154 61q-46 3 -84 -8 q-37 -7 -78 -43q-19 -16 -37 -41.5t-26 -41.5l-25 -50q-44 -92 -67 -164q-10 -33 -39 -180q-25 -130 -17 -193zM160 625q0 111 2 166q3 8 0 16q4 94 4 141q0 2 -1 7.5t-1 7.5v4q3 17 10.5 55.5t13.5 66.5t13 54l12 43q5 10 8 22q1 1 2 5t2 6l4 10q5 11 15 34t14 31 q5 13 35 70q11 21 20 33q2 2 2 4q2 0 2 2q11 11 13 14q2 2 6 5t6 5q1 1 3 2.5t3 2.5l12 6q2 0 6.5 1t6.5 1q2 1 5.5 2t4.5 2h11h3h39q4 0 8 -2q2 0 8 -1t9 -1q2 -1 7.5 -2t8.5 -2l2 -2q1 0 3 -1t3 -1q5 -5 9 -5l8 -8l10 -10q2 -4 6 -8q4 -11 8 -15q0 -6 4 -10q5 -13 9 -28 q3 -7 8 -33q0 -3 1 -9.5t1 -9.5v-2q2 -4 2 -12q4 -22 5.5 -49t1.5 -45t-0.5 -50.5t-0.5 -45.5q-4 -126 -2 -191q4 -132 4 -199q2 -108 -12 -270q0 -14 -2 -20v-11q0 -2 -2 -2l-6 -49q-3 -24 -25 -102q-6 -23 -16 -47q0 -5 -4 -13v-2q-2 -3 -5.5 -10t-5.5 -10 q-11 -25 -24 -41q0 -2 -2 -2l-2 -4l-17 -17l-4 -4h-2q-7 -7 -16 -10q-1 0 -3 -1t-3 -1q-4 -2 -11 -2h-20q-6 0 -8 2q-2 0 -6.5 1t-6.5 1q0 2 -4 2q-2 2 -10 6q-1 1 -3 2t-3 2q-23 20 -49 54q-4 4 -6 8q-5 5 -11 14q-6 7 -20 31q-15 20 -17 24q-9 13 -10 17q-1 1 -2 4t-2 4 q-2 4 -2 6q-7 18 -20 76l-13.5 63t-13.5 76v10q-1 3 -2 9.5t-2 9.5q0 7 -1 20.5t-1 20.5q-4 50 -4 78zM244 1726q-19 47 18 68q17 10 39 5t31 -23q7 -14 8 -15l4 -8q4 -4 4 -6q21 -21 29 -31q5 -5 29.5 -26.5t37.5 -32.5q14 -15 14 -37t-14 -35q-15 -15 -35.5 -14.5 t-35.5 14.5q-10 10 -34 31t-37.5 34t-30.5 34t-27 42z" />
<glyph unicode="&#xd3;" horiz-adv-x="712" d="M55 823q-8 63 17 193q29 147 39 180q23 72 67 164l25 50t26 41.5t37 41.5q41 36 78 43q38 11 84 8q110 -8 154 -61q47 -52 61 -142q14 -88 14 -192q0 -30 -2 -93t-2 -95q5 -165 6 -199q3 -162 -8 -305q-9 -102 -33 -201q-30 -125 -79 -188q-34 -49 -78 -68 q-57 -22 -113 -10q-63 13 -119 76q-49 55 -88 122q-31 55 -51 164q-25 166 -27 197q-6 82 -2 246q-2 8 -6 28zM160 625q0 -28 4 -78q0 -7 1 -20.5t1 -20.5q1 -3 2 -9.5t2 -9.5v-10q3 -27 13.5 -76l13.5 -63q13 -58 20 -76l2 -6q1 -1 2 -4t2 -4q1 -4 10 -17q2 -4 17 -24 q14 -24 20 -31q6 -9 11 -14q2 -4 6 -8q26 -34 49 -54q1 -1 3 -2t3 -2q8 -4 10 -6q4 0 4 -2q2 0 6.5 -1t6.5 -1q2 -2 8 -2h20q7 0 11 2q1 0 3 1t3 1q9 3 16 10h2l4 4l17 17q2 2 2 4l2 2q13 16 24 41q2 3 5.5 10t5.5 10v2q4 8 4 13q10 24 16 47q22 78 25 102l6 49l2 2v11 q2 6 2 20q14 162 12 270q0 67 -4 199q-2 65 2 191q0 13 0.5 45.5t0.5 50.5t-1.5 45t-5.5 49q0 8 -2 12v2q0 3 -1 9.5t-1 9.5q-5 26 -8 33q-4 15 -9 28q-4 4 -4 10q-4 4 -8 15q-4 4 -6 8l-10 10l-8 8q-4 0 -9 5q-1 0 -3 1t-3 1l-2 2q-3 1 -8.5 2t-7.5 2q-3 0 -9 1t-8 1 q-4 2 -8 2h-39h-3h-11q-1 -1 -4.5 -2t-5.5 -2q-2 0 -6.5 -1t-6.5 -1l-12 -6q-1 -1 -3 -2.5t-3 -2.5q-2 -2 -6 -5t-6 -5q-2 -3 -13 -14l-2 -2l-2 -4q-9 -12 -20 -33q-30 -57 -35 -70q-4 -8 -14 -31t-15 -34q-4 -8 -4 -10q-1 -2 -2 -6t-2 -5q-3 -12 -8 -22l-12 -43 q-7 -26 -13 -54t-13.5 -66.5t-10.5 -55.5v-4q0 -2 1 -7.5t1 -7.5q0 -47 -4 -141q3 -8 0 -16q-2 -55 -2 -166zM368 1622q0 22 13 37q2 1 68 59q12 15 28 31q0 2 4 6l4 8q3 3 9 15q9 18 30.5 23t38.5 -5q37 -21 19 -67q-10 -21 -27 -42t-30.5 -34t-37.5 -35t-34 -31 q-15 -14 -36 -14.5t-36 14.5q-13 13 -13 35z" />
<glyph unicode="&#xd4;" horiz-adv-x="712" d="M55 823q-8 63 17 193q29 147 39 180q23 72 67 164l25 50t26 41.5t37 41.5q41 36 78 43q38 11 84 8q110 -8 154 -61q47 -52 61 -142q14 -88 14 -192q0 -30 -2 -93t-2 -95q5 -165 6 -199q3 -162 -8 -305q-9 -102 -33 -201q-30 -125 -79 -188q-34 -49 -78 -68 q-57 -22 -113 -10q-63 13 -119 76q-49 55 -88 122q-31 55 -51 164q-25 166 -27 197q-6 82 -2 246q-2 8 -6 28zM160 625q0 -28 4 -78q0 -7 1 -20.5t1 -20.5q1 -3 2 -9.5t2 -9.5v-10q3 -27 13.5 -76l13.5 -63q13 -58 20 -76l2 -6q1 -1 2 -4t2 -4q1 -4 10 -17q2 -4 17 -24 q14 -24 20 -31q6 -9 11 -14q2 -4 6 -8q26 -34 49 -54q1 -1 3 -2t3 -2q8 -4 10 -6q4 0 4 -2q2 0 6.5 -1t6.5 -1q2 -2 8 -2h20q7 0 11 2q1 0 3 1t3 1q9 3 16 10h2l4 4l17 17q2 2 2 4l2 2q13 16 24 41q2 3 5.5 10t5.5 10v2q4 8 4 13q10 24 16 47q22 78 25 102l6 49l2 2v11 q2 6 2 20q14 162 12 270q0 67 -4 199q-2 65 2 191q0 13 0.5 45.5t0.5 50.5t-1.5 45t-5.5 49q0 8 -2 12v2q0 3 -1 9.5t-1 9.5q-5 26 -8 33q-4 15 -9 28q-4 4 -4 10q-4 4 -8 15q-4 4 -6 8l-10 10l-8 8q-4 0 -9 5q-1 0 -3 1t-3 1l-2 2q-3 1 -8.5 2t-7.5 2q-3 0 -9 1t-8 1 q-4 2 -8 2h-39h-3h-11q-1 -1 -4.5 -2t-5.5 -2q-2 0 -6.5 -1t-6.5 -1l-12 -6q-1 -1 -3 -2.5t-3 -2.5q-2 -2 -6 -5t-6 -5q-2 -3 -13 -14l-2 -2l-2 -4q-9 -12 -20 -33q-30 -57 -35 -70q-4 -8 -14 -31t-15 -34q-4 -8 -4 -10q-1 -2 -2 -6t-2 -5q-3 -12 -8 -22l-12 -43 q-7 -26 -13 -54t-13.5 -66.5t-10.5 -55.5v-4q0 -2 1 -7.5t1 -7.5q0 -47 -4 -141q3 -8 0 -16q-2 -55 -2 -166zM200 1597q0 21 15 35q14 14 51 49t62.5 62t46.5 53q6 6 10 8q22 14 41 6q48 -13 104 -77q7 -8 22 -28.5t27 -34.5t25 -25q15 -14 14.5 -35t-14.5 -35 q-15 -15 -34.5 -14.5t-34.5 14.5q-10 8 -21 19t-17 18.5t-18 23.5t-16 21q-24 28 -39 43q-25 -29 -77 -78t-62 -59q-15 -15 -36 -15t-34 15q-15 13 -15 34z" />
<glyph unicode="&#xd5;" horiz-adv-x="712" d="M55 823q-8 63 17 193q29 147 39 180q23 72 67 164l25 50t26 41.5t37 41.5q41 36 78 43q38 11 84 8q110 -8 154 -61q47 -52 61 -142q14 -88 14 -192q0 -30 -2 -93t-2 -95q5 -165 6 -199q3 -162 -8 -305q-9 -102 -33 -201q-30 -125 -79 -188q-34 -49 -78 -68 q-57 -22 -113 -10q-63 13 -119 76q-49 55 -88 122q-31 55 -51 164q-25 166 -27 197q-6 82 -2 246q-2 8 -6 28zM160 625q0 -28 4 -78q0 -7 1 -20.5t1 -20.5q1 -3 2 -9.5t2 -9.5v-10q3 -27 13.5 -76l13.5 -63q13 -58 20 -76l2 -6q1 -1 2 -4t2 -4q1 -4 10 -17q2 -4 17 -24 q14 -24 20 -31q6 -9 11 -14q2 -4 6 -8q26 -34 49 -54q1 -1 3 -2t3 -2q8 -4 10 -6q4 0 4 -2q2 0 6.5 -1t6.5 -1q2 -2 8 -2h20q7 0 11 2q1 0 3 1t3 1q9 3 16 10h2l4 4l17 17q2 2 2 4l2 2q13 16 24 41q2 3 5.5 10t5.5 10v2q4 8 4 13q10 24 16 47q22 78 25 102l6 49l2 2v11 q2 6 2 20q14 162 12 270q0 67 -4 199q-2 65 2 191q0 13 0.5 45.5t0.5 50.5t-1.5 45t-5.5 49q0 8 -2 12v2q0 3 -1 9.5t-1 9.5q-5 26 -8 33q-4 15 -9 28q-4 4 -4 10q-4 4 -8 15q-4 4 -6 8l-10 10l-8 8q-4 0 -9 5q-1 0 -3 1t-3 1l-2 2q-3 1 -8.5 2t-7.5 2q-3 0 -9 1t-8 1 q-4 2 -8 2h-39h-3h-11q-1 -1 -4.5 -2t-5.5 -2q-2 0 -6.5 -1t-6.5 -1l-12 -6q-1 -1 -3 -2.5t-3 -2.5q-2 -2 -6 -5t-6 -5q-2 -3 -13 -14l-2 -2l-2 -4q-9 -12 -20 -33q-30 -57 -35 -70q-4 -8 -14 -31t-15 -34q-4 -8 -4 -10q-1 -2 -2 -6t-2 -5q-3 -12 -8 -22l-12 -43 q-7 -26 -13 -54t-13.5 -66.5t-10.5 -55.5v-4q0 -2 1 -7.5t1 -7.5q0 -47 -4 -141q3 -8 0 -16q-2 -55 -2 -166zM213 1596q-5 19 4 38q30 66 86 74q37 4 98 -14q36 -14 50 -17q8 -4 24 -8q6 0 8 -2h19q4 2 8 2q1 1 5 3t5 3l6 4l15 15q14 15 35.5 14.5t35.5 -14.5 q15 -15 14.5 -35.5t-14.5 -34.5q-51 -54 -112 -57q-37 -2 -103 22q-6 2 -21 7.5t-24 7.5q-3 1 -10 3t-10 3h-10l-3 -2q-1 0 -2 -1t-2 -1q0 -1 -1 -2t-1 -2q-2 -3 -5 -9.5t-5 -9.5q-9 -18 -29.5 -22.5t-37.5 6.5q-18 10 -23 29z" />
<glyph unicode="&#xd6;" horiz-adv-x="712" d="M55 823q-8 63 17 193q29 147 39 180q23 72 67 164l25 50t26 41.5t37 41.5q41 36 78 43q38 11 84 8q110 -8 154 -61q47 -52 61 -142q14 -88 14 -192q0 -30 -2 -93t-2 -95q5 -165 6 -199q3 -162 -8 -305q-9 -102 -33 -201q-30 -125 -79 -188q-34 -49 -78 -68 q-57 -22 -113 -10q-63 13 -119 76q-49 55 -88 122q-31 55 -51 164q-25 166 -27 197q-6 82 -2 246q-2 8 -6 28zM160 625q0 -28 4 -78q0 -7 1 -20.5t1 -20.5q1 -3 2 -9.5t2 -9.5v-10q3 -27 13.5 -76l13.5 -63q13 -58 20 -76l2 -6q1 -1 2 -4t2 -4q1 -4 10 -17q2 -4 17 -24 q14 -24 20 -31q6 -9 11 -14q2 -4 6 -8q26 -34 49 -54q1 -1 3 -2t3 -2q8 -4 10 -6q4 0 4 -2q2 0 6.5 -1t6.5 -1q2 -2 8 -2h20q7 0 11 2q1 0 3 1t3 1q9 3 16 10h2l4 4l17 17q2 2 2 4l2 2q13 16 24 41q2 3 5.5 10t5.5 10v2q4 8 4 13q10 24 16 47q22 78 25 102l6 49l2 2v11 q2 6 2 20q14 162 12 270q0 67 -4 199q-2 65 2 191q0 13 0.5 45.5t0.5 50.5t-1.5 45t-5.5 49q0 8 -2 12v2q0 3 -1 9.5t-1 9.5q-5 26 -8 33q-4 15 -9 28q-4 4 -4 10q-4 4 -8 15q-4 4 -6 8l-10 10l-8 8q-4 0 -9 5q-1 0 -3 1t-3 1l-2 2q-3 1 -8.5 2t-7.5 2q-3 0 -9 1t-8 1 q-4 2 -8 2h-39h-3h-11q-1 -1 -4.5 -2t-5.5 -2q-2 0 -6.5 -1t-6.5 -1l-12 -6q-1 -1 -3 -2.5t-3 -2.5q-2 -2 -6 -5t-6 -5q-2 -3 -13 -14l-2 -2l-2 -4q-9 -12 -20 -33q-30 -57 -35 -70q-4 -8 -14 -31t-15 -34q-4 -8 -4 -10q-1 -2 -2 -6t-2 -5q-3 -12 -8 -22l-12 -43 q-7 -26 -13 -54t-13.5 -66.5t-10.5 -55.5v-4q0 -2 1 -7.5t1 -7.5q0 -47 -4 -141q3 -8 0 -16q-2 -55 -2 -166zM174 1628q-4 21 6 37v4q0 16 15 35q17 23 47.5 27.5t54.5 -9.5q25 -15 36.5 -42t4.5 -54q-6 -28 -30 -48t-52 -17q-34 3 -53 22q-18 15 -29 45zM469 1628 q-7 19 4 37v4q0 17 14 35q18 23 48.5 27.5t54.5 -9.5q25 -15 37 -41.5t6 -54.5q-6 -27 -30.5 -47.5t-51.5 -17.5q-33 3 -55 22q-21 21 -27 45z" />
<glyph unicode="&#xd7;" horiz-adv-x="630" d="M52 921.5q-1 19.5 11 34.5q14 14 35.5 15.5t36.5 -10.5q24 -24 51.5 -49.5t62 -56.5t52.5 -48q82 98 158 174q38 33 71 4q15 -13 15 -34t-15 -38q-56 -56 -153 -172q26 -23 89 -77t95 -84q17 -15 17 -37t-15 -35q-12 -15 -33 -16t-36 14q-29 26 -91 79.5t-92 80.5 q-7 -8 -57 -66.5t-78 -87.5q-12 -15 -34.5 -16t-37.5 14q-15 12 -15 34t15 36q17 19 62 71t70 80q-110 98 -168 156q-15 15 -16 34.5z" />
<glyph unicode="&#xd8;" horiz-adv-x="778" d="M55 37q30 74 64 143q25 56 26 58q-23 58 -32 122q-23 124 -27 197q-6 82 -2 246q-2 8 -6 28q-8 67 16 193q29 147 39 180q21 65 68 164l25 50t26 41.5t37 41.5q41 36 78 43q38 11 84 8q97 -7 143 -51q13 28 39 70q10 17 30 22t37 -6q19 -9 24.5 -29.5t-5.5 -37.5 q-35 -58 -53 -105l-7 -12q-1 -2 -2 -5t-2 -5q9 -26 11 -43q14 -88 14 -193q0 -30 -2 -93t-2 -95q5 -165 6 -199q3 -162 -8 -305q-9 -102 -33 -201q-30 -123 -80 -188q-34 -49 -78 -68q-57 -21 -112 -10q-60 10 -119 76q-5 6 -45 57l-19 -37q-1 -3 -20 -47q-1 -5 -4 -11.5 t-4 -8.5l-2 -4q-4 -8 -4 -13q-12 -19 -25 -26q-14 -11 -37 -7q-20 5 -32 23.5t-5 36.5zM182 633q0 -28 4 -78q0 -7 1 -20.5t1 -20.5q1 -3 2.5 -9t2.5 -9v-11q3 -24 16 -96q4 8 6 10q9 22 16 45l37 93q39 99 129 374q6 20 26.5 79t29.5 91q8 28 23.5 83.5t23.5 82.5 q23 79 49 148q-5 5 -8 14q-4 4 -6 8l-11 10q-8 8 -8 9q-4 0 -8 4q-1 0 -3 1t-3 1l-2 2q-3 1 -9 2t-8 2q-3 0 -8.5 1t-7.5 1q-4 2 -8 2h-39h-3h-11q-1 -1 -5 -2t-6 -2q-2 0 -6 -1t-6 -1l-12 -6q-1 -1 -3 -2t-3 -2q-2 -2 -6.5 -5.5t-6.5 -5.5q-4 -6 -12 -14l-2 -2l-2 -4 q-12 -15 -21 -33q-27 -53 -34 -69q-3 -6 -13.5 -30t-15.5 -36q-4 -8 -4 -10q-1 -2 -2 -5.5t-2 -4.5q-4 -14 -8 -23l-13 -43q-7 -26 -13 -54t-13.5 -66.5t-10.5 -55.5v-4q0 -2 1 -7.5t1 -7.5q0 -47 -4 -141q3 -8 0 -16q-2 -55 -2 -166zM256 240q6 -11 16 -25q11 -19 21 -31 q8 -12 10 -14q2 -4 6 -8q24 -31 49 -53q1 -1 3.5 -2.5t3.5 -2.5q8 -4 10 -6q4 0 4 -2q2 0 6 -1t6 -1q2 -2 8 -2h21q6 0 10 2q1 0 3 1t3 1q10 4 17 10h2q4 4 4 5l16 16q2 2 2 4l2 2q15 18 25 41q2 3 5 10.5t5 10.5v2q4 8 4 12q13 29 17 47q21 72 24 102l6 50l2 2v10q2 6 2 20 q15 171 13 271q0 66 -4 198q-1 38 0.5 104t1.5 87v63q-3 -11 -9.5 -32t-9.5 -33q-43 -144 -112 -353q-91 -265 -138 -372l-24 -56q0 -2 -2 -4q-2 -4 -2 -10q-7 -18 -15 -31l-12 -30v-2z" />
<glyph unicode="&#xd9;" horiz-adv-x="708" d="M51 1307q0 -66 4 -99q1 -11 11 -96q4 -45 4 -201q-4 -135 -2 -204q0 -33 2 -98.5t2 -98.5v-188q4 -69 10 -103q8 -52 18 -76q29 -69 99 -114q48 -30 139 -45q72 -9 141 6q64 14 109 76q31 44 41 112q9 62 12 125q0 43 8 129q15 184 2 383q-14 198 -14 340q-5 268 -10 346 q-2 21 -16.5 35t-35.5 14q-19 0 -34.5 -14.5t-14.5 -34.5q9 -116 13 -401q0 -101 6 -203q12 -186 12 -192q0 -130 -4 -193q-1 -28 -5 -83.5t-5 -82.5l-6 -110q-2 -4 -2 -13q0 -4 -3 -10q0 -7 -4 -23q-3 -24 -12 -45q0 -4 -4 -8l-6 -12q-2 -2 -6 -10l-17 -17l-16 -8 q-1 0 -2 -1t-2 -1q-2 -1 -7 -2t-7 -2q-2 0 -6.5 -1t-6.5 -1h-8q-23 -2 -66 -2q-3 0 -8 1t-8 1h-4q-22 4 -33 8q-5 1 -15 4t-15 4v2h-5q-4 4 -14 9q-4 2 -12 7t-12 7q0 4 -5 4l-12 12q-1 2 -4 5.5t-4 5.5l-4 4q-4 8 -6 14q-6 6 -6 12q-8 18 -17 70v2q0 2 -1 5.5t-1 4.5 q0 4 -1 12t-1 11q-2 16 -2 49v188q0 33 -2 98.5t-2 98.5q-2 69 2 205v145q-1 27 -7 77.5t-7 65.5q-4 62 -3.5 98t4 98t3.5 97q0 22 -14.5 36.5t-34.5 14.5q-22 0 -37 -14.5t-15 -36.5q0 -38 -3.5 -107t-4.5 -91zM195 1706q-19 47 18 68q17 10 39 4.5t31 -23.5q6 -12 8 -14 l4 -8q4 -4 4 -7q25 -25 29 -30q7 -7 30.5 -28.5t36.5 -31.5q13 -15 13 -36.5t-13 -34.5q-15 -15 -35.5 -14.5t-35.5 14.5q-10 10 -34 31t-37.5 34t-30.5 34t-27 42z" />
<glyph unicode="&#xda;" horiz-adv-x="708" d="M51 1307q1 22 4.5 91t3.5 107q0 22 15 36.5t37 14.5q20 0 34.5 -14.5t14.5 -36.5q0 -35 -3.5 -97t-4 -98t3.5 -98q1 -15 7 -65.5t7 -77.5v-145q-4 -136 -2 -205q0 -33 2 -98.5t2 -98.5v-188q0 -33 2 -49q0 -3 1 -11t1 -12q0 -1 1 -4.5t1 -5.5v-2q9 -52 17 -70q0 -6 6 -12 q2 -6 6 -14l4 -4q1 -2 4 -5.5t4 -5.5l12 -12q5 0 5 -4q4 -2 12 -7t12 -7q10 -5 14 -9h5v-2q5 -1 15 -4t15 -4q11 -4 33 -8h4q3 0 8 -1t8 -1q43 0 66 2h8q2 0 6.5 1t6.5 1q2 1 7 2t7 2q1 0 2 1t2 1l16 8l17 17q4 8 6 10l6 12q4 4 4 8q9 21 12 45q4 16 4 23q3 6 3 10q0 9 2 13 l6 110q1 27 5 82.5t5 83.5q4 63 4 193q0 6 -12 192q-6 102 -6 203q-4 285 -13 401q-1 20 14.5 34.5t34.5 14.5q21 0 35.5 -14t16.5 -35q5 -78 10 -346q0 -142 14 -340q13 -199 -2 -383q-8 -86 -8 -129q-3 -63 -12 -125q-10 -68 -41 -112q-45 -62 -109 -76q-69 -15 -141 -6 q-91 15 -139 45q-70 45 -99 114q-10 24 -18 76q-6 34 -10 103v188q0 33 -2 98.5t-2 98.5q-2 69 2 204q0 156 -4 201q-10 85 -11 96q-4 33 -4 99zM282 1589.5q0 21.5 13 36.5q13 10 36.5 31.5t30.5 28.5q4 5 29 30q0 2 4 6q0 1 4 9q4 4 9 14q9 18 30.5 23t38.5 -5 q37 -21 19 -67q-10 -21 -27 -42t-30.5 -34t-37.5 -35t-34 -31q-15 -14 -36 -14.5t-36 14.5q-13 14 -13 35.5z" />
<glyph unicode="&#xdb;" horiz-adv-x="708" d="M51 1307q1 22 4.5 91t3.5 107q0 22 15 36.5t37 14.5q20 0 34.5 -14.5t14.5 -36.5q0 -35 -3.5 -97t-4 -98t3.5 -98q1 -15 7 -65.5t7 -77.5v-145q-4 -136 -2 -205q0 -33 2 -98.5t2 -98.5v-188q0 -33 2 -49q0 -3 1 -11t1 -12q0 -1 1 -4.5t1 -5.5v-2q9 -52 17 -70q0 -6 6 -12 q2 -6 6 -14l4 -4q1 -2 4 -5.5t4 -5.5l12 -12q5 0 5 -4q4 -2 12 -7t12 -7q10 -5 14 -9h5v-2q5 -1 15 -4t15 -4q11 -4 33 -8h4q3 0 8 -1t8 -1q43 0 66 2h8q2 0 6.5 1t6.5 1q2 1 7 2t7 2q1 0 2 1t2 1l16 8l17 17q4 8 6 10l6 12q4 4 4 8q9 21 12 45q4 16 4 23q3 6 3 10q0 9 2 13 l6 110q1 27 5 82.5t5 83.5q4 63 4 193q0 6 -12 192q-6 102 -6 203q-4 285 -13 401q-1 20 14.5 34.5t34.5 14.5q21 0 35.5 -14t16.5 -35q5 -78 10 -346q0 -142 14 -340q13 -199 -2 -383q-8 -86 -8 -129q-3 -63 -12 -125q-10 -68 -41 -112q-45 -62 -109 -76q-69 -15 -141 -6 q-91 15 -139 45q-70 45 -99 114q-10 24 -18 76q-6 34 -10 103v188q0 33 -2 98.5t-2 98.5q-2 69 2 204q0 156 -4 201q-10 85 -11 96q-4 33 -4 99zM139 1634q0 22 15 35q12 12 50 48.5t63 62.5t46 53q5 5 11 8q22 14 41 6q47 -13 104 -78q7 -8 22 -28.5t27 -34.5t25 -25 q15 -14 14.5 -34.5t-14.5 -34.5q-15 -15 -35 -14.5t-35 14.5q-10 8 -21 19t-17 18.5t-18 23.5t-16 21q-24 28 -39 43q-19 -22 -42.5 -45t-52 -50t-44.5 -43q-15 -15 -35.5 -15t-33.5 15q-15 13 -15 35z" />
<glyph unicode="&#xdc;" horiz-adv-x="708" d="M51 1307q1 22 4.5 91t3.5 107q0 22 15 36.5t37 14.5q20 0 34.5 -14.5t14.5 -36.5q0 -35 -3.5 -97t-4 -98t3.5 -98q1 -15 7 -65.5t7 -77.5v-145q-4 -136 -2 -205q0 -33 2 -98.5t2 -98.5v-188q0 -33 2 -49q0 -3 1 -11t1 -12q0 -1 1 -4.5t1 -5.5v-2q9 -52 17 -70q0 -6 6 -12 q2 -6 6 -14l4 -4q1 -2 4 -5.5t4 -5.5l12 -12q5 0 5 -4q4 -2 12 -7t12 -7q10 -5 14 -9h5v-2q5 -1 15 -4t15 -4q11 -4 33 -8h4q3 0 8 -1t8 -1q43 0 66 2h8q2 0 6.5 1t6.5 1q2 1 7 2t7 2q1 0 2 1t2 1l16 8l17 17q4 8 6 10l6 12q4 4 4 8q9 21 12 45q4 16 4 23q3 6 3 10q0 9 2 13 l6 110q1 27 5 82.5t5 83.5q4 63 4 193q0 6 -12 192q-6 102 -6 203q-4 285 -13 401q-1 20 14.5 34.5t34.5 14.5q21 0 35.5 -14t16.5 -35q5 -78 10 -346q0 -142 14 -340q13 -199 -2 -383q-8 -86 -8 -129q-3 -63 -12 -125q-10 -68 -41 -112q-45 -62 -109 -76q-69 -15 -141 -6 q-91 15 -139 45q-70 45 -99 114q-10 24 -18 76q-6 34 -10 103v188q0 33 -2 98.5t-2 98.5q-2 69 2 204q0 156 -4 201q-10 85 -11 96q-4 33 -4 99zM113 1663q-4 21 6 37v4q0 18 14 35q17 23 48 27.5t55 -9.5q25 -15 36 -41.5t4 -54.5q-6 -28 -29.5 -48.5t-51.5 -17.5 q-34 3 -54 23q-16 14 -28 45zM408 1663q-6 19 4 37v4q0 18 14 35q18 23 48 27.5t54 -9.5q25 -15 37 -41.5t6 -54.5q-6 -27 -30.5 -48t-51.5 -18q-32 3 -55 23q-20 20 -26 45z" />
<glyph unicode="&#xdd;" horiz-adv-x="864" d="M53 1509q-1 21 14 36.5t35 15.5q23 0 37.5 -15.5t14.5 -36.5v-6q2 -2 2 -8q1 -4 2 -11t2 -11l12 -43q1 -5 29 -91q43 -130 63 -184q7 -20 30 -84t34 -100q9 -29 27.5 -90t27.5 -90q3 -9 8 -28t8 -28q21 41 33 70q24 50 39 86q1 2 3 7t3 7q2 2 2 4q2 3 8 21q14 33 17 43 q11 29 32 92.5t33 95.5q6 16 41 99q10 20 11 24q2 2 6 10q2 4 2 6q19 44 20 46q6 13 19.5 38t19.5 39q3 5 8 19q2 2 2 6q4 4 4 8l7 21q0 2 1 5t1 5q3 24 14 35q14 14 37 14q20 0 36 -15t13 -34q-5 -45 -33 -107q-6 -16 -21 -43t-20 -39l-6 -12q0 -2 -2 -2l-12 -31 q-9 -21 -19 -41q-4 -8 -10 -23.5t-10 -23.5v-2q-4 -8 -4 -10q-4 -9 -8 -23q-11 -30 -32.5 -92.5t-33.5 -93.5q-28 -76 -80 -186q-5 -12 -18.5 -41.5t-20.5 -46.5q-2 -3 -5.5 -11t-4.5 -10q-2 -4 -2 -6t-4 -10q-5 -11 -14 -41q-2 -4 -2 -10v-2q0 -226 2 -271q8 -180 8 -268 q0 -22 -14.5 -35.5t-36.5 -13.5q-21 0 -35.5 14t-14.5 35q0 88 -8 268q-2 45 -2 271v10q-33 77 -63 180q-38 130 -56 182q-32 97 -65 185q-13 34 -62 184q-42 112 -49 188zM354 1579.5q0 21.5 13 36.5q13 11 37.5 32.5t29.5 26.5q8 10 29 31q0 2 4 6l4 8q1 1 8 15 q9 18 31 23t39 -5q18 -10 22 -29.5t-4 -37.5q-10 -21 -27 -42t-30.5 -34t-37.5 -35t-34 -31q-15 -14 -35.5 -14.5t-35.5 14.5q-13 14 -13 35.5z" />
<glyph unicode="&#xde;" horiz-adv-x="856" d="M53 1501q-2 22 11.5 37.5t35.5 15.5q21 0 37 -14t17 -35q-2 -112 10 -338h37q177 0 236 -7q210 -24 295 -157q3 -4 5 -8q73 -121 66 -278q-8 -176 -107 -258q-55 -47 -127 -68q-44 -14 -141 -26q-37 -4 -78.5 -5t-94 -1t-77.5 -1q4 -233 -6 -348q-2 -21 -14.5 -36 t-34.5 -15q-19 0 -35.5 14.5t-15.5 32.5q10 115 6 344q-3 84 0 174q0 28 2 86t2 86q0 94 -14 400q-2 6 -2 16q-3 6 0 12q-14 297 -13 377zM170 1067q8 -176 10 -264q2 -62 -0.5 -177.5t-1.5 -166.5h6q195 0 267 8q3 0 9 1t9 1h2q2 2 4 2l31 6q28 6 59 21q2 0 4.5 1t3.5 1 l13 6q16 6 26 14q2 1 6.5 4t6.5 4l4 4q2 2 9.5 11t12.5 12l8 12q0 1 3 4q1 1 6.5 11t7.5 16q1 1 2 4.5t2 5.5l4 8q2 5 5 15.5t5 15.5q0 13 4 33q2 4 2 14q0 1 1 3.5t1 4.5q2 0 1 34l-1 34q0 19 -6 37v4q0 3 -1 8.5t-1 7.5q-7 40 -20 66l-6 18l-2 4q-5 12 -15 29 q-9 18 -18 27h-2q0 2 -2 4l-8 8q-17 17 -27 23v2q-1 0 -2 1t-2 1q-2 2 -4 3.5t-5.5 3.5t-5.5 3q-4 3 -30 16q-6 0 -8 2q-4 4 -15 4q-34 14 -65 19l-37 6h-6q-6 2 -19 2q-62 2 -75 2.5t-74.5 -2t-75.5 -2.5z" />
<glyph unicode="&#xdf;" horiz-adv-x="931" d="M51 37q0 21 15 36t36 15h21q1 0 3 1t3 1q2 0 4 2q2 0 4 2l6 6q1 1 2 3t2 3q0 2 1.5 5t1.5 4q0 4 4 12q2 10 5 29.5t5 29.5q1 7 4 24.5t4 27.5q0 4 2 6v6q0 4 1 12t1 12q17 222 12 394q-10 330 -10 792l-2 4q-6 21 4.5 37.5t30.5 24.5q69 23 136.5 15.5t133.5 -38.5 t116.5 -80.5t64.5 -111.5q23 -89 14 -170q-6 -53 -29 -97q-17 -33 -47 -63q-7 -9 -22 -24.5t-19 -20.5q-2 -2 -2 -4q-2 0 -2 -2q-1 -2 -4 -5t-4 -5q0 -7 -4 -11q0 -4 -2 -6v-14q1 -2 2 -7.5t2 -7.5q2 -2 2 -6q8 -16 16 -24q0 -2 4 -6q2 -2 5.5 -6.5t5.5 -6.5q24 -24 112 -94 q62 -53 105 -113q86 -117 86 -311q0 -118 -58 -184q-51 -59 -137 -98q-63 -28 -156 -39q-105 -9 -141 32q-14 15 -14.5 35t14.5 35q14 14 36 14.5t34 -14.5q2 0 2 -2h2q1 0 3 -1t3 -1q6 0 8 -2q31 0 47 2h6q4 2 13 2q12 4 22 4q30 7 58 16l18 7q1 1 3 2t3 2q17 7 29 14 q19 11 31 21l10 6l8 8q15 11 25 24l4 5q1 2 4 7t4 7q1 1 4 8l2 4q0 2 4 10l6 31v4q0 2 1 5t1 5v62q-1 7 -2 21.5t-2 21.5q0 4 -1 10.5t-1 9.5v2q0 1 -1 3.5t-1 3.5q-5 33 -18 73q0 5 -4 13q-5 10 -7 12q-5 13 -16 31q-12 20 -20 30q0 1 -1 2t-1 2l-3 2q-6 9 -12 15 q-33 37 -51 51q-19 19 -57 48t-54 44q-72 68 -84 129q-7 50 7 82q9 30 43 68q4 5 19 20.5t22 24.5q6 6 8 10q1 1 3 4t3 4q7 11 10 19q4 4 4 8q8 16 12 39v10q3 9 3 18q0 22 -3 43q0 13 -2 17v14q-10 45 -14 57q-1 1 -3 5.5t-3 5.5l-6 12q-4 8 -8 12q0 2 -2 2q-25 29 -39 39 q-8 8 -11 8q-7 6 -14 9q-15 11 -27 16l-16 8q-2 2 -4 2q-25 10 -29 11q-12 4 -32 8q-3 1 -8.5 2t-8.5 2h-4q-30 3 -61 0h-4v-41q0 -271 2 -406q1 -68 4 -201.5t4 -201.5q3 -226 -23 -402q-12 -93 -33 -135q-38 -69 -131 -65q-22 0 -36.5 13.5t-14.5 33.5z" />
<glyph unicode="&#xe0;" horiz-adv-x="720" d="M55 209q-6 -35 4 -72q7 -27 33 -65q38 -49 121 -60q59 -7 145 31q42 19 101 55q13 -39 35 -63q20 -26 57 -37q31 -9 80 -2q20 3 30.5 21.5t4.5 37.5q-4 21 -21 29.5t-39 5.5h-18q-2 2 -4 2h-4q-4 4 -7 4l-2 2l-4 4l-4 7l-6 12h-2q-1 5 -3 14.5t-3 14.5q-4 12 -4 18 q-2 4 -2 10q0 11 -2 17q-2 53 2 159q4 134 0 199q-8 107 -43 158q-37 57 -107 77q-112 33 -250 -43q0 -2 -2 -2q-17 -9 -22 -29.5t6 -37.5q9 -19 29 -24.5t39 5.5l26 13q2 2 10 6q1 0 4 1t5 1q17 8 55 16q4 0 6 2h10q8 2 27 2q4 -2 12 -2h2q4 -1 13.5 -3t13.5 -3v-2 q6 0 10 -4q2 -1 5 -3t5 -3q0 -1 1 -2t1 -2q6 -3 11 -8q2 -2 2 -4q5 -5 14 -23v-2l2 -2q0 -6 4 -14q1 -3 2 -8.5t2 -8.5q0 -6 2 -8v-4q0 -8 2 -12q-4 -4 -4 -7q0 -1 -1 -3t-1 -3l-6 -12l-22 -23q-3 0 -7 -4q-20 -12 -28 -16q-5 -2 -29 -14q-6 0 -10 -4q-2 -1 -6.5 -2.5 t-6.5 -2.5q-4 -2 -28.5 -12t-36.5 -16q-88 -47 -127 -90q-59 -68 -72 -162zM154 168v33q2 2 2 8q4 12 6 20q0 7 4 15q1 1 2 4t2 4q8 19 16 33q4 4 4 6q0 -1 2 1l6 6l3 3q11 15 24 25q0 1 1.5 2t3.5 2t3 2l4 3q4 3 5 5l30 18q11 6 58 27q2 2 4 2l12 6q6 2 19.5 7.5t19.5 7.5 q23 10 55 28q1 0 2 1t2 1q0 -24 -2 -70t-2 -69v-86q-4 -6 -16 -14l-4 -4q-4 0 -4 -5q-9 -6 -21 -12q-42 -29 -73 -43q-2 -1 -17 -6v-2q-4 0 -6 -2q-5 -2 -17.5 -5t-17.5 -5h-6q-1 0 -6 -1t-6 -1h-29q-4 0 -4 2q-8 0 -12 2q-1 0 -3 1t-3 1t-5.5 2t-5.5 2q-4 4 -8 6l-2 2l-8 8 q0 2 -2 4q-4 4 -4 9q-2 2 -2 4q-1 2 -2 6t-2 6zM160 985q-19 47 18 68q17 10 39 4.5t31 -23.5q6 -12 8 -14l4 -8q4 -4 4 -6q21 -21 29 -31q7 -7 30.5 -28.5t36.5 -31.5q14 -15 14 -36t-14 -35q-15 -15 -35.5 -14.5t-35.5 14.5q-10 10 -34 31t-37.5 34t-30.5 34t-27 42z" />
<glyph unicode="&#xe1;" horiz-adv-x="720" d="M55 209q13 94 72 162q39 43 127 90q9 4 19.5 9t24 10t21.5 9q2 1 6.5 2.5t6.5 2.5q4 4 10 4q24 12 29 14q8 4 28 16q4 4 7 4l22 23l6 12q0 1 1 3t1 3q0 3 4 7q-2 4 -2 12v4q-2 2 -2 8q-1 3 -2 8.5t-2 8.5q-4 8 -4 14l-2 2v2q-9 18 -14 23l-2 4q-5 5 -11 8q0 1 -1 2t-1 2 q-2 1 -5 3t-5 3q-4 4 -10 4v2q-4 1 -13.5 3t-13.5 3h-2q-8 0 -12 2q-19 0 -27 -2h-10q-2 -2 -6 -2q-38 -8 -55 -16q-2 0 -5 -1t-4 -1q-8 -4 -10 -6l-26 -13q-19 -11 -39 -5.5t-29 24.5q-11 17 -6 37.5t22 29.5q2 0 2 2q138 76 250 43q70 -20 107 -77q35 -51 43 -158 q4 -65 0 -199q-4 -106 -2 -159q2 -6 2 -17q0 -6 2 -10q0 -6 4 -18q1 -5 3 -14.5t3 -14.5h2l6 -12q4 -5 4 -7l4 -4q0 -2 2 -2q3 0 7 -4h4l4 -2h18q22 3 39 -5.5t21 -29.5q6 -19 -4.5 -37.5t-30.5 -21.5q-49 -7 -80 2q-37 11 -57 37q-22 24 -35 63q-59 -36 -101 -55 q-86 -38 -145 -31q-83 11 -121 60q-26 38 -33 65q-10 37 -4 72zM154 168q1 -2 2 -6t2 -6q0 -2 2 -4q0 -5 4 -9l2 -4l8 -8l2 -2q4 -2 8 -6q1 0 5.5 -2t5.5 -2t3 -1t3 -1q4 -2 12 -2q0 -2 4 -2h29q1 0 6 1t6 1h6q5 2 17.5 5t17.5 5q2 2 6 2v2q15 5 17 6q31 14 73 43 q12 6 21 12q0 5 4 5l4 4q12 8 16 14v86q0 23 2 69t2 70q-1 0 -2 -1t-2 -1q-32 -18 -55 -28q-6 -2 -19.5 -7.5t-19.5 -7.5l-12 -6q-2 0 -4 -2q-47 -21 -58 -27l-30 -18q-1 -2 -5 -5l-4 -3q-1 -1 -3 -2t-3.5 -2t-1.5 -2q-13 -10 -24 -25l-3 -3l-6 -6t-2 -1q0 -2 -4 -6 q-8 -14 -16 -33q-1 -1 -2 -4t-2 -4q-4 -8 -4 -15q-2 -8 -6 -20q0 -6 -2 -8v-33zM278 873q0 21 13 36q13 10 36.5 31.5t30.5 28.5q4 5 29 30q0 3 4 7l4 8q2 2 8 14q9 18 31 23.5t39 -4.5q18 -10 22.5 -30t-3.5 -38q-10 -21 -27 -42t-31 -34t-37.5 -34t-34.5 -31 q-15 -14 -35.5 -14.5t-35.5 14.5q-13 14 -13 35z" />
<glyph unicode="&#xe2;" horiz-adv-x="720" d="M55 209q13 94 72 162q39 43 127 90q9 4 19.5 9t24 10t21.5 9q2 1 6.5 2.5t6.5 2.5q4 4 10 4q24 12 29 14q8 4 28 16q4 4 7 4l22 23l6 12q0 1 1 3t1 3q0 3 4 7q-2 4 -2 12v4q-2 2 -2 8q-1 3 -2 8.5t-2 8.5q-4 8 -4 14l-2 2v2q-9 18 -14 23l-2 4q-5 5 -11 8q0 1 -1 2t-1 2 q-2 1 -5 3t-5 3q-4 4 -10 4v2q-4 1 -13.5 3t-13.5 3h-2q-8 0 -12 2q-19 0 -27 -2h-10q-2 -2 -6 -2q-38 -8 -55 -16q-2 0 -5 -1t-4 -1q-8 -4 -10 -6l-26 -13q-19 -11 -39 -5.5t-29 24.5q-11 17 -6 37.5t22 29.5q2 0 2 2q138 76 250 43q70 -20 107 -77q35 -51 43 -158 q4 -65 0 -199q-4 -106 -2 -159q2 -6 2 -17q0 -6 2 -10q0 -6 4 -18q1 -5 3 -14.5t3 -14.5h2l6 -12q4 -5 4 -7l4 -4q0 -2 2 -2q3 0 7 -4h4l4 -2h18q22 3 39 -5.5t21 -29.5q6 -19 -4.5 -37.5t-30.5 -21.5q-49 -7 -80 2q-37 11 -57 37q-22 24 -35 63q-59 -36 -101 -55 q-86 -38 -145 -31q-83 11 -121 60q-26 38 -33 65q-10 37 -4 72zM104 848q0 22 15 35q14 14 51 49t62.5 62t46.5 53q6 6 10 8q22 14 41 6q47 -13 104 -78q7 -8 22 -28.5t27 -34.5t25 -25q15 -14 14.5 -35t-14.5 -35q-15 -15 -35 -14.5t-35 14.5q-10 8 -20.5 19t-17 19 t-17.5 22.5t-16 21.5q-24 28 -39 43q-25 -29 -76.5 -77t-63.5 -60q-15 -15 -35.5 -15t-33.5 15q-15 13 -15 35zM154 168q1 -2 2 -6t2 -6q0 -2 2 -4q0 -5 4 -9l2 -4l8 -8l2 -2q4 -2 8 -6q1 0 5.5 -2t5.5 -2t3 -1t3 -1q4 -2 12 -2q0 -2 4 -2h29q1 0 6 1t6 1h6q5 2 17.5 5 t17.5 5q2 2 6 2v2q15 5 17 6q31 14 73 43q12 6 21 12q0 5 4 5l4 4q12 8 16 14v86q0 23 2 69t2 70q-1 0 -2 -1t-2 -1q-32 -18 -55 -28q-6 -2 -19.5 -7.5t-19.5 -7.5l-12 -6q-2 0 -4 -2q-47 -21 -58 -27l-30 -18q-1 -2 -5 -5l-4 -3q-1 -1 -3 -2t-3.5 -2t-1.5 -2 q-13 -10 -24 -25l-3 -3l-6 -6t-2 -1q0 -2 -4 -6q-8 -14 -16 -33q-1 -1 -2 -4t-2 -4q-4 -8 -4 -15q-2 -8 -6 -20q0 -6 -2 -8v-33z" />
<glyph unicode="&#xe3;" horiz-adv-x="720" d="M55 209q13 94 72 162q39 43 127 90q9 4 19.5 9t24 10t21.5 9q2 1 6.5 2.5t6.5 2.5q4 4 10 4q24 12 29 14q8 4 28 16q4 4 7 4l22 23l6 12q0 1 1 3t1 3q0 3 4 7q-2 4 -2 12v4q-2 2 -2 8q-1 3 -2 8.5t-2 8.5q-4 8 -4 14l-2 2v2q-9 18 -14 23l-2 4q-5 5 -11 8q0 1 -1 2t-1 2 q-2 1 -5 3t-5 3q-4 4 -10 4v2q-4 1 -13.5 3t-13.5 3h-2q-8 0 -12 2q-19 0 -27 -2h-10q-2 -2 -6 -2q-38 -8 -55 -16q-2 0 -5 -1t-4 -1q-8 -4 -10 -6l-26 -13q-19 -11 -39 -5.5t-29 24.5q-11 17 -6 37.5t22 29.5q2 0 2 2q138 76 250 43q70 -20 107 -77q35 -51 43 -158 q4 -65 0 -199q-4 -106 -2 -159q2 -6 2 -17q0 -6 2 -10q0 -6 4 -18q1 -5 3 -14.5t3 -14.5h2l6 -12q4 -5 4 -7l4 -4q0 -2 2 -2q3 0 7 -4h4l4 -2h18q22 3 39 -5.5t21 -29.5q6 -19 -4.5 -37.5t-30.5 -21.5q-49 -7 -80 2q-37 11 -57 37q-22 24 -35 63q-59 -36 -101 -55 q-86 -38 -145 -31q-83 11 -121 60q-26 38 -33 65q-10 37 -4 72zM110 865.5q-5 19.5 5 37.5q30 66 86 74q37 4 98 -14q38 -14 49 -17q7 -4 25 -8q6 0 8 -2h18q4 2 9 2q1 1 5 3t5 3l6 4q4 2 8.5 8t5.5 7q14 15 36 14.5t36 -14.5q15 -15 14.5 -35.5t-14.5 -34.5 q-51 -54 -113 -57q-36 -2 -102 22q-5 2 -20.5 7t-24.5 7l-21 7h-10l-2 -2q-1 0 -2 -1.5t-2 -1.5q0 -1 -1 -2t-1 -2q-2 -3 -5 -9t-5 -9q-9 -18 -30 -22.5t-38 6.5q-18 10 -23 29.5zM154 168q1 -2 2 -6t2 -6q0 -2 2 -4q0 -5 4 -9l2 -4l8 -8l2 -2q4 -2 8 -6q1 0 5.5 -2t5.5 -2 t3 -1t3 -1q4 -2 12 -2q0 -2 4 -2h29q1 0 6 1t6 1h6q5 2 17.5 5t17.5 5q2 2 6 2v2q15 5 17 6q31 14 73 43q12 6 21 12q0 5 4 5l4 4q12 8 16 14v86q0 23 2 69t2 70q-1 0 -2 -1t-2 -1q-32 -18 -55 -28q-6 -2 -19.5 -7.5t-19.5 -7.5l-12 -6q-2 0 -4 -2q-47 -21 -58 -27l-30 -18 q-1 -2 -5 -5l-4 -3q-1 -1 -3 -2t-3.5 -2t-1.5 -2q-13 -10 -24 -25l-3 -3l-6 -6t-2 -1q0 -2 -4 -6q-8 -14 -16 -33q-1 -1 -2 -4t-2 -4q-4 -8 -4 -15q-2 -8 -6 -20q0 -6 -2 -8v-33z" />
<glyph unicode="&#xe4;" horiz-adv-x="720" d="M55 209q13 94 72 162q39 43 127 90q9 4 19.5 9t24 10t21.5 9q2 1 6.5 2.5t6.5 2.5q4 4 10 4q24 12 29 14q8 4 28 16q4 4 7 4l22 23l6 12q0 1 1 3t1 3q0 3 4 7q-2 4 -2 12v4q-2 2 -2 8q-1 3 -2 8.5t-2 8.5q-4 8 -4 14l-2 2v2q-9 18 -14 23l-2 4q-5 5 -11 8q0 1 -1 2t-1 2 q-2 1 -5 3t-5 3q-4 4 -10 4v2q-4 1 -13.5 3t-13.5 3h-2q-8 0 -12 2q-19 0 -27 -2h-10q-2 -2 -6 -2q-38 -8 -55 -16q-2 0 -5 -1t-4 -1q-8 -4 -10 -6l-26 -13q-19 -11 -39 -5.5t-29 24.5q-11 17 -6 37.5t22 29.5q2 0 2 2q138 76 250 43q70 -20 107 -77q35 -51 43 -158 q4 -65 0 -199q-4 -106 -2 -159q2 -6 2 -17q0 -6 2 -10q0 -6 4 -18q1 -5 3 -14.5t3 -14.5h2l6 -12q4 -5 4 -7l4 -4q0 -2 2 -2q3 0 7 -4h4l4 -2h18q22 3 39 -5.5t21 -29.5q6 -19 -4.5 -37.5t-30.5 -21.5q-49 -7 -80 2q-37 11 -57 37q-22 24 -35 63q-59 -36 -101 -55 q-86 -38 -145 -31q-83 11 -121 60q-26 38 -33 65q-10 37 -4 72zM90 887q-4 21 6 37v4q0 16 15 35q17 23 47.5 27.5t54.5 -9.5q25 -15 36.5 -42t4.5 -54q-6 -28 -30 -48.5t-52 -17.5q-33 3 -53 23q-18 15 -29 45zM154 168q1 -2 2 -6t2 -6q0 -2 2 -4q0 -5 4 -9l2 -4l8 -8l2 -2 q4 -2 8 -6q1 0 5.5 -2t5.5 -2t3 -1t3 -1q4 -2 12 -2q0 -2 4 -2h29q1 0 6 1t6 1h6q5 2 17.5 5t17.5 5q2 2 6 2v2q15 5 17 6q31 14 73 43q12 6 21 12q0 5 4 5l4 4q12 8 16 14v86q0 23 2 69t2 70q-1 0 -2 -1t-2 -1q-32 -18 -55 -28q-6 -2 -19.5 -7.5t-19.5 -7.5l-12 -6 q-2 0 -4 -2q-47 -21 -58 -27l-30 -18q-1 -2 -5 -5l-4 -3q-1 -1 -3 -2t-3.5 -2t-1.5 -2q-13 -10 -24 -25l-3 -3l-6 -6t-2 -1q0 -2 -4 -6q-8 -14 -16 -33q-1 -1 -2 -4t-2 -4q-4 -8 -4 -15q-2 -8 -6 -20q0 -6 -2 -8v-33zM385 887q-7 19 4 37v4q0 18 14 35q18 23 48.5 27.5 t54.5 -9.5q25 -15 37 -41.5t6 -54.5q-6 -27 -30.5 -48t-51.5 -18q-32 3 -55 23q-21 21 -27 45z" />
<glyph unicode="&#xe5;" horiz-adv-x="720" d="M55 209q13 94 72 162q39 43 127 90q9 4 19.5 9t24 10t21.5 9q2 1 6.5 2.5t6.5 2.5q4 4 10 4q24 12 29 14q8 4 28 16q4 4 7 4l22 23l6 12q0 1 1 3t1 3q0 3 4 7q-2 4 -2 12v4q-2 2 -2 8q-1 3 -2 8.5t-2 8.5q-4 8 -4 14l-2 2v2q-9 18 -14 23l-2 4q-5 5 -11 8q0 1 -1 2t-1 2 q-2 1 -5 3t-5 3q-4 4 -10 4v2q-4 1 -13.5 3t-13.5 3h-2q-8 0 -12 2q-19 0 -27 -2h-10q-2 -2 -6 -2q-38 -8 -55 -16q-2 0 -5 -1t-4 -1q-8 -4 -10 -6l-26 -13q-19 -11 -39 -5.5t-29 24.5q-11 17 -6 37.5t22 29.5q2 0 2 2q138 76 250 43q70 -20 107 -77q35 -51 43 -158 q4 -65 0 -199q-4 -106 -2 -159q2 -6 2 -17q0 -6 2 -10q0 -6 4 -18q1 -5 3 -14.5t3 -14.5h2l6 -12q4 -5 4 -7l4 -4q0 -2 2 -2q3 0 7 -4h4l4 -2h18q22 3 39 -5.5t21 -29.5q6 -19 -4.5 -37.5t-30.5 -21.5q-49 -7 -80 2q-37 11 -57 37q-22 24 -35 63q-59 -36 -101 -55 q-86 -38 -145 -31q-83 11 -121 60q-26 38 -33 65q-10 37 -4 72zM154 168q1 -2 2 -6t2 -6q0 -2 2 -4q0 -5 4 -9l2 -4l8 -8l2 -2q4 -2 8 -6q1 0 5.5 -2t5.5 -2t3 -1t3 -1q4 -2 12 -2q0 -2 4 -2h29q1 0 6 1t6 1h6q5 2 17.5 5t17.5 5q2 2 6 2v2q15 5 17 6q31 14 73 43 q12 6 21 12q0 5 4 5l4 4q12 8 16 14v86q0 23 2 69t2 70q-1 0 -2 -1t-2 -1q-32 -18 -55 -28q-6 -2 -19.5 -7.5t-19.5 -7.5l-12 -6q-2 0 -4 -2q-47 -21 -58 -27l-30 -18q-1 -2 -5 -5l-4 -3q-1 -1 -3 -2t-3.5 -2t-1.5 -2q-13 -10 -24 -25l-3 -3l-6 -6t-2 -1q0 -2 -4 -6 q-8 -14 -16 -33q-1 -1 -2 -4t-2 -4q-4 -8 -4 -15q-2 -8 -6 -20q0 -6 -2 -8v-33zM201 1020q18 35 67 55q35 13 86 6q51 -12 78 -53q20 -28 23 -70q4 -25 -11 -63q-10 -24 -33.5 -41.5t-48.5 -22.5q-57 -13 -104 11q-24 12 -39.5 34t-15.5 46v2q-30 48 -2 96zM289 973 q2 -2 6 -10q11 -14 8 -31q2 0 2 -2q1 0 5.5 -1t6.5 -1q2 -2 5 -2h8q2 1 6 2t6 2h4l2 2l2 2q2 0 2 2l2 2v2q2 0 2 4v8q-1 2 -2 6.5t-2 6.5v2q-1 1 -2 3t-2 3q0 4 -4 4q-1 1 -3 2t-3 2q-2 0 -4 2h-21q-2 0 -5 -1t-5 -1l-4 -2q-1 0 -2 -1t-2 -1q-2 0 -6 -4z" />
<glyph unicode="&#xe7;" horiz-adv-x="575" d="M52 395q0 19 1 45.5t4 48.5q10 86 35 152q35 90 92 129q35 24 81 30.5t85 -7.5q86 -31 129 -115q10 -18 5 -38t-23 -30q-17 -11 -39 -6t-29 23q-15 25 -18 28v2l-4 5q-10 10 -11 12l-8 4q-2 4 -10 8t-14 8q-4 0 -4 2q-7 0 -19 4h-26l-25 -6q-2 0 -6 -4q-8 -4 -10 -6h-2 q0 -1 -2 -2t-3 -2l-10 -10q-1 -1 -2 -3t-2 -3q-1 -2 -4 -5.5t-4 -5.5q-12 -20 -16 -30q0 -1 -1.5 -3.5t-1.5 -3.5q-1 -2 -3 -7t-3 -7l-18 -61q-1 -7 -4 -20.5t-4 -20.5v-13q-2 -8 -2 -24q-3 -27 -3.5 -57.5t0.5 -72.5t1 -59v-38q2 -4 2 -15v-6q3 -16 10 -33v-2q0 -2 2 -2 q1 -2 3 -7t3 -7q1 -1 3 -4t3 -4q7 -7 10 -13q9 -6 15 -12l4 -4q35 -20 43 -23q1 -1 3 -2t3 -2q4 0 12 -4l25 -6q2 0 6 -1t6 -1h4q4 0 12.5 -1t12.5 -1q2 0 7 1t7 1h2q9 0 21 4q4 2 8 2q1 1 3 2t3 2t4 2t4 2l2 2q6 3 9 9q4 0 4 4q4 4 8 12q0 4 2 6q0 2 1 6t1 6q0 5 2 5v14 q0 22 14.5 36.5t34.5 14.5q22 0 36.5 -14.5t14.5 -36.5q-3 -105 -82 -152q-47 -24 -114 -24v-2q-2 -2 -2 -8q-12 -30 -13 -33q-4 -8 -4 -13q54 -20 86 -57q32 -40 37 -72q7 -52 -14 -90q-21 -37 -65 -52t-87 -11t-86 18q-20 6 -30.5 24t-4.5 38q5 19 23.5 30t38.5 5 q35 -10 41 -11q6 0 8 -2h8q4 0 12.5 -1t12.5 -1q2 0 6.5 1t7.5 1h2q5 0 17 4q1 0 3 1t3 1v2q2 0 2 2h2q0 2 1 5t1 4v10q0 6 -2 10q0 2 -2 2q-4 8 -6 10q0 2 -5 7l-12 12q-2 1 -6 4t-6 4q-6 2 -14 6l-2 2q-4 1 -11.5 3t-11.5 3h-18q-21 0 -36.5 15.5t-15.5 34.5q0 12 7 26 q1 1 2 3t2 3q6 12 8 15q0 2 2 4v2q6 15 12 33q5 19 8 22q-111 40 -155 146q-19 48 -19 149q0 16 -0.5 46.5t-0.5 49.5z" />
<glyph unicode="&#xe8;" horiz-adv-x="663" d="M55 412q-10 -72 2 -140q8 -55 47 -122q40 -65 99 -107q53 -34 133 -41q208 -14 260 100q12 27 14 43q5 21 -4.5 38.5t-30.5 23.5q-19 5 -38 -5t-23 -30q-1 -3 -2 -8.5t-2 -7.5q0 -4 -2 -4v-2q-5 -10 -8 -13q-1 -1 -2 -3t-2 -3t-4.5 -3t-4.5 -3q-4 -4 -6 -4l-12 -6 q-1 -1 -3 -2t-3 -2l-31 -7q-4 0 -6 -2h-16h-70h-8q-9 2 -13 2q-17 3 -28 9q-2 1 -6 2t-6 2q-1 0 -2.5 1t-2.5 1q-16 8 -24 14q-1 0 -2 1t-2 1q-6 6 -10 8q-6 8 -21 23l-4 4q-1 3 -4 8t-4 6q-12 15 -21 33q-2 3 -12 23q0 4 -2 4q-1 3 -2 8t-2 8q-6 24 -6 29q-1 2 -2 6.5 t-2 7.5v6q-2 20 -2 60q35 -4 53 -2q16 0 45 -1t43 -1q50 -3 102 6q41 9 78 30q81 45 119 119q39 77 0 154q-23 49 -86 82q-52 27 -125 30q-65 3 -123 -24q-42 -18 -92 -80q-89 -113 -111 -270zM168 467q1 6 4 15l4 12q2 5 5 15t5 15l2 2v2q2 3 9 17q18 36 32 57q1 2 4.5 6 t4.5 6q1 0 2 1t2 1q15 20 20 25q3 3 10.5 9t10.5 9l2 3q2 1 6 4t6 4q8 4 10 4l2 2q20 5 23 6q2 1 6 2t6 2h55l2 -2q11 0 17 -2q16 -4 24 -8h4q1 -1 5.5 -3t5.5 -3q5 -1 12 -6.5t10 -6.5h2q1 -2 4 -5t4 -5l9 -8q4 -8 6 -10q0 -1 1 -2t1 -2t1 -5t1 -6q2 -2 2 -6v-20 q-1 -2 -6 -17q-1 -2 -3 -7t-3 -7q-1 -1 -3 -4t-3 -4q-4 -4 -5 -4q-9 -12 -20 -23q-6 -6 -10 -8l-8 -8q-9 -6 -21 -12q-12 -8 -22 -13l-3 -2q-3 -1 -7.5 -2t-6.5 -2t-7 -2t-7 -2q-1 0 -7.5 -1t-7.5 -1q-4 0 -13 -1t-13 -1q-12 0 -36 1t-36 1h-94zM189 1004.5q4 19.5 22 29.5 q17 10 39 5t31 -23q7 -14 8 -15l4 -8q4 -4 4 -6q21 -21 29 -31q5 -5 29.5 -26.5t37.5 -32.5q13 -15 13 -37t-13 -35q-15 -15 -35.5 -14.5t-35.5 14.5q-10 9 -34 31t-37.5 35t-30.5 34t-27 42q-8 18 -4 37.5z" />
<glyph unicode="&#xe9;" horiz-adv-x="663" d="M55 412q22 157 111 270q50 62 92 80q58 27 123 24q73 -3 125 -30q63 -33 86 -82q39 -77 0 -154q-38 -74 -119 -119q-37 -21 -78 -30q-52 -9 -102 -6q-14 0 -43 1t-45 1q-18 -2 -53 2q0 -40 2 -60v-6q1 -3 2 -7.5t2 -6.5q0 -5 6 -29q1 -3 2 -8t2 -8q2 0 2 -4 q10 -20 12 -23q9 -18 21 -33q1 -1 4 -6t4 -8l4 -4q15 -15 21 -23q4 -2 10 -8q1 0 2 -1t2 -1q8 -6 24 -14q1 0 2.5 -1t2.5 -1q2 -1 6 -2t6 -2q11 -6 28 -9l13 -2h8h70h16q2 2 6 2l31 7q1 1 3 2t3 2l12 6q2 0 6 4q1 1 4.5 3t4.5 3t2 3t2 3q3 3 8 13v2q2 0 2 4q1 2 2 7.5t2 8.5 q4 20 23 30t38 5q21 -6 30.5 -23.5t4.5 -38.5q-2 -15 -14 -43q-52 -114 -260 -100q-80 7 -133 41q-59 42 -99 107q-39 67 -47 122q-12 68 -2 140zM168 467h94q12 0 36 -1t36 -1q4 0 13 1t13 1q1 0 7.5 1t7.5 1q2 1 7 2t7 2t6.5 2t7.5 2l3 2q10 5 22 13q12 6 21 12l8 8 q4 2 10 8q11 11 20 23q1 0 5 4q1 1 3 4t3 4q1 2 3 7t3 7q5 15 6 17v20q0 4 -2 6q0 2 -1 6t-1 5t-1 2t-1 2q-2 2 -6 10l-9 8q-1 2 -4 5t-4 5h-2q-3 1 -10 6.5t-12 6.5q-1 1 -5.5 3t-5.5 3h-4q-8 4 -24 8q-6 2 -17 2q0 2 -2 2h-55q-2 -1 -6 -2t-6 -2q-3 -1 -23 -6q-2 0 -2 -2 q-2 0 -10 -4q-2 -1 -6 -4t-6 -4q0 -3 -2 -3q-3 -3 -10.5 -9t-10.5 -9q-5 -5 -20 -25q-1 0 -2 -1t-2 -1q-1 -2 -4.5 -6t-4.5 -6q-14 -21 -32 -57q-7 -14 -9 -17v-2q0 -2 -2 -2q-2 -5 -5 -15t-5 -15l-4 -12t-4 -15zM332 862q0 22 14 37q1 1 68 59q12 15 28 31q0 2 4 6 q0 1 1 2.5l2 3t2 3.5q2 2 8 14q9 18 30.5 23t38.5 -5q37 -21 19 -67q-10 -21 -27 -42t-30.5 -34t-37.5 -35t-34 -31q-15 -14 -36 -14.5t-36 14.5q-14 13 -14 35z" />
<glyph unicode="&#xea;" horiz-adv-x="663" d="M55 412q22 157 111 270q50 62 92 80q58 27 123 24q73 -3 125 -30q63 -33 86 -82q39 -77 0 -154q-38 -74 -119 -119q-37 -21 -78 -30q-52 -9 -102 -6q-14 0 -43 1t-45 1q-18 -2 -53 2q0 -40 2 -60v-6q1 -3 2 -7.5t2 -6.5q0 -5 6 -29q1 -3 2 -8t2 -8q2 0 2 -4 q10 -20 12 -23q9 -18 21 -33q1 -1 4 -6t4 -8l4 -4q15 -15 21 -23q4 -2 10 -8q1 0 2 -1t2 -1q8 -6 24 -14q1 0 2.5 -1t2.5 -1q2 -1 6 -2t6 -2q11 -6 28 -9l13 -2h8h70h16q2 2 6 2l31 7q1 1 3 2t3 2l12 6q2 0 6 4q1 1 4.5 3t4.5 3t2 3t2 3q3 3 8 13v2q2 0 2 4q1 2 2 7.5t2 8.5 q4 20 23 30t38 5q21 -6 30.5 -23.5t4.5 -38.5q-2 -15 -14 -43q-52 -114 -260 -100q-80 7 -133 41q-59 42 -99 107q-39 67 -47 122q-12 68 -2 140zM157 833q0 21 15 35q14 14 51 49t62.5 62t46.5 53q6 6 10 8q22 15 41 7q47 -13 104 -78q7 -8 22 -28.5t27 -34.5t25 -25 q15 -14 14.5 -35t-14.5 -35q-15 -15 -34.5 -14.5t-34.5 14.5q-10 8 -21 19t-17 18.5t-18 23.5t-16 21q-24 28 -39 43q-25 -29 -77 -78t-62 -59q-15 -15 -36 -15t-34 15q-15 13 -15 34zM168 467h94q12 0 36 -1t36 -1q4 0 13 1t13 1q1 0 7.5 1t7.5 1q2 1 7 2t7 2t6.5 2t7.5 2 l3 2q10 5 22 13q12 6 21 12l8 8q4 2 10 8q11 11 20 23q1 0 5 4q1 1 3 4t3 4q1 2 3 7t3 7q5 15 6 17v20q0 4 -2 6q0 2 -1 6t-1 5t-1 2t-1 2q-2 2 -6 10l-9 8q-1 2 -4 5t-4 5h-2q-3 1 -10 6.5t-12 6.5q-1 1 -5.5 3t-5.5 3h-4q-8 4 -24 8q-6 2 -17 2q0 2 -2 2h-55q-2 -1 -6 -2 t-6 -2q-3 -1 -23 -6q-2 0 -2 -2q-2 0 -10 -4q-2 -1 -6 -4t-6 -4q0 -3 -2 -3q-3 -3 -10.5 -9t-10.5 -9q-5 -5 -20 -25q-1 0 -2 -1t-2 -1q-1 -2 -4.5 -6t-4.5 -6q-14 -21 -32 -57q-7 -14 -9 -17v-2q0 -2 -2 -2q-2 -5 -5 -15t-5 -15l-4 -12t-4 -15z" />
<glyph unicode="&#xeb;" horiz-adv-x="663" d="M55 412q22 157 111 270q50 62 92 80q58 27 123 24q73 -3 125 -30q63 -33 86 -82q39 -77 0 -154q-38 -74 -119 -119q-37 -21 -78 -30q-52 -9 -102 -6q-14 0 -43 1t-45 1q-18 -2 -53 2q0 -40 2 -60v-6q1 -3 2 -7.5t2 -6.5q0 -5 6 -29q1 -3 2 -8t2 -8q2 0 2 -4 q10 -20 12 -23q9 -18 21 -33q1 -1 4 -6t4 -8l4 -4q15 -15 21 -23q4 -2 10 -8q1 0 2 -1t2 -1q8 -6 24 -14q1 0 2.5 -1t2.5 -1q2 -1 6 -2t6 -2q11 -6 28 -9l13 -2h8h70h16q2 2 6 2l31 7q1 1 3 2t3 2l12 6q2 0 6 4q1 1 4.5 3t4.5 3t2 3t2 3q3 3 8 13v2q2 0 2 4q1 2 2 7.5t2 8.5 q4 20 23 30t38 5q21 -6 30.5 -23.5t4.5 -38.5q-2 -15 -14 -43q-52 -114 -260 -100q-80 7 -133 41q-59 42 -99 107q-39 67 -47 122q-12 68 -2 140zM133 864q-4 21 6 37v4q0 16 15 35q17 23 47.5 27.5t54.5 -9.5q25 -15 36.5 -42t4.5 -54q-6 -28 -30 -48t-52 -17q-34 3 -53 22 q-18 15 -29 45zM168 467h94q12 0 36 -1t36 -1q4 0 13 1t13 1q1 0 7.5 1t7.5 1q2 1 7 2t7 2t6.5 2t7.5 2l3 2q10 5 22 13q12 6 21 12l8 8q4 2 10 8q11 11 20 23q1 0 5 4q1 1 3 4t3 4q1 2 3 7t3 7q5 15 6 17v20q0 4 -2 6q0 2 -1 6t-1 5t-1 2t-1 2q-2 2 -6 10l-9 8q-1 2 -4 5 t-4 5h-2q-3 1 -10 6.5t-12 6.5q-1 1 -5.5 3t-5.5 3h-4q-8 4 -24 8q-6 2 -17 2q0 2 -2 2h-55q-2 -1 -6 -2t-6 -2q-3 -1 -23 -6q-2 0 -2 -2q-2 0 -10 -4q-2 -1 -6 -4t-6 -4q0 -3 -2 -3q-3 -3 -10.5 -9t-10.5 -9q-5 -5 -20 -25q-1 0 -2 -1t-2 -1q-1 -2 -4.5 -6t-4.5 -6 q-14 -21 -32 -57q-7 -14 -9 -17v-2q0 -2 -2 -2q-2 -5 -5 -15t-5 -15l-4 -12t-4 -15zM428 864q-6 20 4 37v4q0 17 14 35q18 23 48.5 27.5t54.5 -9.5q25 -15 37 -41.5t6 -54.5q-6 -27 -30.5 -47.5t-51.5 -17.5q-33 3 -55 22q-21 21 -27 45z" />
<glyph unicode="&#xec;" horiz-adv-x="356" d="M57 1010q-18 46 19 67q17 10 38.5 5t30.5 -23q6 -12 9 -15l4 -8q4 -4 4 -6q16 -16 28 -31q66 -58 68 -59q14 -15 14 -36.5t-14 -35.5q-15 -15 -36 -14.5t-36 14.5q-10 9 -34 31t-37.5 35t-30.5 34t-27 42zM184 764q0 -240 6 -361q1 -30 6.5 -89t6.5 -89q1 -25 -0.5 -89 t0.5 -89q2 -21 15 -34t34 -13t36.5 13.5t14.5 33.5q-3 0 -1 88l1 88q0 1 -6 88l-6 92q-6 91 -6 361q0 22 -15 36.5t-37 14.5q-20 0 -34.5 -14.5t-14.5 -36.5z" />
<glyph unicode="&#xed;" horiz-adv-x="333" d="M51 764q0 22 14.5 36.5t34.5 14.5q22 0 37 -14.5t15 -36.5q0 -270 6 -361l6 -92q6 -87 6 -88l-2 -88q-1 -88 2 -88q1 -20 -14.5 -33.5t-36.5 -13.5t-34 13t-15 34q-2 25 -0.5 89t0.5 89q-1 30 -6.5 89.5t-6.5 88.5q-6 121 -6 361zM62 911.5q0 21.5 14 36.5 q13 10 36.5 31.5t30.5 28.5q4 5 29 30q0 2 4 6q0 1 4 9q2 2 8 14q9 18 31 23t39 -5q18 -10 22 -29.5t-4 -37.5q-10 -21 -27 -42t-30.5 -34t-37.5 -34t-34 -31q-15 -14 -35.5 -14.5t-35.5 14.5q-14 13 -14 34.5z" />
<glyph unicode="&#xee;" horiz-adv-x="524" d="M53 871q0 21 15 34q12 12 50 48.5t63 62.5t46 53q5 5 11 8q22 14 41 6q48 -13 104 -77q7 -8 22 -28.5t27 -34.5t25 -25q15 -14 14.5 -35t-14.5 -35q-15 -15 -35 -14.5t-35 14.5q-10 8 -21 19t-17 18.5t-18 23.5t-16 21q-24 28 -39 43q-25 -29 -77 -78t-62 -59 q-15 -15 -35.5 -15t-33.5 15q-15 14 -15 35zM229 764q0 22 14.5 36.5t35.5 14.5q22 0 36.5 -14.5t14.5 -36.5q0 -270 6 -361l6 -92q6 -87 6 -88l-2 -88q-1 -88 2 -88q1 -20 -14.5 -33.5t-36.5 -13.5t-34 13t-15 34q-2 25 -0.5 89t0.5 89q-1 30 -6 89t-6 89q-7 141 -7 361z " />
<glyph unicode="&#xef;" horiz-adv-x="565" d="M53 881q-4 21 6 37v4q0 15 15 34q17 23 47.5 28t54.5 -9q25 -15 36.5 -42t4.5 -54q-6 -28 -30 -48.5t-52 -17.5q-33 3 -53 23q-18 15 -29 45zM240 764q0 22 14.5 36.5t34.5 14.5q22 0 36.5 -14.5t14.5 -36.5q0 -270 6 -361l6 -92q6 -87 6 -88l-2 -88q-1 -88 2 -88 q1 -20 -14.5 -33.5t-36.5 -13.5t-34 13t-15 34q-2 25 -0.5 89t0.5 89q-1 29 -6 88.5t-6 89.5q-6 121 -6 361zM348 881q-6 19 4 37v4q0 15 15 34q18 23 48 28t54 -9q25 -15 37 -41.5t6 -54.5q-6 -27 -30.5 -48t-51.5 -18q-32 3 -55 23q-21 21 -27 45z" />
<glyph unicode="&#xf0;" horiz-adv-x="778" d="M70 547q39 179 139 246q49 34 133 41q105 8 158 -7q37 -11 78 -34q6 -6 8 -7l-43 148q-3 10 -29 86q-5 17 -16 43q-3 10 -9 20v2q-1 2 -2 5.5t-2 5.5q-17 37 -88 153q-1 2 -3 5.5t-3 5.5q-97 -61 -129 -84q-15 -11 -36.5 -5.5t-30.5 21.5q-22 42 18 70q14 11 115 75 q-25 25 -37 35q-1 1 -4 3t-4 3q-3 2 -8 6t-7 5q-20 17 -37 28q-31 24 -55 64q-11 19 -5.5 39t24.5 30q17 11 37.5 5.5t29.5 -23.5q2 -2 6 -10l29 -29q6 -4 14 -12q6 0 6 -4q5 -4 15.5 -11.5t15.5 -11.5q35 -25 68 -63q124 80 135 88q15 10 36.5 4t30.5 -21q10 -21 5 -39 t-23 -30q-41 -31 -123 -82q47 -65 82 -140q41 -80 70 -176q20 -62 51 -170q51 -188 45 -354q-3 -92 -27 -180q-18 -55 -26 -76q-19 -48 -35 -74q-43 -73 -105 -108q-70 -36 -163 -29q-93 13 -156 62q-78 58 -115 131q-74 152 -28 350zM152 410q0 -7 1 -21.5t1 -21.5 q0 -3 1 -10t1 -11q0 -1 1 -4t1 -4q6 -41 20 -76l2 -6q1 -2 3 -5t3 -5q7 -14 9 -17t5 -8t5 -8q4 -4 6 -8l2 -2q25 -33 49 -51q1 0 2 -1t2 -1q5 -5 6 -5q13 -9 17 -10q8 -6 28 -14q2 -2 5 -2q1 -1 4 -2t4 -2q12 -4 16 -4q15 -5 19 -5q1 0 3.5 -1t4.5 -1q12 -2 37 -2q6 2 18 2 q6 0 8 2q20 3 37 9v2q4 0 6 2q12 6 15 8l12 8l6 6q10 10 16 19q1 1 5.5 6t5.5 6q4 8 8 12q5 8 14 31q2 3 5 8t5 8v5q0 1 1 2t1 2q10 25 13 34q14 35 24 80q1 7 4 21.5t4 21.5v13q3 9 3 20q5 55 2 121q-3 6 -5 8q-9 24 -18 45q-1 3 -3 8.5t-3 8.5q-1 1 -3 5t-3 5q-1 4 -10 22 l-7 13q-4 4 -4 6q-14 14 -22 20l-2 2q-1 1 -3 2t-3 2q-8 8 -17 11q-14 9 -16 10l-12 6l-12 4t-15 4q-13 0 -14 2h-9q-12 2 -34 2q-13 -1 -37 -2t-37 -2q-4 0 -6 -2q-3 0 -8.5 -1t-8.5 -1q-4 -1 -13 -4t-13 -4q-2 -2 -4 -2q-1 -1 -11 -6l-12 -6q0 -1 -4 -5q-9 -6 -18 -18 q-6 -6 -7 -8l-4 -4q-10 -13 -28 -54q-1 -1 -2 -4t-2 -4q-5 -10 -7 -16q-2 -5 -5 -16.5t-5 -16.5q-12 -42 -18 -80v-8l-2 -4q0 -14 -2 -20q0 -27 -2 -39z" />
<glyph unicode="&#xf1;" horiz-adv-x="620" d="M53 750q-5 21 4.5 39t30.5 22q19 6 39 -4.5t23 -30.5q0 -3 1 -9t1 -9q6 -24 6 -47q6 5 17.5 16t17.5 16q70 57 151 60q91 0 143 -58q50 -53 60 -135q11 -71 14 -159q6 -100 6 -402q0 -20 -14.5 -34.5t-34.5 -14.5t-35.5 14.5t-15.5 34.5v301q-1 25 -4 75t-4 75 q-1 8 -2 24.5t-2 24.5q0 4 -1 12t-1 12v5q-2 2 -2 8q-5 27 -15 59q-6 6 -6 12q-1 2 -4 6.5t-4 6.5l-2 2v2l-10 10h-2l-5 4q-2 1 -7 3t-7 3l-4 2q-2 1 -5 2t-5 2q-1 0 -4 1t-4 1h-7l-8 1q-8 1 -8 -1h-10q-22 -4 -33 -8q-1 -1 -4 -2t-4 -2t-4 -2t-4 -2q-2 -2 -8.5 -5t-8.5 -5 l-4 -2v-2q-4 -2 -10 -8l-25 -25l-8 -12q-3 -3 -6 -9q-25 -36 -37 -63q0 -2 -2 -2q0 -4 -2 -6q-4 -12 -4 -15q-2 -4 -2 -8q0 -27 -1 -78.5t-1 -76.5q-3 -85 0 -168q0 -120 -14 -166q-6 -18 -23.5 -28t-38.5 -7q-20 6 -30.5 24t-4.5 37v5q4 10 8 34q0 5 3 11v18q0 9 0.5 26 t0.5 30.5t-1 25.5q0 13 -1.5 40t-1.5 40q0 15 1.5 44t1.5 44q2 41 2 123q-2 4 -2 12q0 3 1 9t1 9v39q0 56 -5 95l-6 49v8q-2 2 -2 4q0 4 -1 12t-1 11zM94 887.5q-5 19.5 4 38.5q30 65 86 73q38 5 99 -14q30 -11 49 -16q8 -4 24 -8q6 0 9 -3h18q6 3 8 3q1 1 5 3t5 3l7 4 q3 2 5.5 4.5t5 5.5t3.5 4q14 15 36 14.5t36 -14.5q15 -15 14.5 -35.5t-14.5 -34.5q-51 -54 -113 -57q-33 -2 -102 23q-5 1 -21 6.5t-25 7.5q-3 1 -10 3t-10 3h-10l-2 -2q-1 0 -2 -1t-2 -1q0 -1 -1 -2t-1 -2q-2 -3 -5.5 -9.5t-5.5 -9.5q-9 -18 -29.5 -22.5t-37.5 6.5 q-18 10 -23 29.5z" />
</font>
</defs>
</svg>
